<svg width="43" height="40" viewBox="0 0 43 40" fill="none" xmlns="http://www.w3.org/2000/svg">
<rect x="3.58301" y="8.33325" width="35.8333" height="25" fill="#FBD115"/>
<rect x="7.16602" y="6.66675" width="1.79167" height="1.66667" fill="#2E2E2E"/>
<rect x="8.95801" y="6.66675" width="1.79167" height="1.66667" fill="#2E2E2E"/>
<rect x="10.75" y="6.66675" width="1.79167" height="1.66667" fill="#2E2E2E"/>
<rect x="12.541" y="6.66675" width="1.79167" height="1.66667" fill="#2E2E2E"/>
<rect x="14.333" y="6.66675" width="1.79167" height="1.66667" fill="#2E2E2E"/>
<rect x="16.125" y="6.66675" width="1.79167" height="1.66667" fill="#2E2E2E"/>
<rect x="17.916" y="6.66675" width="1.79167" height="1.66667" fill="#2E2E2E"/>
<rect x="19.708" y="6.66675" width="1.79167" height="1.66667" fill="#2E2E2E"/>
<rect x="21.5" y="6.66675" width="1.79167" height="1.66667" fill="#2E2E2E"/>
<rect x="23.291" y="6.66675" width="1.79167" height="1.66667" fill="#2E2E2E"/>
<rect x="25.083" y="6.66675" width="1.79167" height="1.66667" fill="#2E2E2E"/>
<rect x="26.875" y="6.66675" width="1.79167" height="1.66667" fill="#2E2E2E"/>
<rect x="28.666" y="6.66675" width="1.79167" height="1.66667" fill="#2E2E2E"/>
<rect x="30.458" y="6.66675" width="1.79167" height="1.66667" fill="#2E2E2E"/>
<rect x="32.25" y="6.66675" width="1.79167" height="1.66667" fill="#2E2E2E"/>
<rect x="34.041" y="6.66675" width="1.79167" height="1.66667" fill="#2E2E2E"/>
<rect x="35.833" y="6.66675" width="1.79167" height="1.66667" fill="#2E2E2E"/>
<rect x="37.625" y="8.3335" width="1.79167" height="1.66667" fill="#2E2E2E"/>
<rect x="37.625" y="10" width="1.79167" height="1.66667" fill="#2E2E2E"/>
<rect x="37.625" y="11.6667" width="1.79167" height="1.66667" fill="#2E2E2E"/>
<rect x="37.625" y="13.3335" width="1.79167" height="1.66667" fill="#2E2E2E"/>
<rect x="37.625" y="15" width="1.79167" height="1.66667" fill="#2E2E2E"/>
<rect x="37.625" y="16.6667" width="1.79167" height="1.66667" fill="#2E2E2E"/>
<rect x="37.625" y="18.3335" width="1.79167" height="1.66667" fill="#2E2E2E"/>
<rect x="37.625" y="20" width="1.79167" height="1.66667" fill="#2E2E2E"/>
<rect x="37.625" y="21.6667" width="1.79167" height="1.66667" fill="#2E2E2E"/>
<rect x="37.625" y="23.3335" width="1.79167" height="1.66667" fill="#2E2E2E"/>
<rect x="37.625" y="25" width="1.79167" height="1.66667" fill="#2E2E2E"/>
<rect x="37.625" y="26.6667" width="1.79167" height="1.66667" fill="#2E2E2E"/>
<rect x="37.625" y="28.3335" width="1.79167" height="1.66667" fill="#2E2E2E"/>
<rect x="37.625" y="30" width="1.79167" height="1.66667" fill="#2E2E2E"/>
<rect x="37.625" y="31.6667" width="1.79167" height="1.66667" fill="#2E2E2E"/>
<rect x="35.833" y="33.3335" width="1.79167" height="1.66667" fill="#2E2E2E"/>
<rect x="5.375" y="6.66675" width="1.79167" height="1.66667" fill="#2E2E2E"/>
<rect x="3.58301" y="8.3335" width="1.79167" height="1.66667" fill="#2E2E2E"/>
<rect x="5.375" y="8.3335" width="1.79167" height="1.66667" fill="#2E2E2E"/>
<rect x="7.16602" y="10" width="1.79167" height="1.66667" fill="#2E2E2E"/>
<rect x="8.95801" y="11.6667" width="1.79167" height="1.66667" fill="#2E2E2E"/>
<rect x="10.75" y="13.3335" width="1.79167" height="1.66667" fill="#2E2E2E"/>
<rect x="12.541" y="15" width="1.79167" height="1.66667" fill="#2E2E2E"/>
<rect x="14.333" y="16.6667" width="1.79167" height="1.66667" fill="#2E2E2E"/>
<rect x="16.125" y="18.3335" width="1.79167" height="1.66667" fill="#2E2E2E"/>
<rect x="17.916" y="20" width="1.79167" height="1.66667" fill="#2E2E2E"/>
<rect x="19.708" y="21.6667" width="1.79167" height="1.66667" fill="#2E2E2E"/>
<rect x="21.5" y="21.6667" width="1.79167" height="1.66667" fill="#2E2E2E"/>
<rect x="23.291" y="20" width="1.79167" height="1.66667" fill="#2E2E2E"/>
<rect x="25.083" y="21.6667" width="1.79167" height="1.66667" fill="#2E2E2E"/>
<rect x="26.875" y="23.3335" width="1.79167" height="1.66667" fill="#2E2E2E"/>
<rect x="28.666" y="25" width="1.79167" height="1.66667" fill="#2E2E2E"/>
<rect x="30.458" y="26.6667" width="1.79167" height="1.66667" fill="#2E2E2E"/>
<rect x="32.25" y="28.3335" width="1.79167" height="1.66667" fill="#2E2E2E"/>
<rect x="34.041" y="30" width="1.79167" height="1.66667" fill="#2E2E2E"/>
<rect x="35.833" y="31.6667" width="1.79167" height="1.66667" fill="#2E2E2E"/>
<rect x="25.083" y="18.3335" width="1.79167" height="1.66667" fill="#2E2E2E"/>
<rect x="26.875" y="16.6667" width="1.79167" height="1.66667" fill="#2E2E2E"/>
<rect x="28.666" y="15" width="1.79167" height="1.66667" fill="#2E2E2E"/>
<rect x="30.458" y="13.3335" width="1.79167" height="1.66667" fill="#2E2E2E"/>
<rect x="32.25" y="11.6667" width="1.79167" height="1.66667" fill="#2E2E2E"/>
<rect x="34.041" y="10" width="1.79167" height="1.66667" fill="#2E2E2E"/>
<rect x="35.833" y="8.3335" width="1.79167" height="1.66667" fill="#2E2E2E"/>
<rect x="3.58301" y="10" width="1.79167" height="1.66667" fill="#2E2E2E"/>
<rect x="3.58301" y="11.6667" width="1.79167" height="1.66667" fill="#2E2E2E"/>
<rect x="3.58301" y="13.3335" width="1.79167" height="1.66667" fill="#2E2E2E"/>
<rect x="3.58301" y="15" width="1.79167" height="1.66667" fill="#2E2E2E"/>
<rect x="3.58301" y="16.6667" width="1.79167" height="1.66667" fill="#2E2E2E"/>
<rect x="3.58301" y="18.3335" width="1.79167" height="1.66667" fill="#2E2E2E"/>
<rect x="3.58301" y="20" width="1.79167" height="1.66667" fill="#2E2E2E"/>
<rect x="3.58301" y="21.6667" width="1.79167" height="1.66667" fill="#2E2E2E"/>
<rect x="3.58301" y="23.3335" width="1.79167" height="1.66667" fill="#2E2E2E"/>
<rect x="3.58301" y="25" width="1.79167" height="1.66667" fill="#2E2E2E"/>
<rect x="3.58301" y="26.6667" width="1.79167" height="1.66667" fill="#2E2E2E"/>
<rect x="3.58301" y="28.3335" width="1.79167" height="1.66667" fill="#2E2E2E"/>
<rect x="3.58301" y="30" width="1.79167" height="1.66667" fill="#2E2E2E"/>
<rect x="3.58301" y="31.6667" width="1.79167" height="1.66667" fill="#2E2E2E"/>
<rect x="5.375" y="33.3335" width="1.79167" height="1.66667" fill="#2E2E2E"/>
<rect x="7.16602" y="33.3335" width="1.79167" height="1.66667" fill="#2E2E2E"/>
<rect x="8.95801" y="33.3335" width="1.79167" height="1.66667" fill="#2E2E2E"/>
<rect x="10.75" y="33.3335" width="1.79167" height="1.66667" fill="#2E2E2E"/>
<rect x="12.541" y="33.3335" width="1.79167" height="1.66667" fill="#2E2E2E"/>
<rect x="14.333" y="33.3335" width="1.79167" height="1.66667" fill="#2E2E2E"/>
<rect x="16.125" y="33.3335" width="1.79167" height="1.66667" fill="#2E2E2E"/>
<rect x="17.916" y="33.3335" width="1.79167" height="1.66667" fill="#2E2E2E"/>
<rect x="19.708" y="33.3335" width="1.79167" height="1.66667" fill="#2E2E2E"/>
<rect x="21.5" y="33.3335" width="1.79167" height="1.66667" fill="#2E2E2E"/>
<rect x="23.291" y="33.3335" width="1.79167" height="1.66667" fill="#2E2E2E"/>
<rect x="25.083" y="33.3335" width="1.79167" height="1.66667" fill="#2E2E2E"/>
<rect x="26.875" y="33.3335" width="1.79167" height="1.66667" fill="#2E2E2E"/>
<rect x="28.666" y="33.3335" width="1.79167" height="1.66667" fill="#2E2E2E"/>
<rect x="30.458" y="33.3335" width="1.79167" height="1.66667" fill="#2E2E2E"/>
<rect x="32.25" y="33.3335" width="1.79167" height="1.66667" fill="#2E2E2E"/>
<rect x="34.041" y="33.3335" width="1.79167" height="1.66667" fill="#2E2E2E"/>
<rect x="5.375" y="31.6667" width="1.79167" height="1.66667" fill="#2E2E2E"/>
<rect x="7.16602" y="30" width="1.79167" height="1.66667" fill="#2E2E2E"/>
<rect x="8.95801" y="28.3335" width="1.79167" height="1.66667" fill="#2E2E2E"/>
<rect x="10.75" y="26.6667" width="1.79167" height="1.66667" fill="#2E2E2E"/>
<rect x="12.541" y="25" width="1.79167" height="1.66667" fill="#2E2E2E"/>
<rect x="14.333" y="23.3335" width="1.79167" height="1.66667" fill="#2E2E2E"/>
<rect x="16.125" y="21.6667" width="1.79167" height="1.66667" fill="#2E2E2E"/>
<rect x="5.375" y="10" width="1.79167" height="3.33333" fill="#E4B612"/>
<rect x="8.95898" y="10" width="0.895833" height="1.66667" fill="#E4B612"/>
<rect x="10.75" y="11.6665" width="0.895833" height="1.66667" fill="#E4B612"/>
<rect x="12.542" y="13.3333" width="0.895833" height="1.66667" fill="#E4B612"/>
<rect x="14.334" y="15" width="0.895833" height="1.66667" fill="#E4B612"/>
<rect x="16.125" y="16.6665" width="0.895833" height="1.66667" fill="#E4B612"/>
<rect x="17.917" y="18.3333" width="0.895833" height="1.66667" fill="#E4B612"/>
<rect x="7.16699" y="8.33325" width="0.895833" height="1.66667" fill="#E4B612"/>
<rect x="5.375" y="13.3333" width="1.79167" height="1.66667" fill="#E4B612"/>
<rect x="5.375" y="15" width="1.79167" height="3.33333" fill="#E4B612"/>
<rect x="5.375" y="18.3333" width="1.79167" height="3.33333" fill="#E4B612"/>
<rect x="5.375" y="21.6665" width="1.79167" height="3.33333" fill="#E4B612"/>
<rect x="5.375" y="25" width="1.79167" height="1.66667" fill="#E4B612"/>
<rect x="5.375" y="26.6665" width="1.79167" height="5" fill="#E4B612"/>
</svg>
