<svg width="375" height="60" viewBox="0 0 375 60" fill="none" xmlns="http://www.w3.org/2000/svg">
<path d="M9 4.5V9H4.5V13.5H0V51H4.5V55.5H9V60H13.5V4.5H9Z" fill="#A2724A"/>
<path d="M9 4.5V9H4.5V13.5H0V18H4.5H9V13.5H13.5V9V4.5H9Z" fill="#1E3445"/>
<rect y="18" width="4.5" height="28.5" fill="#1E3445"/>
<path d="M9 60V55.5H4.5V51H0V46.5H4.5H9V51H13.5V55.5V60H9Z" fill="#1E3445"/>
<rect width="348" height="55.5" transform="translate(13.5 4.5)" fill="#A2724A"/>
<rect x="13.5" y="4.5" width="348" height="4.5" fill="#1E3445"/>
<path d="M30.5 38.2499V36.2499H28.5V34.2499H32.5V36.2499H38.5V32.2499H30.5V30.2499H28.5V26.2499H30.5V24.2499H40.5V26.2499H42.5V28.2499H38.5V26.2499H32.5V30.2499H40.5V32.2499H42.5V36.2499H40.5V38.2499H30.5ZM47.25 38.2499V36.2499H51.25V26.2499H47.25V24.2499H59.25V26.2499H55.25V36.2499H59.25V38.2499H47.25ZM66 38.2499V36.2499H64V34.2499H62V28.2499H64V26.2499H66V24.2499H76V26.2499H68V28.2499H66V34.2499H68V36.2499H72V32.2499H70V30.2499H76V38.2499H66ZM78.75 38.2499V24.2499H82.75V26.2499H84.75V28.2499H86.75V30.2499H88.75V24.2499H92.75V38.2499H88.75V34.2499H86.75V32.2499H84.75V30.2499H82.75V38.2499H78.75ZM114.25 38.2499V36.2499H118.25V26.2499H114.25V24.2499H126.25V26.2499H122.25V36.2499H126.25V38.2499H114.25ZM129 38.2499V24.2499H133V26.2499H135V28.2499H137V30.2499H139V24.2499H143V38.2499H139V34.2499H137V32.2499H135V30.2499H133V38.2499H129ZM164.5 38.2499V36.2499H162.5V24.2499H166.5V32.2499H168.5V24.2499H170.5V32.2499H172.5V24.2499H176.5V36.2499H174.5V38.2499H172.5V36.2499H170.5V34.2499H168.5V36.2499H166.5V38.2499H164.5ZM181.25 38.2499V36.2499H185.25V26.2499H181.25V24.2499H193.25V26.2499H189.25V36.2499H193.25V38.2499H181.25ZM202 38.2499V26.2499H198V24.2499H210V26.2499H206V38.2499H202ZM212.75 38.2499V24.2499H216.75V30.2499H222.75V24.2499H226.75V38.2499H222.75V32.2499H216.75V38.2499H212.75ZM250.25 38.2499V36.2499H248.25V34.2499H246.25V28.2499H248.25V26.2499H250.25V24.2499H260.25V26.2499H252.25V28.2499H250.25V34.2499H252.25V36.2499H256.25V32.2499H254.25V30.2499H260.25V38.2499H250.25ZM265 38.2499V36.2499H263V26.2499H265V24.2499H275V26.2499H277V36.2499H275V38.2499H265ZM267 36.2499H273V26.2499H267V36.2499ZM281.75 38.2499V36.2499H279.75V26.2499H281.75V24.2499H291.75V26.2499H293.75V36.2499H291.75V38.2499H281.75ZM283.75 36.2499H289.75V26.2499H283.75V36.2499ZM300.5 38.2499V36.2499H298.5V34.2499H296.5V28.2499H298.5V26.2499H300.5V24.2499H310.5V26.2499H302.5V28.2499H300.5V34.2499H302.5V36.2499H306.5V32.2499H304.5V30.2499H310.5V38.2499H300.5ZM315.25 38.2499V24.2499H319.25V36.2499H327.25V38.2499H315.25ZM330 38.2499V24.2499H344V26.2499H334V30.2499H342V32.2499H334V36.2499H344V38.2499H330Z" fill="black"/>
<rect x="13.5" y="55.5" width="348" height="4.5" fill="#1E3445"/>
<path d="M366 4.5V9H370.5V13.5H375V51H370.5V55.5H366V60H361.5V4.5H366Z" fill="#A2724A"/>
<path d="M366 4.5V9H370.5V13.5H375V18H370.5H366V13.5H361.5V9V4.5H366Z" fill="#1E3445"/>
<rect width="4.5" height="28.5" transform="matrix(-1 0 0 1 375 18)" fill="#1E3445"/>
<path d="M366 60V55.5H370.5V51H375V46.5H370.5H366V51H361.5V55.5V60H366Z" fill="#1E3445"/>
</svg>
