<svg width="358" height="60" viewBox="0 0 358 60" fill="none" xmlns="http://www.w3.org/2000/svg">
<path d="M9 4.5V9H4.5V13.5H0V51H4.5V55.5H9V60H13.5V4.5H9Z" fill="#94B0C2"/>
<path d="M9 4.5V9H4.5V13.5H0V18H4.5H9V13.5H13.5V9V4.5H9Z" fill="#1E3445"/>
<rect y="18" width="4.5" height="28.5" fill="#1E3445"/>
<path d="M9 60V55.5H4.5V51H0V46.5H4.5H9V51H13.5V55.5V60H9Z" fill="#1E3445"/>
<rect width="331" height="55.5" transform="translate(13.5 4.5)" fill="#94B0C2"/>
<rect x="13.5" y="4.5" width="331" height="4.5" fill="#1E3445"/>
<path d="M30.5 38.2499V36.2499H28.5V34.2499H32.5V36.2499H38.5V32.2499H30.5V30.2499H28.5V26.2499H30.5V24.2499H40.5V26.2499H42.5V28.2499H38.5V26.2499H32.5V30.2499H40.5V32.2499H42.5V36.2499H40.5V38.2499H30.5ZM51.25 26.2499V24.2499H55.25V26.2499H51.25ZM47.25 38.2499V36.2499H51.25V30.2499H49.25V28.2499H55.25V36.2499H59.25V38.2499H47.25ZM64 40.2499V38.2499H72V36.2499H64V34.2499H62V30.2499H64V28.2499H76V38.2499H74V40.2499H64ZM66 34.2499H72V30.2499H66V34.2499ZM78.75 38.2499V28.2499H90.75V30.2499H92.75V38.2499H88.75V30.2499H82.75V38.2499H78.75ZM118.25 26.2499V24.2499H122.25V26.2499H118.25ZM114.25 38.2499V36.2499H118.25V30.2499H116.25V28.2499H122.25V36.2499H126.25V38.2499H114.25ZM129 38.2499V28.2499H141V30.2499H143V38.2499H139V30.2499H133V38.2499H129ZM166.5 36.2499H168.5V38.2499H164.5V36.2499H162.5V28.2499H166.5V36.2499ZM170.5 28.2499V36.2499H168.5V28.2499H170.5ZM176.5 28.2499V36.2499H174.5V38.2499H170.5V36.2499H172.5V28.2499H176.5ZM185.25 26.2499V24.2499H189.25V26.2499H185.25ZM181.25 38.2499V36.2499H185.25V30.2499H183.25V28.2499H189.25V36.2499H193.25V38.2499H181.25ZM202 38.2499V30.2499H198V28.2499H202V24.2499H206V28.2499H210V30.2499H206V38.2499H202ZM212.75 38.2499V24.2499H216.75V28.2499H224.75V30.2499H226.75V38.2499H222.75V30.2499H216.75V38.2499H212.75ZM246.25 38.2499V24.2499H256.25V26.2499H258.25V28.2499H260.25V34.2499H258.25V36.2499H256.25V38.2499H246.25ZM250.25 36.2499H254.25V34.2499H256.25V28.2499H254.25V26.2499H250.25V36.2499ZM265 38.2499V36.2499H263V34.2499H265V32.2499H273V30.2499H265V28.2499H275V30.2499H277V38.2499H265ZM267 36.2499H273V34.2499H267V36.2499ZM281.75 38.2499V36.2499H279.75V28.2499H283.75V36.2499H289.75V28.2499H293.75V38.2499H281.75ZM302.5 38.2499V30.2499H298.5V28.2499H302.5V24.2499H306.5V28.2499H310.5V30.2499H306.5V38.2499H302.5ZM313.25 38.2499V24.2499H317.25V28.2499H325.25V30.2499H327.25V38.2499H323.25V30.2499H317.25V38.2499H313.25Z" fill="black"/>
<rect x="13.5" y="55.5" width="331" height="4.5" fill="#1E3445"/>
<path d="M349 4.5V9H353.5V13.5H358V51H353.5V55.5H349V60H344.5V4.5H349Z" fill="#94B0C2"/>
<path d="M349 4.5V9H353.5V13.5H358V18H353.5H349V13.5H344.5V9V4.5H349Z" fill="#1E3445"/>
<rect width="4.5" height="28.5" transform="matrix(-1 0 0 1 358 18)" fill="#1E3445"/>
<path d="M349 60V55.5H353.5V51H358V46.5H353.5H349V51H344.5V55.5V60H349Z" fill="#1E3445"/>
</svg>
