<svg width="167" height="60" viewBox="0 0 167 60" fill="none" xmlns="http://www.w3.org/2000/svg">
<path d="M13.5 4.5V9H9V13.5H4.5V51H9V55.5H13.5V60H18V4.5H13.5Z" fill="#A04AA2"/>
<path d="M13.5 4.5V9H9V13.5H4.5V18H9H13.5V13.5H18V9V4.5H13.5Z" fill="#1E3445"/>
<rect x="4.5" y="18" width="4.5" height="28.5" fill="#1E3445"/>
<path d="M13.5 60V55.5H9V51H4.5V46.5H9H13.5V51H18V55.5V60H13.5Z" fill="#1E3445"/>
<rect width="135" height="55.5" transform="translate(18 4.5)" fill="#A04AA2"/>
<rect x="18" y="4.5" width="135" height="4.5" fill="#1E3445"/>
<path d="M33 42.0624V19.7499H52.125V22.9374H55.3125V29.3124H52.125V32.4999H55.3125V38.8749H52.125V42.0624H33ZM39.375 29.3124H48.9375V22.9374H39.375V29.3124ZM39.375 38.8749H48.9375V32.4999H39.375V38.8749ZM59.25 42.0624V26.1249H62.4375V22.9374H65.625V19.7499H75.1875V22.9374H78.375V26.1249H81.5625V42.0624H75.1875V35.6874H65.625V42.0624H59.25ZM65.625 32.4999H75.1875V26.1249H72V22.9374H68.8125V26.1249H65.625V32.4999ZM91.875 42.0624V38.8749H88.6875V35.6874H85.5V26.1249H88.6875V22.9374H91.875V19.7499H104.625V22.9374H107.813V26.1249H101.438V22.9374H95.0625V26.1249H91.875V35.6874H95.0625V38.8749H101.438V35.6874H107.813V38.8749H104.625V42.0624H91.875ZM111.75 42.0624V19.7499H118.125V29.3124H121.313V26.1249H124.5V22.9374H127.688V19.7499H134.063V22.9374H130.875V26.1249H127.688V29.3124H124.5V32.4999H127.688V35.6874H130.875V38.8749H134.063V42.0624H124.5V38.8749H121.313V35.6874H118.125V42.0624H111.75Z" fill="black"/>
<rect x="18" y="55.5" width="135" height="4.5" fill="#1E3445"/>
<path d="M157.5 4.5V9H162V13.5H166.5V51H162V55.5H157.5V60H153V4.5H157.5Z" fill="#A04AA2"/>
<path d="M157.5 4.5V9H162V13.5H166.5V18H162H157.5V13.5H153V9V4.5H157.5Z" fill="#1E3445"/>
<rect width="4.5" height="28.5" transform="matrix(-1 0 0 1 166.5 18)" fill="#1E3445"/>
<path d="M157.5 60V55.5H162V51H166.5V46.5H162H157.5V51H153V55.5V60H157.5Z" fill="#1E3445"/>
</svg>
