<svg width="683" height="532" viewBox="0 0 683 532" fill="none" xmlns="http://www.w3.org/2000/svg">
<g filter="url(#filter0_d_63_335)">
<rect width="597" height="153" transform="translate(0 185)" fill="black"/>
<path d="M8.98633 18.5V9.5H17.9863V0.5H26.9863V9.5V18.5H17.9863V27.5H8.98633V18.5Z" fill="#795436"/>
<path d="M8.98633 18.5V27.5H0.000110626V18.5H8.98633Z" fill="#795436"/>
<rect x="26.9863" y="0.5" width="611.028" height="9" fill="#795436"/>
<path d="M656.014 18.5V9.5H647.014V0.5H638.014V9.5V18.5H647.014V27.5H656.014V18.5Z" fill="#795436"/>
<path d="M656.014 18.5V27.5H665V18.5H656.014Z" fill="#795436"/>
<rect y="27.5" width="9" height="468" fill="#795436"/>
<rect width="656" height="504" transform="translate(9 9.5)" fill="#FEFECB"/>
<rect x="665" y="27.5" width="9" height="468" fill="#795436"/>
<path d="M665 9.5V18.5V27.5H656V18.5H647V9.5H656H665Z" fill="#795436"/>
<path d="M9 9.5V18.5V27.5H18V18.5H27V9.5H18H9Z" fill="#795436"/>
<path d="M8.98633 504.5V513.5H17.9863V522.5H26.9863V513.5V504.5H17.9863V495.5H8.98633V504.5Z" fill="#795436"/>
<path d="M8.98633 504.5V495.5H0.000110626V504.5H8.98633Z" fill="#795436"/>
<rect width="620.028" height="9" transform="matrix(1 0 0 -1 26.9863 522.5)" fill="#795436"/>
<path d="M665.014 504.5V513.5H656.014V522.5H647.014V513.5V504.5H656.014V495.5H665.014V504.5Z" fill="#795436"/>
<path d="M665.014 504.5V495.5H674V504.5H665.014Z" fill="#795436"/>
</g>
<defs>
<filter id="filter0_d_63_335" x="0" y="0.5" width="683" height="531" filterUnits="userSpaceOnUse" color-interpolation-filters="sRGB">
<feFlood flood-opacity="0" result="BackgroundImageFix"/>
<feColorMatrix in="SourceAlpha" type="matrix" values="0 0 0 0 0 0 0 0 0 0 0 0 0 0 0 0 0 0 127 0" result="hardAlpha"/>
<feOffset dx="9" dy="9"/>
<feComposite in2="hardAlpha" operator="out"/>
<feColorMatrix type="matrix" values="0 0 0 0 0.117647 0 0 0 0 0.203922 0 0 0 0 0.270588 0 0 0 1 0"/>
<feBlend mode="normal" in2="BackgroundImageFix" result="effect1_dropShadow_63_335"/>
<feBlend mode="normal" in="SourceGraphic" in2="effect1_dropShadow_63_335" result="shape"/>
</filter>
</defs>
</svg>
