<svg width="245" height="60" viewBox="0 0 245 60" fill="none" xmlns="http://www.w3.org/2000/svg">
<path d="M13.5 4.5V9H9V13.5H4.5V51H9V55.5H13.5V60H18V4.5H13.5Z" fill="#A2724A"/>
<path d="M13.5 4.5V9H9V13.5H4.5V18H9H13.5V13.5H18V9V4.5H13.5Z" fill="#1E3445"/>
<rect x="4.5" y="18" width="4.5" height="28.5" fill="#1E3445"/>
<path d="M13.5 60V55.5H9V51H4.5V46.5H9H13.5V51H18V55.5V60H13.5Z" fill="#1E3445"/>
<rect width="213" height="55.5" transform="translate(18 4.5)" fill="#A2724A"/>
<rect x="18" y="4.5" width="213" height="4.5" fill="#1E3445"/>
<path d="M39.375 42.0624V38.8749H36.1875V35.6874H33V26.1249H36.1875V22.9374H39.375V19.7499H52.125V22.9374H55.3125V26.1249H48.9375V22.9374H42.5625V26.1249H39.375V35.6874H42.5625V38.8749H48.9375V35.6874H55.3125V38.8749H52.125V42.0624H39.375ZM62.4375 42.0624V38.8749H59.25V22.9374H62.4375V19.7499H78.375V22.9374H81.5625V38.8749H78.375V42.0624H62.4375ZM65.625 38.8749H75.1875V22.9374H65.625V38.8749ZM85.5 42.0624V19.7499H91.875V22.9374H95.0625V26.1249H98.25V29.3124H101.438V19.7499H107.813V42.0624H101.438V35.6874H98.25V32.4999H95.0625V29.3124H91.875V42.0624H85.5ZM111.75 42.0624V19.7499H134.063V22.9374H118.125V29.3124H130.875V32.4999H118.125V42.0624H111.75ZM141.188 42.0624V38.8749H147.563V22.9374H141.188V19.7499H160.313V22.9374H153.938V38.8749H160.313V42.0624H141.188ZM164.25 42.0624V19.7499H183.375V22.9374H186.563V32.4999H180.188V35.6874H183.375V38.8749H186.563V42.0624H177V38.8749H173.813V35.6874H170.625V42.0624H164.25ZM170.625 32.4999H177V29.3124H180.188V22.9374H170.625V32.4999ZM190.5 42.0624V19.7499H196.875V22.9374H200.063V26.1249H203.25V22.9374H206.438V19.7499H212.813V42.0624H206.438V29.3124H203.25V35.6874H200.063V29.3124H196.875V42.0624H190.5Z" fill="black"/>
<rect x="18" y="55.5" width="213" height="4.5" fill="#1E3445"/>
<path d="M235.5 4.5V9H240V13.5H244.5V51H240V55.5H235.5V60H231V4.5H235.5Z" fill="#A2724A"/>
<path d="M235.5 4.5V9H240V13.5H244.5V18H240H235.5V13.5H231V9V4.5H235.5Z" fill="#1E3445"/>
<rect width="4.5" height="28.5" transform="matrix(-1 0 0 1 244.5 18)" fill="#1E3445"/>
<path d="M235.5 60V55.5H240V51H244.5V46.5H240H235.5V51H231V55.5V60H235.5Z" fill="#1E3445"/>
</svg>
