<svg width="305" height="60" viewBox="0 0 305 60" fill="none" xmlns="http://www.w3.org/2000/svg">
<path d="M9 4.5V9H4.5V13.5H0V51H4.5V55.5H9V60H13.5V4.5H9Z" fill="#A2724A"/>
<path d="M9 4.5V9H4.5V13.5H0V18H4.5H9V13.5H13.5V9V4.5H9Z" fill="#1E3445"/>
<rect y="18" width="4.5" height="28.5" fill="#1E3445"/>
<path d="M9 60V55.5H4.5V51H0V46.5H4.5H9V51H13.5V55.5V60H9Z" fill="#1E3445"/>
<rect width="278" height="55.5" transform="translate(13.5 4.5)" fill="#A2724A"/>
<rect x="13.5" y="4.5" width="278" height="4.5" fill="#1E3445"/>
<path d="M30.125 37.1249V35.4999H28.5V33.8749H31.75V35.4999H36.625V32.2499H30.125V30.6249H28.5V27.3749H30.125V25.7499H38.25V27.3749H39.875V28.9999H36.625V27.3749H31.75V30.6249H38.25V32.2499H39.875V35.4999H38.25V37.1249H30.125ZM47.125 27.3749V25.7499H50.375V27.3749H47.125ZM43.875 37.1249V35.4999H47.125V30.6249H45.5V28.9999H50.375V35.4999H53.625V37.1249H43.875ZM57.625 38.7499V37.1249H64.125V35.4999H57.625V33.8749H56V30.6249H57.625V28.9999H67.375V37.1249H65.75V38.7499H57.625ZM59.25 33.8749H64.125V30.6249H59.25V33.8749ZM69.75 37.1249V28.9999H79.5V30.6249H81.125V37.1249H77.875V30.6249H73V37.1249H69.75ZM102.125 27.3749V25.7499H105.375V27.3749H102.125ZM98.875 37.1249V35.4999H102.125V30.6249H100.5V28.9999H105.375V35.4999H108.625V37.1249H98.875ZM111 37.1249V28.9999H120.75V30.6249H122.375V37.1249H119.125V30.6249H114.25V37.1249H111ZM141.75 35.4999H143.375V37.1249H140.125V35.4999H138.5V28.9999H141.75V35.4999ZM145 28.9999V35.4999H143.375V28.9999H145ZM149.875 28.9999V35.4999H148.25V37.1249H145V35.4999H146.625V28.9999H149.875ZM157.125 27.3749V25.7499H160.375V27.3749H157.125ZM153.875 37.1249V35.4999H157.125V30.6249H155.5V28.9999H160.375V35.4999H163.625V37.1249H153.875ZM170.875 37.1249V30.6249H167.625V28.9999H170.875V25.7499H174.125V28.9999H177.375V30.6249H174.125V37.1249H170.875ZM179.75 37.1249V25.7499H183V28.9999H189.5V30.6249H191.125V37.1249H187.875V30.6249H183V37.1249H179.75ZM207.25 37.1249V25.7499H215.375V27.3749H217V28.9999H218.625V33.8749H217V35.4999H215.375V37.1249H207.25ZM210.5 35.4999H213.75V33.8749H215.375V28.9999H213.75V27.3749H210.5V35.4999ZM222.625 37.1249V35.4999H221V33.8749H222.625V32.2499H229.125V30.6249H222.625V28.9999H230.75V30.6249H232.375V37.1249H222.625ZM224.25 35.4999H229.125V33.8749H224.25V35.4999ZM236.375 37.1249V35.4999H234.75V28.9999H238V35.4999H242.875V28.9999H246.125V37.1249H236.375ZM253.375 37.1249V30.6249H250.125V28.9999H253.375V25.7499H256.625V28.9999H259.875V30.6249H256.625V37.1249H253.375ZM262.25 37.1249V25.7499H265.5V28.9999H272V30.6249H273.625V37.1249H270.375V30.6249H265.5V37.1249H262.25Z" fill="black"/>
<rect x="13.5" y="55.5" width="278" height="4.5" fill="#1E3445"/>
<path d="M296 4.5V9H300.5V13.5H305V51H300.5V55.5H296V60H291.5V4.5H296Z" fill="#A2724A"/>
<path d="M296 4.5V9H300.5V13.5H305V18H300.5H296V13.5H291.5V9V4.5H296Z" fill="#1E3445"/>
<rect width="4.5" height="28.5" transform="matrix(-1 0 0 1 305 18)" fill="#1E3445"/>
<path d="M296 60V55.5H300.5V51H305V46.5H300.5H296V51H291.5V55.5V60H296Z" fill="#1E3445"/>
</svg>
