<svg width="109" height="101" viewBox="0 0 109 101" fill="none" xmlns="http://www.w3.org/2000/svg">
<rect x="9.08301" y="21.0415" width="90.8333" height="63.125" fill="#FBD115"/>
<rect x="18.166" y="16.8335" width="4.54167" height="4.20833" fill="#2E2E2E"/>
<rect x="22.708" y="16.8335" width="4.54167" height="4.20833" fill="#2E2E2E"/>
<rect x="27.25" y="16.8335" width="4.54167" height="4.20833" fill="#2E2E2E"/>
<rect x="31.791" y="16.8335" width="4.54167" height="4.20833" fill="#2E2E2E"/>
<rect x="36.333" y="16.8335" width="4.54167" height="4.20833" fill="#2E2E2E"/>
<rect x="40.875" y="16.8335" width="4.54167" height="4.20833" fill="#2E2E2E"/>
<rect x="45.416" y="16.8335" width="4.54167" height="4.20833" fill="#2E2E2E"/>
<rect x="49.958" y="16.8335" width="4.54167" height="4.20833" fill="#2E2E2E"/>
<rect x="54.5" y="16.8335" width="4.54166" height="4.20833" fill="#2E2E2E"/>
<rect x="59.041" y="16.8335" width="4.54167" height="4.20833" fill="#2E2E2E"/>
<rect x="63.583" y="16.8335" width="4.54167" height="4.20833" fill="#2E2E2E"/>
<rect x="68.125" y="16.8335" width="4.54166" height="4.20833" fill="#2E2E2E"/>
<rect x="72.666" y="16.8335" width="4.54166" height="4.20833" fill="#2E2E2E"/>
<rect x="77.208" y="16.8335" width="4.54166" height="4.20833" fill="#2E2E2E"/>
<rect x="81.75" y="16.8335" width="4.54166" height="4.20833" fill="#2E2E2E"/>
<rect x="86.291" y="16.8335" width="4.54166" height="4.20833" fill="#2E2E2E"/>
<rect x="90.833" y="16.8335" width="4.54166" height="4.20833" fill="#2E2E2E"/>
<rect x="95.375" y="21.042" width="4.54167" height="4.20833" fill="#2E2E2E"/>
<rect x="95.375" y="25.25" width="4.54167" height="4.20833" fill="#2E2E2E"/>
<rect x="95.375" y="29.4585" width="4.54167" height="4.20833" fill="#2E2E2E"/>
<rect x="95.375" y="33.667" width="4.54167" height="4.20834" fill="#2E2E2E"/>
<rect x="95.375" y="37.875" width="4.54167" height="4.20833" fill="#2E2E2E"/>
<rect x="95.375" y="42.0835" width="4.54167" height="4.20833" fill="#2E2E2E"/>
<rect x="95.375" y="46.292" width="4.54167" height="4.20834" fill="#2E2E2E"/>
<rect x="95.375" y="50.5" width="4.54167" height="4.20833" fill="#2E2E2E"/>
<rect x="95.375" y="54.7085" width="4.54167" height="4.20833" fill="#2E2E2E"/>
<rect x="95.375" y="58.917" width="4.54167" height="4.20833" fill="#2E2E2E"/>
<rect x="95.375" y="63.125" width="4.54167" height="4.20833" fill="#2E2E2E"/>
<rect x="95.375" y="67.3335" width="4.54167" height="4.20833" fill="#2E2E2E"/>
<rect x="95.375" y="71.542" width="4.54167" height="4.20834" fill="#2E2E2E"/>
<rect x="95.375" y="75.75" width="4.54167" height="4.20834" fill="#2E2E2E"/>
<rect x="95.375" y="79.9585" width="4.54167" height="4.20833" fill="#2E2E2E"/>
<rect x="90.833" y="84.167" width="4.54166" height="4.20834" fill="#2E2E2E"/>
<rect x="13.625" y="16.8335" width="4.54167" height="4.20833" fill="#2E2E2E"/>
<rect x="9.08301" y="21.042" width="4.54167" height="4.20833" fill="#2E2E2E"/>
<rect x="13.625" y="21.042" width="4.54167" height="4.20833" fill="#2E2E2E"/>
<rect x="18.166" y="25.25" width="4.54167" height="4.20833" fill="#2E2E2E"/>
<rect x="22.708" y="29.4585" width="4.54167" height="4.20833" fill="#2E2E2E"/>
<rect x="27.25" y="33.667" width="4.54167" height="4.20834" fill="#2E2E2E"/>
<rect x="31.791" y="37.875" width="4.54167" height="4.20833" fill="#2E2E2E"/>
<rect x="36.333" y="42.0835" width="4.54167" height="4.20833" fill="#2E2E2E"/>
<rect x="40.875" y="46.292" width="4.54167" height="4.20834" fill="#2E2E2E"/>
<rect x="45.416" y="50.5" width="4.54167" height="4.20833" fill="#2E2E2E"/>
<rect x="49.958" y="54.7085" width="4.54167" height="4.20833" fill="#2E2E2E"/>
<rect x="54.5" y="54.7085" width="4.54166" height="4.20833" fill="#2E2E2E"/>
<rect x="59.041" y="50.5" width="4.54167" height="4.20833" fill="#2E2E2E"/>
<rect x="63.583" y="54.7085" width="4.54167" height="4.20833" fill="#2E2E2E"/>
<rect x="68.125" y="58.917" width="4.54166" height="4.20833" fill="#2E2E2E"/>
<rect x="72.666" y="63.125" width="4.54166" height="4.20833" fill="#2E2E2E"/>
<rect x="77.208" y="67.3335" width="4.54166" height="4.20833" fill="#2E2E2E"/>
<rect x="81.75" y="71.542" width="4.54166" height="4.20834" fill="#2E2E2E"/>
<rect x="86.291" y="75.75" width="4.54166" height="4.20834" fill="#2E2E2E"/>
<rect x="90.833" y="79.9585" width="4.54166" height="4.20833" fill="#2E2E2E"/>
<rect x="63.583" y="46.292" width="4.54167" height="4.20834" fill="#2E2E2E"/>
<rect x="68.125" y="42.0835" width="4.54166" height="4.20833" fill="#2E2E2E"/>
<rect x="72.666" y="37.875" width="4.54166" height="4.20833" fill="#2E2E2E"/>
<rect x="77.208" y="33.667" width="4.54166" height="4.20834" fill="#2E2E2E"/>
<rect x="81.75" y="29.4585" width="4.54166" height="4.20833" fill="#2E2E2E"/>
<rect x="86.291" y="25.25" width="4.54166" height="4.20833" fill="#2E2E2E"/>
<rect x="90.833" y="21.042" width="4.54166" height="4.20833" fill="#2E2E2E"/>
<rect x="9.08301" y="25.25" width="4.54167" height="4.20833" fill="#2E2E2E"/>
<rect x="9.08301" y="29.4585" width="4.54167" height="4.20833" fill="#2E2E2E"/>
<rect x="9.08301" y="33.667" width="4.54167" height="4.20834" fill="#2E2E2E"/>
<rect x="9.08301" y="37.875" width="4.54167" height="4.20833" fill="#2E2E2E"/>
<rect x="9.08301" y="42.0835" width="4.54167" height="4.20833" fill="#2E2E2E"/>
<rect x="9.08301" y="46.292" width="4.54167" height="4.20834" fill="#2E2E2E"/>
<rect x="9.08301" y="50.5" width="4.54167" height="4.20833" fill="#2E2E2E"/>
<rect x="9.08301" y="54.7085" width="4.54167" height="4.20833" fill="#2E2E2E"/>
<rect x="9.08301" y="58.917" width="4.54167" height="4.20833" fill="#2E2E2E"/>
<rect x="9.08301" y="63.125" width="4.54167" height="4.20833" fill="#2E2E2E"/>
<rect x="9.08301" y="67.3335" width="4.54167" height="4.20833" fill="#2E2E2E"/>
<rect x="9.08301" y="71.542" width="4.54167" height="4.20834" fill="#2E2E2E"/>
<rect x="9.08301" y="75.75" width="4.54167" height="4.20834" fill="#2E2E2E"/>
<rect x="9.08301" y="79.9585" width="4.54167" height="4.20833" fill="#2E2E2E"/>
<rect x="13.625" y="84.167" width="4.54167" height="4.20834" fill="#2E2E2E"/>
<rect x="18.166" y="84.167" width="4.54167" height="4.20834" fill="#2E2E2E"/>
<rect x="22.708" y="84.167" width="4.54167" height="4.20834" fill="#2E2E2E"/>
<rect x="27.25" y="84.167" width="4.54167" height="4.20834" fill="#2E2E2E"/>
<rect x="31.791" y="84.167" width="4.54167" height="4.20834" fill="#2E2E2E"/>
<rect x="36.333" y="84.167" width="4.54167" height="4.20834" fill="#2E2E2E"/>
<rect x="40.875" y="84.167" width="4.54167" height="4.20834" fill="#2E2E2E"/>
<rect x="45.416" y="84.167" width="4.54167" height="4.20834" fill="#2E2E2E"/>
<rect x="49.958" y="84.167" width="4.54167" height="4.20834" fill="#2E2E2E"/>
<rect x="54.5" y="84.167" width="4.54166" height="4.20834" fill="#2E2E2E"/>
<rect x="59.041" y="84.167" width="4.54167" height="4.20834" fill="#2E2E2E"/>
<rect x="63.583" y="84.167" width="4.54167" height="4.20834" fill="#2E2E2E"/>
<rect x="68.125" y="84.167" width="4.54166" height="4.20834" fill="#2E2E2E"/>
<rect x="72.666" y="84.167" width="4.54166" height="4.20834" fill="#2E2E2E"/>
<rect x="77.208" y="84.167" width="4.54166" height="4.20834" fill="#2E2E2E"/>
<rect x="81.75" y="84.167" width="4.54166" height="4.20834" fill="#2E2E2E"/>
<rect x="86.291" y="84.167" width="4.54166" height="4.20834" fill="#2E2E2E"/>
<rect x="13.625" y="79.9585" width="4.54167" height="4.20833" fill="#2E2E2E"/>
<rect x="18.166" y="75.75" width="4.54167" height="4.20834" fill="#2E2E2E"/>
<rect x="22.708" y="71.542" width="4.54167" height="4.20834" fill="#2E2E2E"/>
<rect x="27.25" y="67.3335" width="4.54167" height="4.20833" fill="#2E2E2E"/>
<rect x="31.791" y="63.125" width="4.54167" height="4.20833" fill="#2E2E2E"/>
<rect x="36.333" y="58.917" width="4.54167" height="4.20833" fill="#2E2E2E"/>
<rect x="40.875" y="54.7085" width="4.54167" height="4.20833" fill="#2E2E2E"/>
<rect x="13.625" y="25.25" width="4.54167" height="8.41666" fill="#E4B612"/>
<rect x="22.709" y="25.25" width="2.27083" height="4.20833" fill="#E4B612"/>
<rect x="27.25" y="29.458" width="2.27083" height="4.20833" fill="#E4B612"/>
<rect x="31.792" y="33.6665" width="2.27083" height="4.20834" fill="#E4B612"/>
<rect x="36.334" y="37.875" width="2.27083" height="4.20833" fill="#E4B612"/>
<rect x="40.875" y="42.083" width="2.27083" height="4.20833" fill="#E4B612"/>
<rect x="45.417" y="46.2915" width="2.27083" height="4.20834" fill="#E4B612"/>
<rect x="18.167" y="21.0415" width="2.27083" height="4.20833" fill="#E4B612"/>
<rect x="13.625" y="33.6665" width="4.54167" height="4.20834" fill="#E4B612"/>
<rect x="13.625" y="37.875" width="4.54167" height="8.41667" fill="#E4B612"/>
<rect x="13.625" y="46.2915" width="4.54167" height="8.41667" fill="#E4B612"/>
<rect x="13.625" y="54.708" width="4.54167" height="8.41667" fill="#E4B612"/>
<rect x="13.625" y="63.125" width="4.54167" height="4.20833" fill="#E4B612"/>
<rect x="13.625" y="67.333" width="4.54167" height="12.625" fill="#E4B612"/>
</svg>
