<svg width="430" height="603" viewBox="0 0 430 603" fill="none" xmlns="http://www.w3.org/2000/svg">
<rect x="34.1201" y="588.379" width="95.5283" height="13.6831" fill="#B8A590"/>
<rect x="129.646" y="574.695" width="88.7048" height="13.6831" fill="#B8A590"/>
<rect x="218.351" y="588.379" width="95.5283" height="13.6831" fill="#B8A590"/>
<rect x="313.879" y="574.695" width="34.118" height="13.6831" fill="#B8A590"/>
<rect x="347.994" y="588.379" width="61.4118" height="13.6831" fill="#B8A590"/>
<rect width="6.82359" height="328.395" transform="matrix(-1 0 0 1 13.6484 82.1055)" fill="#B8A590"/>
<rect x="13.6484" y="410.503" width="6.82359" height="164.198" fill="#B8A590"/>
<rect x="409.406" y="492.599" width="6.82359" height="95.7819" fill="#B8A590"/>
<rect x="416.229" y="218.938" width="6.82359" height="273.663" fill="#B8A590"/>
<rect x="409.406" y="177.89" width="6.82359" height="41.0494" fill="#B8A590"/>
<rect x="402.583" y="136.838" width="6.82359" height="41.0494" fill="#B8A590"/>
<rect x="409.406" y="123.154" width="13.6472" height="13.6831" fill="#B8A590"/>
<rect x="423.052" y="41.0527" width="6.82359" height="82.0988" fill="#B8A590"/>
<rect x="416.229" y="27.3735" width="6.82359" height="13.6831" fill="#B8A590"/>
<rect x="300.23" y="13.6895" width="115.999" height="13.6831" fill="#B8A590"/>
<rect x="252.468" y="27.3735" width="47.7645" height="13.6831" fill="#B8A590"/>
<rect x="61.4121" y="13.6895" width="191.056" height="13.6831" fill="#B8A590"/>
<rect x="40.9414" y="27.3735" width="20.4708" height="13.6831" fill="#B8A590"/>
<rect x="34.1201" y="41.0527" width="6.82359" height="27.3663" fill="#B8A590"/>
<rect x="13.6484" y="68.4214" width="20.4708" height="13.6831" fill="#B8A590"/>
<rect x="20.4697" y="574.695" width="13.6472" height="13.6831" fill="#B8A590"/>
<rect x="61.4121" y="27.3735" width="191.056" height="547.325" fill="#B8A590"/>
<rect x="40.9414" y="41.0527" width="20.4708" height="533.642" fill="#B8A590"/>
<rect x="20.4697" y="82.1055" width="20.4708" height="328.395" fill="#B8A590"/>
<rect x="13.6484" y="82.1055" width="6.82359" height="328.395" fill="#B8A590"/>
<rect x="409.406" y="218.938" width="6.82359" height="273.663" fill="#B8A590"/>
<rect x="409.406" y="41.0527" width="13.6472" height="82.0988" fill="#B8A590"/>
<rect x="20.4697" y="410.503" width="20.4708" height="164.198" fill="#B8A590"/>
<rect x="34.1201" y="574.695" width="95.5283" height="13.6831" fill="#B8A590"/>
<rect x="218.351" y="574.695" width="95.5283" height="13.6831" fill="#B8A590"/>
<rect x="347.994" y="218.938" width="61.4118" height="369.444" fill="#B8A590"/>
<rect x="252.468" y="41.0527" width="95.5283" height="533.642" fill="#B8A590"/>
<rect x="300.23" y="27.3735" width="115.999" height="13.6831" fill="#B8A590"/>
<rect x="402.583" y="177.89" width="6.82359" height="41.0494" fill="#B8A590"/>
<rect x="402.583" y="41.0527" width="6.82359" height="95.7819" fill="#B8A590"/>
<rect x="347.994" y="41.0527" width="54.588" height="177.881" fill="#B8A590"/>
<rect x="27.2949" y="574.689" width="95.5283" height="13.6831" fill="#DCC7AF"/>
<rect x="122.822" y="561.005" width="88.7048" height="13.6831" fill="#DCC7AF"/>
<rect x="218.351" y="574.689" width="88.7048" height="13.6831" fill="#DCC7AF"/>
<rect x="307.055" y="561.005" width="34.118" height="13.6831" fill="#DCC7AF"/>
<rect x="347.993" y="574.689" width="54.588" height="13.6831" fill="#DCC7AF"/>
<rect width="6.82359" height="328.395" transform="matrix(-1 0 0 1 6.82324 68.416)" fill="#DCC7AF"/>
<rect x="6.82324" y="396.813" width="6.82359" height="164.198" fill="#DCC7AF"/>
<rect x="402.58" y="478.91" width="6.82359" height="95.7819" fill="#DCC7AF"/>
<rect x="409.406" y="205.249" width="6.82359" height="273.663" fill="#DCC7AF"/>
<rect x="402.58" y="164.201" width="6.82359" height="41.0494" fill="#DCC7AF"/>
<rect x="395.76" y="123.148" width="6.82359" height="41.0494" fill="#DCC7AF"/>
<rect x="402.58" y="109.464" width="13.6472" height="13.6831" fill="#DCC7AF"/>
<rect x="416.228" y="27.3638" width="6.82359" height="82.0988" fill="#DCC7AF"/>
<rect x="409.406" y="13.6841" width="6.82359" height="13.6831" fill="#DCC7AF"/>
<rect x="293.406" width="115.999" height="13.6831" fill="#DCC7AF"/>
<rect x="245.644" y="13.6841" width="47.7645" height="13.6831" fill="#DCC7AF"/>
<rect x="54.5869" width="191.056" height="13.6831" fill="#DCC7AF"/>
<rect x="34.1162" y="13.6841" width="20.4708" height="13.6831" fill="#DCC7AF"/>
<rect x="27.2949" y="27.3638" width="6.82359" height="27.3663" fill="#DCC7AF"/>
<rect x="6.82324" y="54.7319" width="20.4708" height="13.6831" fill="#DCC7AF"/>
<rect x="13.6445" y="561.005" width="13.6472" height="13.6831" fill="#DCC7AF"/>
<rect x="54.5869" y="13.6841" width="191.056" height="547.325" fill="#DCC7AF"/>
<rect x="34.1162" y="27.3638" width="20.4708" height="533.642" fill="#DCC7AF"/>
<rect x="13.6445" y="68.416" width="20.4708" height="328.395" fill="#DCC7AF"/>
<rect x="6.82324" y="68.416" width="6.82359" height="328.395" fill="#DCC7AF"/>
<rect x="402.58" y="205.249" width="6.82359" height="273.663" fill="#DCC7AF"/>
<rect x="402.58" y="27.3638" width="13.6472" height="82.0988" fill="#DCC7AF"/>
<rect x="13.6445" y="396.813" width="20.4708" height="164.198" fill="#DCC7AF"/>
<rect x="27.2949" y="561.005" width="95.5283" height="13.6831" fill="#DCC7AF"/>
<rect x="211.526" y="561.005" width="95.5283" height="13.6831" fill="#DCC7AF"/>
<rect x="341.169" y="205.249" width="61.4118" height="369.444" fill="#DCC7AF"/>
<rect x="245.644" y="27.3638" width="95.5283" height="533.642" fill="#DCC7AF"/>
<rect x="293.406" y="13.6841" width="115.999" height="13.6831" fill="#DCC7AF"/>
<rect x="395.76" y="164.201" width="6.82359" height="41.0494" fill="#DCC7AF"/>
<rect x="395.76" y="27.3638" width="6.82359" height="95.7819" fill="#DCC7AF"/>
<rect x="341.169" y="27.3638" width="54.588" height="177.881" fill="#DCC7AF"/>
<rect x="27.2949" y="54.7319" width="6.82359" height="13.6831" fill="#DCC7AF"/>
</svg>
