<svg width="145" height="60" viewBox="0 0 145 60" fill="none" xmlns="http://www.w3.org/2000/svg">
<path d="M13.5 4.5V9H9V13.5H4.5V51H9V55.5H13.5V60H18V4.5H13.5Z" fill="#94B0C2"/>
<path d="M13.5 4.5V9H9V13.5H4.5V18H9H13.5V13.5H18V9V4.5H13.5Z" fill="#1E3445"/>
<rect x="4.5" y="18" width="4.5" height="28.5" fill="#1E3445"/>
<path d="M13.5 60V55.5H9V51H4.5V46.5H9H13.5V51H18V55.5V60H13.5Z" fill="#1E3445"/>
<rect width="113" height="55.5" transform="translate(18 4.5)" fill="#94B0C2"/>
<rect x="18" y="4.5" width="113" height="4.5" fill="#1E3445"/>
<path d="M35 38.2499V24.2499H39V36.2499H47V38.2499H35ZM51.75 38.2499V36.2499H49.75V26.2499H51.75V24.2499H61.75V26.2499H63.75V36.2499H61.75V38.2499H51.75ZM53.75 36.2499H59.75V26.2499H53.75V36.2499ZM70.5 38.2499V36.2499H68.5V34.2499H66.5V28.2499H68.5V26.2499H70.5V24.2499H80.5V26.2499H72.5V28.2499H70.5V34.2499H72.5V36.2499H76.5V32.2499H74.5V30.2499H80.5V38.2499H70.5ZM85.25 38.2499V36.2499H89.25V26.2499H85.25V24.2499H97.25V26.2499H93.25V36.2499H97.25V38.2499H85.25ZM100 38.2499V24.2499H104V26.2499H106V28.2499H108V30.2499H110V24.2499H114V38.2499H110V34.2499H108V32.2499H106V30.2499H104V38.2499H100Z" fill="black"/>
<rect x="18" y="55.5" width="113" height="4.5" fill="#1E3445"/>
<path d="M135.5 4.5V9H140V13.5H144.5V51H140V55.5H135.5V60H131V4.5H135.5Z" fill="#94B0C2"/>
<path d="M135.5 4.5V9H140V13.5H144.5V18H140H135.5V13.5H131V9V4.5H135.5Z" fill="#1E3445"/>
<rect width="4.5" height="28.5" transform="matrix(-1 0 0 1 144.5 18)" fill="#1E3445"/>
<path d="M135.5 60V55.5H140V51H144.5V46.5H140H135.5V51H131V55.5V60H135.5Z" fill="#1E3445"/>
</svg>
