<svg width="193" height="60" viewBox="0 0 193 60" fill="none" xmlns="http://www.w3.org/2000/svg">
<path d="M13.5 4.5V9H9V13.5H4.5V51H9V55.5H13.5V60H18V4.5H13.5Z" fill="#A04AA2"/>
<path d="M13.5 4.5V9H9V13.5H4.5V18H9H13.5V13.5H18V9V4.5H13.5Z" fill="#1E3445"/>
<rect x="4.5" y="18" width="4.5" height="28.5" fill="#1E3445"/>
<path d="M13.5 60V55.5H9V51H4.5V46.5H9H13.5V51H18V55.5V60H13.5Z" fill="#1E3445"/>
<rect width="161" height="55.5" transform="translate(18 4.5)" fill="#A04AA2"/>
<rect x="18" y="4.5" width="161" height="4.5" fill="#1E3445"/>
<path d="M36.1875 42.0624V19.7499H42.5625V38.8749H55.3125V42.0624H36.1875ZM62.4375 42.0624V38.8749H59.25V22.9374H62.4375V19.7499H78.375V22.9374H81.5625V38.8749H78.375V42.0624H62.4375ZM65.625 38.8749H75.1875V22.9374H65.625V38.8749ZM91.875 42.0624V38.8749H88.6875V35.6874H85.5V26.1249H88.6875V22.9374H91.875V19.7499H107.813V22.9374H95.0625V26.1249H91.875V35.6874H95.0625V38.8749H101.438V32.4999H98.25V29.3124H107.813V42.0624H91.875ZM114.938 42.0624V38.8749H121.313V22.9374H114.938V19.7499H134.063V22.9374H127.688V38.8749H134.063V42.0624H114.938ZM138 42.0624V19.7499H144.375V22.9374H147.563V26.1249H150.75V29.3124H153.938V19.7499H160.313V42.0624H153.938V35.6874H150.75V32.4999H147.563V29.3124H144.375V42.0624H138Z" fill="black"/>
<rect x="18" y="55.5" width="161" height="4.5" fill="#1E3445"/>
<path d="M183.5 4.5V9H188V13.5H192.5V51H188V55.5H183.5V60H179V4.5H183.5Z" fill="#A04AA2"/>
<path d="M183.5 4.5V9H188V13.5H192.5V18H188H183.5V13.5H179V9V4.5H183.5Z" fill="#1E3445"/>
<rect width="4.5" height="28.5" transform="matrix(-1 0 0 1 192.5 18)" fill="#1E3445"/>
<path d="M183.5 60V55.5H188V51H192.5V46.5H188H183.5V51H179V55.5V60H183.5Z" fill="#1E3445"/>
</svg>
