<svg width="94" height="35" viewBox="0 0 94 35" fill="none" xmlns="http://www.w3.org/2000/svg">
<path d="M10.909 2.44472V4.88944H8.46426V7.33417H6.01953V27.7069H8.46426V30.1516H10.909V32.5963H13.3537V2.44472H10.909Z" fill="#A2724A"/>
<path d="M10.909 2.44472V4.88944H8.46426V7.33417H6.01953V9.77889H8.46426H10.909V7.33417H13.3537V4.88944V2.44472H10.909Z" fill="#1E3445"/>
<rect x="6.01953" y="9.7789" width="2.44472" height="17.1131" fill="#1E3445"/>
<path d="M10.909 34.2261V31.7814H8.46426V29.3367H6.01953V26.892H8.46426H10.909V29.3367H13.3537V31.7814V34.2261H10.909Z" fill="#1E3445"/>
<rect width="73.2982" height="30.1516" transform="translate(13.3538 4.07454)" fill="#A2724A"/>
<rect x="13.3538" y="4.07454" width="73.2982" height="2.44472" fill="#1E3445"/>
<path d="M21.5028 24.4186V12.2969H24.9662V14.0285H26.6978V15.7602H28.4295V17.4919H30.1612V12.2969H33.6246V24.4186H30.1612V20.9553H28.4295V19.2236H26.6978V17.4919H24.9662V24.4186H21.5028ZM35.7637 24.4186V12.2969H47.8855V14.0285H39.2271V17.4919H46.1538V19.2236H39.2271V22.6869H47.8855V24.4186H35.7637ZM50.0246 24.4186V20.9553H51.7563V19.2236H53.488V17.4919H51.7563V15.7602H50.0246V12.2969H53.488V15.7602H55.2196V17.4919H56.9513V15.7602H58.683V12.2969H62.1464V15.7602H60.4147V17.4919H58.683V19.2236H60.4147V20.9553H62.1464V24.4186H58.683V20.9553H56.9513V19.2236H55.2196V20.9553H53.488V24.4186H50.0246ZM69.4805 24.4186V14.0285H66.0172V12.2969H76.4072V14.0285H72.9439V24.4186H69.4805Z" fill="black"/>
<rect x="13.3538" y="31.7814" width="73.2982" height="2.44472" fill="#1E3445"/>
<path d="M89.0966 2.44472V4.88944H91.5414V7.33417H93.9861V27.7069H91.5414V30.1516H89.0966V32.5963H86.6519V2.44472H89.0966Z" fill="#A2724A"/>
<path d="M89.0966 2.44472V4.88944H91.5414V7.33417H93.9861V9.77889H91.5414H89.0966V7.33417H86.6519V4.88944V2.44472H89.0966Z" fill="#1E3445"/>
<rect width="2.44472" height="17.1131" transform="matrix(-1 0 0 1 93.9861 9.7789)" fill="#1E3445"/>
<path d="M89.0966 34.2261V31.7814H91.5414V29.3367H93.9861V26.892H91.5414H89.0966V29.3367H86.6519V31.7814V34.2261H89.0966Z" fill="#1E3445"/>
</svg>
