<svg width="219" height="60" viewBox="0 0 219 60" fill="none" xmlns="http://www.w3.org/2000/svg">
<path d="M13.5 4.5V9H9V13.5H4.5V51H9V55.5H13.5V60H18V4.5H13.5Z" fill="#A04AA2"/>
<path d="M13.5 4.5V9H9V13.5H4.5V18H9H13.5V13.5H18V9V4.5H13.5Z" fill="#1E3445"/>
<rect x="4.5" y="18" width="4.5" height="28.5" fill="#1E3445"/>
<path d="M13.5 60V55.5H9V51H4.5V46.5H9H13.5V51H18V55.5V60H13.5Z" fill="#1E3445"/>
<rect width="187" height="55.5" transform="translate(18 4.5)" fill="#A04AA2"/>
<rect x="18" y="4.5" width="187" height="4.5" fill="#1E3445"/>
<path d="M36.1875 42.0624V38.8749H33V35.6874H39.375V38.8749H48.9375V32.4999H36.1875V29.3124H33V22.9374H36.1875V19.7499H52.125V22.9374H55.3125V26.1249H48.9375V22.9374H39.375V29.3124H52.125V32.4999H55.3125V38.8749H52.125V42.0624H36.1875ZM62.4375 42.0624V38.8749H68.8125V22.9374H62.4375V19.7499H81.5625V22.9374H75.1875V38.8749H81.5625V42.0624H62.4375ZM91.875 42.0624V38.8749H88.6875V35.6874H85.5V26.1249H88.6875V22.9374H91.875V19.7499H107.813V22.9374H95.0625V26.1249H91.875V35.6874H95.0625V38.8749H101.438V32.4999H98.25V29.3124H107.813V42.0624H91.875ZM111.75 42.0624V19.7499H118.125V22.9374H121.313V26.1249H124.5V29.3124H127.688V19.7499H134.063V42.0624H127.688V35.6874H124.5V32.4999H121.313V29.3124H118.125V42.0624H111.75ZM141.188 42.0624V38.8749H138V19.7499H144.375V38.8749H153.938V19.7499H160.313V38.8749H157.125V42.0624H141.188ZM164.25 42.0624V19.7499H183.375V22.9374H186.563V32.4999H183.375V35.6874H170.625V42.0624H164.25ZM170.625 32.4999H180.188V22.9374H170.625V32.4999Z" fill="black"/>
<rect x="18" y="55.5" width="187" height="4.5" fill="#1E3445"/>
<path d="M209.5 4.5V9H214V13.5H218.5V51H214V55.5H209.5V60H205V4.5H209.5Z" fill="#A04AA2"/>
<path d="M209.5 4.5V9H214V13.5H218.5V18H214H209.5V13.5H205V9V4.5H209.5Z" fill="#1E3445"/>
<rect width="4.5" height="28.5" transform="matrix(-1 0 0 1 218.5 18)" fill="#1E3445"/>
<path d="M209.5 60V55.5H214V51H218.5V46.5H214H209.5V51H205V55.5V60H209.5Z" fill="#1E3445"/>
</svg>
