<svg width="63" height="32" viewBox="0 0 63 32" fill="none" xmlns="http://www.w3.org/2000/svg">
<path d="M5.54071 2.32935V4.65878H3.21127V6.98822H0.881836V26.4002H3.21127V28.7296H5.54071V31.059H7.87014V2.32935H5.54071Z" fill="#A2724A"/>
<path d="M5.54071 2.32935V4.65878H3.21127V6.98822H0.881836V9.31765H3.21127H5.54071V6.98822H7.87014V4.65878V2.32935H5.54071Z" fill="#1E3445"/>
<rect x="0.881836" y="9.31763" width="2.32944" height="14.694" fill="#1E3445"/>
<path d="M5.54071 31V28.6706H3.21127V26.3411H0.881836V24.0117H3.21127H5.54071V26.3411H7.87014V28.6706V31H5.54071Z" fill="#1E3445"/>
<rect width="48.1417" height="28.7297" transform="translate(7.87012 2.27026)" fill="#A2724A"/>
<rect x="7.87012" y="2.27026" width="48.1417" height="2.32944" fill="#1E3445"/>
<rect x="7.87012" y="28.6704" width="48.1417" height="2.32944" fill="#1E3445"/>
<path d="M58.3411 2.32935V4.65878H60.6706V6.98822H63V26.4002H60.6706V28.7296H58.3411V31.059H56.0117V2.32935H58.3411Z" fill="#A2724A"/>
<path d="M58.3411 2.32935V4.65878H60.6706V6.98822H63V9.31765H60.6706H58.3411V6.98822H56.0117V4.65878V2.32935H58.3411Z" fill="#1E3445"/>
<rect width="2.32944" height="14.694" transform="matrix(-1 0 0 1 63 9.31763)" fill="#1E3445"/>
<path d="M58.3411 31V28.6706H60.6706V26.3411H63V24.0117H60.6706H58.3411V26.3411H56.0117V28.6706V31H58.3411Z" fill="#1E3445"/>
</svg>
