<svg width="253" height="50" viewBox="0 0 253 50" fill="none" xmlns="http://www.w3.org/2000/svg">
<rect x="20.0811" y="47.9629" width="56.222" height="1.11364" fill="#B8A590"/>
<rect x="76.3027" y="46.8496" width="52.2061" height="1.11364" fill="#B8A590"/>
<rect x="128.508" y="47.9629" width="56.222" height="1.11364" fill="#B8A590"/>
<rect x="184.73" y="46.8496" width="20.08" height="1.11364" fill="#B8A590"/>
<rect x="204.809" y="47.9629" width="36.1427" height="1.11363" fill="#B8A590"/>
<rect width="4.01605" height="26.7277" transform="matrix(-1 0 0 1 8.0332 6.75781)" fill="#B8A590"/>
<rect x="8.0332" y="33.4863" width="4.01621" height="13.3644" fill="#B8A590"/>
<rect x="240.952" y="40.1675" width="4.01621" height="7.79588" fill="#B8A590"/>
<rect x="244.968" y="17.895" width="4.016" height="22.2728" fill="#B8A590"/>
<rect x="240.952" y="14.5542" width="4.01621" height="3.34109" fill="#B8A590"/>
<rect x="236.936" y="11.2129" width="4.01621" height="3.34109" fill="#B8A590"/>
<rect x="240.952" y="10.0991" width="8.03242" height="1.1137" fill="#B8A590"/>
<rect x="248.982" y="3.41699" width="4.01621" height="6.68218" fill="#B8A590"/>
<rect x="244.968" y="2.30371" width="4.01621" height="1.1137" fill="#B8A590"/>
<rect x="176.698" y="1.18994" width="68.2691" height="1.11364" fill="#B8A590"/>
<rect x="148.588" y="2.30371" width="28.1114" height="1.11365" fill="#B8A590"/>
<rect x="36.1445" y="1.18994" width="112.444" height="1.11365" fill="#B8A590"/>
<rect x="24.0957" y="2.30371" width="12.0486" height="1.1137" fill="#B8A590"/>
<rect x="20.0811" y="3.41699" width="4.01621" height="2.22739" fill="#B8A590"/>
<rect x="8.0332" y="5.64404" width="12.0486" height="1.1137" fill="#B8A590"/>
<rect x="12.0479" y="46.8496" width="8.03242" height="1.1137" fill="#B8A590"/>
<rect x="36.1445" y="2.30371" width="112.444" height="44.5459" fill="#B8A590"/>
<rect x="24.0957" y="3.41699" width="12.048" height="43.432" fill="#B8A590"/>
<rect x="12.0469" y="6.75781" width="12.0481" height="26.7277" fill="#B8A590"/>
<rect x="8.0332" y="6.75781" width="4.01605" height="26.7277" fill="#B8A590"/>
<rect x="240.952" y="17.895" width="4.016" height="22.2728" fill="#B8A590"/>
<rect x="240.952" y="3.41699" width="8.03242" height="6.68218" fill="#B8A590"/>
<rect x="12.0479" y="33.4863" width="12.0486" height="13.3644" fill="#B8A590"/>
<rect x="20.0811" y="46.8496" width="56.222" height="1.11364" fill="#B8A590"/>
<rect x="128.508" y="46.8496" width="56.222" height="1.11364" fill="#B8A590"/>
<rect x="204.809" y="17.895" width="36.1427" height="30.0679" fill="#B8A590"/>
<rect x="148.588" y="3.41699" width="56.222" height="43.432" fill="#B8A590"/>
<rect x="176.698" y="2.30371" width="68.2691" height="1.11364" fill="#B8A590"/>
<rect x="236.936" y="14.5542" width="4.01621" height="3.34109" fill="#B8A590"/>
<rect x="236.936" y="3.41699" width="4.01621" height="7.79588" fill="#B8A590"/>
<rect x="204.809" y="3.41699" width="32.1273" height="14.4775" fill="#B8A590"/>
<rect x="16.0635" y="46.8491" width="56.222" height="1.11364" fill="#DCC7AF"/>
<rect x="72.2852" y="45.7354" width="52.2061" height="1.11364" fill="#DCC7AF"/>
<rect x="128.508" y="46.8491" width="52.2061" height="1.11364" fill="#DCC7AF"/>
<rect x="180.713" y="45.7354" width="20.08" height="1.11364" fill="#DCC7AF"/>
<rect x="204.806" y="46.8491" width="32.1273" height="1.11365" fill="#DCC7AF"/>
<rect width="4.01605" height="26.7277" transform="matrix(-1 0 0 1 4.01562 5.64404)" fill="#DCC7AF"/>
<rect x="4.01562" y="32.3721" width="4.01621" height="13.3644" fill="#DCC7AF"/>
<rect x="236.933" y="39.0537" width="4.01621" height="7.79588" fill="#DCC7AF"/>
<rect x="240.951" y="16.7817" width="4.016" height="22.2728" fill="#DCC7AF"/>
<rect x="236.933" y="13.4399" width="4.01621" height="3.34109" fill="#DCC7AF"/>
<rect x="232.919" y="10.0991" width="4.01621" height="3.34109" fill="#DCC7AF"/>
<rect x="236.933" y="8.98535" width="8.03242" height="1.1137" fill="#DCC7AF"/>
<rect x="244.965" y="2.30273" width="4.01621" height="6.68218" fill="#DCC7AF"/>
<rect x="240.951" y="1.18994" width="4.01621" height="1.1137" fill="#DCC7AF"/>
<rect x="172.681" y="0.0761719" width="68.2691" height="1.11364" fill="#DCC7AF"/>
<rect x="144.57" y="1.18994" width="28.1114" height="1.11365" fill="#DCC7AF"/>
<rect x="32.126" y="0.0761719" width="112.444" height="1.11365" fill="#DCC7AF"/>
<rect x="20.0771" y="1.18945" width="12.0486" height="1.1137" fill="#DCC7AF"/>
<rect x="16.0635" y="2.30273" width="4.01621" height="2.22739" fill="#DCC7AF"/>
<rect x="4.01465" y="4.53076" width="12.0486" height="1.1137" fill="#DCC7AF"/>
<rect x="8.0293" y="45.7354" width="8.03242" height="1.1137" fill="#DCC7AF"/>
<rect x="32.126" y="1.18994" width="112.444" height="44.5459" fill="#DCC7AF"/>
<rect x="20.0771" y="2.30273" width="12.048" height="43.432" fill="#DCC7AF"/>
<rect x="8.0293" y="5.64404" width="12.0481" height="26.7277" fill="#DCC7AF"/>
<rect x="4.01562" y="5.64404" width="4.01605" height="26.7277" fill="#DCC7AF"/>
<rect x="236.933" y="16.7817" width="4.016" height="22.2728" fill="#DCC7AF"/>
<rect x="236.933" y="2.30273" width="8.03242" height="6.68218" fill="#DCC7AF"/>
<rect x="8.0293" y="32.3721" width="12.0486" height="13.3644" fill="#DCC7AF"/>
<rect x="16.0635" y="45.7354" width="56.222" height="1.11364" fill="#DCC7AF"/>
<rect x="124.491" y="45.7354" width="56.222" height="1.11364" fill="#DCC7AF"/>
<rect x="200.791" y="16.7817" width="36.1427" height="30.0679" fill="#DCC7AF"/>
<rect x="144.57" y="2.30273" width="56.222" height="43.432" fill="#DCC7AF"/>
<rect x="172.681" y="1.18994" width="68.2691" height="1.11364" fill="#DCC7AF"/>
<rect x="232.919" y="13.4399" width="4.01621" height="3.34109" fill="#DCC7AF"/>
<rect x="232.919" y="2.30273" width="4.01621" height="7.79588" fill="#DCC7AF"/>
<rect x="200.791" y="2.30273" width="32.1273" height="14.4775" fill="#DCC7AF"/>
<rect x="16.0635" y="4.53076" width="4.01621" height="1.1137" fill="#DCC7AF"/>
<rect width="4.016" height="22.2728" transform="matrix(1 0 0 -1 240.951 39.0537)" fill="#E9D2B8"/>
<rect x="240.951" y="46.8491" width="4.01621" height="7.79588" transform="rotate(180 240.951 46.8491)" fill="#E9D2B8"/>
<rect x="236.933" y="47.9624" width="32.1273" height="1.11365" transform="rotate(180 236.933 47.9624)" fill="#E9D2B8"/>
<rect x="204.806" y="46.8491" width="24.0952" height="1.11364" transform="rotate(180 204.806 46.8491)" fill="#E9D2B8"/>
<rect x="180.713" y="47.9624" width="52.2061" height="1.11364" transform="rotate(180 180.713 47.9624)" fill="#E9D2B8"/>
<rect x="128.506" y="46.8491" width="56.222" height="1.11364" transform="rotate(180 128.506 46.8491)" fill="#E9D2B8"/>
<rect x="72.2852" y="47.9624" width="56.222" height="1.11364" transform="rotate(180 72.2852 47.9624)" fill="#E9D2B8"/>
<rect x="16.0635" y="46.8491" width="8.03242" height="1.1137" transform="rotate(180 16.0635 46.8491)" fill="#E9D2B8"/>
<rect x="8.0293" y="45.7358" width="4.01621" height="13.3644" transform="rotate(180 8.0293 45.7358)" fill="#E9D2B8"/>
<rect x="4.01562" y="32.3716" width="4.01605" height="26.7277" transform="rotate(180 4.01562 32.3716)" fill="#E9D2B8"/>
<rect width="4.01621" height="2.22739" transform="matrix(1 0 0 -1 236.933 15.6675)" fill="#E9D2B8"/>
<rect width="4.01621" height="3.34109" transform="matrix(1 0 0 -1 232.919 13.4395)" fill="#E9D2B8"/>
<rect width="4.01621" height="1.1137" transform="matrix(1 0 0 -1 240.951 10.0986)" fill="#E9D2B8"/>
<rect width="4.01621" height="2.22739" transform="matrix(1 0 0 -1 240.951 3.41699)" fill="#E9D2B8"/>
<rect width="4.01621" height="2.22739" transform="matrix(1 0 0 -1 236.933 2.30322)" fill="#E9D2B8"/>
<rect width="4.01621" height="6.68218" transform="matrix(1 0 0 -1 244.965 8.98535)" fill="#E9D2B8"/>
<rect x="4.01562" y="4.53076" width="12.0486" height="1.1137" fill="#E9D2B8"/>
<rect x="16.0635" y="2.30322" width="4.01621" height="2.22739" fill="#E9D2B8"/>
<rect x="20.0781" y="1.18994" width="12.0486" height="1.1137" fill="#E9D2B8"/>
<rect x="32.126" y="0.0756836" width="112.444" height="1.11365" fill="#E9D2B8"/>
<rect x="144.57" y="1.18994" width="28.1114" height="1.11365" fill="#E9D2B8"/>
<rect x="172.681" y="0.0756836" width="64.2537" height="1.11364" fill="#E9D2B8"/>
<rect x="236.933" y="30.144" width="4.01621" height="2.22739" fill="#E9D2B8"/>
<rect x="236.933" y="20.1221" width="4.01621" height="1.1137" fill="#E9D2B8"/>
<rect x="236.933" y="4.53076" width="8.03242" height="1.1137" fill="#E9D2B8"/>
<rect x="240.951" y="5.64404" width="4.01621" height="1.1137" fill="#E9D2B8"/>
<rect x="184.729" y="1.18994" width="28.1114" height="1.11365" fill="#E9D2B8"/>
<rect x="192.76" y="2.30322" width="8.03242" height="1.1137" fill="#E9D2B8"/>
<rect x="100.396" y="1.18994" width="8.03242" height="1.1137" fill="#E9D2B8"/>
<rect x="104.41" y="2.30322" width="4.01621" height="1.1137" fill="#E9D2B8"/>
<rect x="128.506" y="1.18994" width="12.0486" height="1.1137" fill="#E9D2B8"/>
<rect x="32.126" y="1.18994" width="4.01621" height="1.1137" fill="#E9D2B8"/>
<rect x="32.126" y="2.30322" width="8.03242" height="1.1137" fill="#E9D2B8"/>
<rect x="4.01562" y="5.64355" width="4.01621" height="7.79588" fill="#E9D2B8"/>
<rect x="8.0293" y="5.64355" width="4.01621" height="4.45479" fill="#E9D2B8"/>
<rect x="4.01562" y="22.3486" width="4.01621" height="5.56849" fill="#E9D2B8"/>
<rect x="8.0293" y="26.8042" width="4.01621" height="3.34109" fill="#E9D2B8"/>
<rect x="4.01562" y="30.144" width="4.01621" height="2.22739" fill="#E9D2B8"/>
<rect x="8.0293" y="33.4854" width="4.01621" height="7.79588" fill="#E9D2B8"/>
<rect x="8.0293" y="42.395" width="4.01621" height="1.1137" fill="#E9D2B8"/>
<rect x="32.126" y="45.7358" width="12.0486" height="1.1137" fill="#E9D2B8"/>
<rect x="48.1904" y="45.7358" width="8.03242" height="1.1137" fill="#E9D2B8"/>
<rect x="96.3809" y="44.6216" width="16.0648" height="1.1137" fill="#E9D2B8"/>
<rect x="152.604" y="45.7358" width="4.01621" height="1.1137" fill="#E9D2B8"/>
<rect x="168.664" y="45.7358" width="8.03242" height="1.1137" fill="#E9D2B8"/>
<rect x="192.76" y="44.6216" width="8.03242" height="1.1137" fill="#E9D2B8"/>
<rect x="220.871" y="45.7358" width="4.01621" height="1.1137" fill="#E9D2B8"/>
<rect width="7.0977" height="5.50457" transform="matrix(1 0 0 -1 217.845 10.0132)" fill="#BAA48B"/>
<rect width="1.10087" height="28.389" transform="matrix(0 1 1 0 189.457 4.50928)" fill="#BAA48B"/>
<rect width="7.0977" height="1.10091" transform="matrix(-1 0 0 1 217.847 6.71094)" fill="#BAA48B"/>
<rect width="7.0977" height="1.10091" transform="matrix(-1 0 0 1 210.745 5.61035)" fill="#BAA48B"/>
<rect width="7.0977" height="1.10091" transform="matrix(-1 0 0 1 203.649 7.81201)" fill="#BAA48B"/>
<rect width="7.0977" height="5.50457" transform="matrix(-1 0 0 1 33.9131 38.6094)" fill="#BAA48B"/>
<rect width="1.10087" height="28.389" transform="matrix(0 -1 -1 0 62.2998 44.1138)" fill="#BAA48B"/>
<rect width="7.0977" height="1.10091" transform="matrix(1 0 0 -1 33.9131 41.9121)" fill="#BAA48B"/>
<rect width="7.0977" height="1.10091" transform="matrix(1 0 0 -1 41.0117 43.0127)" fill="#BAA48B"/>
<rect width="7.0977" height="1.10091" transform="matrix(1 0 0 -1 48.1084 40.811)" fill="#BAA48B"/>
</svg>
