<svg width="550" height="107" viewBox="0 0 550 107" fill="none" xmlns="http://www.w3.org/2000/svg">
<rect x="43.6533" y="104.101" width="122.221" height="2.42094" fill="#B8A590"/>
<rect x="165.87" y="101.68" width="113.491" height="2.42094" fill="#B8A590"/>
<rect x="279.359" y="104.101" width="122.221" height="2.42094" fill="#B8A590"/>
<rect x="401.58" y="101.68" width="43.6519" height="2.42094" fill="#B8A590"/>
<rect x="445.227" y="104.101" width="78.5715" height="2.42094" fill="#B8A590"/>
<rect width="8.73037" height="58.1025" transform="matrix(-1 0 0 1 17.4619 14.5267)" fill="#B8A590"/>
<rect x="17.4619" y="72.6296" width="8.73037" height="29.0512" fill="#B8A590"/>
<rect x="523.798" y="87.1548" width="8.73037" height="16.9466" fill="#B8A590"/>
<rect x="532.528" y="38.7363" width="8.73037" height="48.4188" fill="#B8A590"/>
<rect x="523.798" y="31.4738" width="8.73037" height="7.26281" fill="#B8A590"/>
<rect x="515.068" y="24.2104" width="8.73037" height="7.26281" fill="#B8A590"/>
<rect x="523.798" y="21.7893" width="17.4607" height="2.42094" fill="#B8A590"/>
<rect x="541.257" y="7.26343" width="8.73037" height="14.5256" fill="#B8A590"/>
<rect x="532.528" y="4.84314" width="8.73037" height="2.42094" fill="#B8A590"/>
<rect x="384.118" y="2.422" width="148.41" height="2.42094" fill="#B8A590"/>
<rect x="323.01" y="4.84314" width="61.1104" height="2.42094" fill="#B8A590"/>
<rect x="78.5713" y="2.422" width="244.439" height="2.42094" fill="#B8A590"/>
<rect x="52.3799" y="4.84314" width="26.1911" height="2.42094" fill="#B8A590"/>
<rect x="43.6533" y="7.26343" width="8.73037" height="4.84188" fill="#B8A590"/>
<rect x="17.4619" y="12.1057" width="26.1911" height="2.42094" fill="#B8A590"/>
<rect x="26.1895" y="101.68" width="17.4607" height="2.42094" fill="#B8A590"/>
<rect x="78.5713" y="4.84314" width="244.439" height="96.8375" fill="#B8A590"/>
<rect x="52.3799" y="7.26343" width="26.1911" height="94.4166" fill="#B8A590"/>
<rect x="26.1895" y="14.5267" width="26.1911" height="58.1025" fill="#B8A590"/>
<rect x="17.4619" y="14.5267" width="8.73037" height="58.1025" fill="#B8A590"/>
<rect x="523.798" y="38.7363" width="8.73037" height="48.4188" fill="#B8A590"/>
<rect x="523.798" y="7.26343" width="17.4607" height="14.5256" fill="#B8A590"/>
<rect x="26.1895" y="72.6296" width="26.1911" height="29.0512" fill="#B8A590"/>
<rect x="43.6533" y="101.68" width="122.221" height="2.42094" fill="#B8A590"/>
<rect x="279.359" y="101.68" width="122.221" height="2.42094" fill="#B8A590"/>
<rect x="445.227" y="38.7363" width="78.5715" height="65.3653" fill="#B8A590"/>
<rect x="323.01" y="7.26343" width="122.221" height="94.4166" fill="#B8A590"/>
<rect x="384.118" y="4.84314" width="148.41" height="2.42094" fill="#B8A590"/>
<rect x="515.068" y="31.4738" width="8.73037" height="7.26281" fill="#B8A590"/>
<rect x="515.068" y="7.26343" width="8.73037" height="16.9466" fill="#B8A590"/>
<rect x="445.227" y="7.26343" width="69.8405" height="31.4722" fill="#B8A590"/>
<rect x="34.9219" y="101.679" width="122.221" height="2.42094" fill="#DCC7AF"/>
<rect x="157.141" y="99.2579" width="113.491" height="2.42094" fill="#DCC7AF"/>
<rect x="279.36" y="101.679" width="113.491" height="2.42094" fill="#DCC7AF"/>
<rect x="392.85" y="99.2579" width="43.6519" height="2.42094" fill="#DCC7AF"/>
<rect x="445.227" y="101.679" width="69.8405" height="2.42094" fill="#DCC7AF"/>
<rect width="8.73037" height="58.1025" transform="matrix(-1 0 0 1 8.73047 12.1047)" fill="#DCC7AF"/>
<rect x="8.73047" y="70.2078" width="8.73037" height="29.0512" fill="#DCC7AF"/>
<rect x="515.065" y="84.7328" width="8.73037" height="16.9466" fill="#DCC7AF"/>
<rect x="523.799" y="36.3145" width="8.73037" height="48.4188" fill="#DCC7AF"/>
<rect x="515.065" y="29.0519" width="8.73037" height="7.26281" fill="#DCC7AF"/>
<rect x="506.34" y="21.7885" width="8.73037" height="7.26281" fill="#DCC7AF"/>
<rect x="515.065" y="19.3674" width="17.4607" height="2.42094" fill="#DCC7AF"/>
<rect x="532.526" y="4.84143" width="8.73037" height="14.5256" fill="#DCC7AF"/>
<rect x="523.799" y="2.42114" width="8.73037" height="2.42094" fill="#DCC7AF"/>
<rect x="375.388" width="148.41" height="2.42094" fill="#DCC7AF"/>
<rect x="314.28" y="2.42114" width="61.1104" height="2.42094" fill="#DCC7AF"/>
<rect x="69.8398" width="244.439" height="2.42094" fill="#DCC7AF"/>
<rect x="43.6484" y="2.42114" width="26.1911" height="2.42094" fill="#DCC7AF"/>
<rect x="34.9219" y="4.84143" width="8.73037" height="4.84188" fill="#DCC7AF"/>
<rect x="8.73047" y="9.68372" width="26.1911" height="2.42094" fill="#DCC7AF"/>
<rect x="17.458" y="99.2579" width="17.4607" height="2.42094" fill="#DCC7AF"/>
<rect x="69.8398" y="2.42114" width="244.439" height="96.8375" fill="#DCC7AF"/>
<rect x="43.6484" y="4.84143" width="26.1911" height="94.4166" fill="#DCC7AF"/>
<rect x="17.458" y="12.1047" width="26.1911" height="58.1025" fill="#DCC7AF"/>
<rect x="8.73047" y="12.1047" width="8.73037" height="58.1025" fill="#DCC7AF"/>
<rect x="515.065" y="36.3145" width="8.73037" height="48.4188" fill="#DCC7AF"/>
<rect x="515.065" y="4.84143" width="17.4607" height="14.5256" fill="#DCC7AF"/>
<rect x="17.458" y="70.2078" width="26.1911" height="29.0512" fill="#DCC7AF"/>
<rect x="34.9219" y="99.2579" width="122.221" height="2.42094" fill="#DCC7AF"/>
<rect x="270.63" y="99.2579" width="122.221" height="2.42094" fill="#DCC7AF"/>
<rect x="436.495" y="36.3145" width="78.5715" height="65.3653" fill="#DCC7AF"/>
<rect x="314.28" y="4.84143" width="122.221" height="94.4166" fill="#DCC7AF"/>
<rect x="375.388" y="2.42114" width="148.41" height="2.42094" fill="#DCC7AF"/>
<rect x="506.34" y="29.0519" width="8.73037" height="7.26281" fill="#DCC7AF"/>
<rect x="506.34" y="4.84143" width="8.73037" height="16.9466" fill="#DCC7AF"/>
<rect x="436.495" y="4.84143" width="69.8405" height="31.4722" fill="#DCC7AF"/>
<rect x="34.9219" y="9.68372" width="8.73037" height="2.42094" fill="#DCC7AF"/>
<rect width="8.73037" height="48.4188" transform="matrix(1 0 0 -1 523.799 84.7328)" fill="#E9D2B8"/>
<rect x="523.799" y="101.679" width="8.73037" height="16.9466" transform="rotate(180 523.799 101.679)" fill="#E9D2B8"/>
<rect x="515.065" y="104.1" width="69.8405" height="2.42094" transform="rotate(180 515.065 104.1)" fill="#E9D2B8"/>
<rect x="445.227" y="101.679" width="52.3804" height="2.42094" transform="rotate(180 445.227 101.679)" fill="#E9D2B8"/>
<rect x="392.85" y="104.1" width="113.491" height="2.42094" transform="rotate(180 392.85 104.1)" fill="#E9D2B8"/>
<rect x="279.359" y="101.679" width="122.221" height="2.42094" transform="rotate(180 279.359 101.679)" fill="#E9D2B8"/>
<rect x="157.141" y="104.1" width="122.221" height="2.42094" transform="rotate(180 157.141 104.1)" fill="#E9D2B8"/>
<rect x="34.9219" y="101.679" width="17.4607" height="2.42094" transform="rotate(180 34.9219 101.679)" fill="#E9D2B8"/>
<rect x="17.458" y="99.2588" width="8.73037" height="29.0512" transform="rotate(180 17.458 99.2588)" fill="#E9D2B8"/>
<rect x="8.73047" y="70.2078" width="8.73037" height="58.1025" transform="rotate(180 8.73047 70.2078)" fill="#E9D2B8"/>
<rect width="8.73037" height="4.84188" transform="matrix(1 0 0 -1 515.065 33.8933)" fill="#E9D2B8"/>
<rect width="8.73037" height="7.26281" transform="matrix(1 0 0 -1 506.34 29.0519)" fill="#E9D2B8"/>
<rect width="8.73037" height="2.42094" transform="matrix(1 0 0 -1 523.799 21.7885)" fill="#E9D2B8"/>
<rect width="8.73037" height="4.84188" transform="matrix(1 0 0 -1 523.799 7.26257)" fill="#E9D2B8"/>
<rect width="8.73037" height="4.84188" transform="matrix(1 0 0 -1 515.065 4.84229)" fill="#E9D2B8"/>
<rect width="8.73037" height="14.5256" transform="matrix(1 0 0 -1 532.526 19.3673)" fill="#E9D2B8"/>
<rect x="8.73047" y="9.68445" width="26.1911" height="2.42094" fill="#E9D2B8"/>
<rect x="34.9219" y="4.84229" width="8.73037" height="4.84188" fill="#E9D2B8"/>
<rect x="43.6484" y="2.42114" width="26.1911" height="2.42094" fill="#E9D2B8"/>
<rect x="69.8398" width="244.439" height="2.42094" fill="#E9D2B8"/>
<rect x="314.278" y="2.42114" width="61.1104" height="2.42094" fill="#E9D2B8"/>
<rect x="375.388" width="139.681" height="2.42094" fill="#E9D2B8"/>
<rect x="515.065" y="65.3655" width="8.73037" height="4.84188" fill="#E9D2B8"/>
<rect x="515.065" y="43.577" width="8.73037" height="2.42094" fill="#E9D2B8"/>
<rect x="515.065" y="9.68445" width="17.4607" height="2.42094" fill="#E9D2B8"/>
<rect x="523.799" y="12.1047" width="8.73037" height="2.42094" fill="#E9D2B8"/>
<rect x="401.579" y="2.42114" width="61.1104" height="2.42094" fill="#E9D2B8"/>
<rect x="419.038" y="4.84229" width="17.4607" height="2.42094" fill="#E9D2B8"/>
<rect x="218.249" y="2.42114" width="17.4607" height="2.42094" fill="#E9D2B8"/>
<rect x="226.978" y="4.84229" width="8.73037" height="2.42094" fill="#E9D2B8"/>
<rect x="279.359" y="2.42114" width="26.1911" height="2.42094" fill="#E9D2B8"/>
<rect x="69.8398" y="2.42114" width="8.73037" height="2.42094" fill="#E9D2B8"/>
<rect x="69.8398" y="4.84229" width="17.4607" height="2.42094" fill="#E9D2B8"/>
<rect x="8.73047" y="12.1047" width="8.73037" height="16.9466" fill="#E9D2B8"/>
<rect x="17.458" y="12.1047" width="8.73037" height="9.68375" fill="#E9D2B8"/>
<rect x="8.73047" y="48.4192" width="8.73037" height="12.1047" fill="#E9D2B8"/>
<rect x="17.458" y="58.1029" width="8.73037" height="7.26281" fill="#E9D2B8"/>
<rect x="8.73047" y="65.3655" width="8.73037" height="4.84188" fill="#E9D2B8"/>
<rect x="17.458" y="72.6281" width="8.73037" height="16.9466" fill="#E9D2B8"/>
<rect x="17.458" y="91.9962" width="8.73037" height="2.42094" fill="#E9D2B8"/>
<rect x="69.8398" y="99.2588" width="26.1911" height="2.42094" fill="#E9D2B8"/>
<rect x="104.761" y="99.2588" width="17.4607" height="2.42094" fill="#E9D2B8"/>
<rect x="209.522" y="96.8376" width="34.9215" height="2.42094" fill="#E9D2B8"/>
<rect x="331.74" y="99.2588" width="8.73037" height="2.42094" fill="#E9D2B8"/>
<rect x="366.657" y="99.2588" width="17.4607" height="2.42094" fill="#E9D2B8"/>
<rect x="419.038" y="96.8376" width="17.4607" height="2.42094" fill="#E9D2B8"/>
<rect x="480.148" y="99.2588" width="8.73037" height="2.42094" fill="#E9D2B8"/>
<rect width="15.4289" height="11.9657" transform="matrix(1 0 0 -1 473.566 21.6044)" fill="#BAA48B"/>
<rect width="2.39315" height="61.7141" transform="matrix(0 1 1 0 411.855 9.63855)" fill="#BAA48B"/>
<rect width="15.4289" height="2.39315" transform="matrix(-1 0 0 1 473.569 14.4253)" fill="#BAA48B"/>
<rect width="15.4289" height="2.39315" transform="matrix(-1 0 0 1 458.135 12.032)" fill="#BAA48B"/>
<rect width="15.4289" height="2.39315" transform="matrix(-1 0 0 1 442.71 16.8177)" fill="#BAA48B"/>
<rect width="15.4289" height="11.9657" transform="matrix(-1 0 0 1 73.7246 83.7678)" fill="#BAA48B"/>
<rect width="2.39315" height="61.7141" transform="matrix(0 -1 -1 0 135.437 95.7336)" fill="#BAA48B"/>
<rect width="15.4289" height="2.39315" transform="matrix(1 0 0 -1 73.7227 90.9479)" fill="#BAA48B"/>
<rect width="15.4289" height="2.39315" transform="matrix(1 0 0 -1 89.1562 93.3412)" fill="#BAA48B"/>
<rect width="15.4289" height="2.39315" transform="matrix(1 0 0 -1 104.583 88.5546)" fill="#BAA48B"/>
</svg>
