<svg width="760" height="596" viewBox="0 0 760 596" fill="none" xmlns="http://www.w3.org/2000/svg">
<rect x="60.2949" y="581.626" width="168.826" height="13.5261" fill="#B8A590"/>
<rect x="229.117" y="568.099" width="156.767" height="13.5261" fill="#B8A590"/>
<rect x="385.881" y="581.626" width="168.826" height="13.5261" fill="#B8A590"/>
<rect x="554.705" y="568.099" width="60.2955" height="13.5261" fill="#B8A590"/>
<rect x="614.996" y="581.626" width="108.531" height="13.5261" fill="#B8A590"/>
<rect width="12.0591" height="324.626" transform="matrix(-1 0 0 1 24.1172 81.1636)" fill="#B8A590"/>
<rect x="24.1172" y="405.792" width="12.0591" height="162.313" fill="#B8A590"/>
<rect x="723.53" y="486.945" width="12.0591" height="94.6825" fill="#B8A590"/>
<rect x="735.589" y="216.426" width="12.0591" height="270.521" fill="#B8A590"/>
<rect x="723.53" y="175.849" width="12.0591" height="40.5782" fill="#B8A590"/>
<rect x="711.471" y="135.267" width="12.0591" height="40.5782" fill="#B8A590"/>
<rect x="723.53" y="121.74" width="24.1182" height="13.5261" fill="#B8A590"/>
<rect x="747.646" y="40.582" width="12.0591" height="81.1564" fill="#B8A590"/>
<rect x="735.589" y="27.0598" width="12.0591" height="13.5261" fill="#B8A590"/>
<rect x="530.586" y="13.5325" width="205.001" height="13.5261" fill="#B8A590"/>
<rect x="446.176" y="27.0598" width="84.4126" height="13.5261" fill="#B8A590"/>
<rect x="108.527" y="13.5325" width="337.647" height="13.5261" fill="#B8A590"/>
<rect x="72.3506" y="27.0598" width="36.1773" height="13.5261" fill="#B8A590"/>
<rect x="60.2949" y="40.582" width="12.0591" height="27.0521" fill="#B8A590"/>
<rect x="24.1172" y="67.6367" width="36.1773" height="13.5261" fill="#B8A590"/>
<rect x="36.1719" y="568.099" width="24.1182" height="13.5261" fill="#B8A590"/>
<rect x="108.527" y="27.0598" width="337.647" height="541.043" fill="#B8A590"/>
<rect x="72.3506" y="40.582" width="36.1773" height="527.517" fill="#B8A590"/>
<rect x="36.1719" y="81.1636" width="36.1773" height="324.626" fill="#B8A590"/>
<rect x="24.1172" y="81.1636" width="12.0591" height="324.626" fill="#B8A590"/>
<rect x="723.53" y="216.426" width="12.0591" height="270.521" fill="#B8A590"/>
<rect x="723.53" y="40.582" width="24.1182" height="81.1564" fill="#B8A590"/>
<rect x="36.1719" y="405.792" width="36.1773" height="162.313" fill="#B8A590"/>
<rect x="60.2949" y="568.099" width="168.826" height="13.5261" fill="#B8A590"/>
<rect x="385.881" y="568.099" width="168.826" height="13.5261" fill="#B8A590"/>
<rect x="614.996" y="216.426" width="108.531" height="365.204" fill="#B8A590"/>
<rect x="446.176" y="40.582" width="168.826" height="527.517" fill="#B8A590"/>
<rect x="530.586" y="27.0598" width="205.001" height="13.5261" fill="#B8A590"/>
<rect x="711.471" y="175.849" width="12.0591" height="40.5782" fill="#B8A590"/>
<rect x="711.471" y="40.582" width="12.0591" height="94.6825" fill="#B8A590"/>
<rect x="614.996" y="40.582" width="96.4716" height="175.839" fill="#B8A590"/>
<rect x="48.2383" y="568.093" width="168.826" height="13.5261" fill="#DCC7AF"/>
<rect x="217.06" y="554.566" width="156.767" height="13.5261" fill="#DCC7AF"/>
<rect x="385.884" y="568.093" width="156.767" height="13.5261" fill="#DCC7AF"/>
<rect x="542.648" y="554.566" width="60.2955" height="13.5261" fill="#DCC7AF"/>
<rect x="614.998" y="568.093" width="96.4716" height="13.5261" fill="#DCC7AF"/>
<rect width="12.0591" height="324.626" transform="matrix(-1 0 0 1 12.0586 67.6311)" fill="#DCC7AF"/>
<rect x="12.0586" y="392.259" width="12.0591" height="162.313" fill="#DCC7AF"/>
<rect x="711.468" y="473.412" width="12.0591" height="94.6825" fill="#DCC7AF"/>
<rect x="723.531" y="202.893" width="12.0591" height="270.521" fill="#DCC7AF"/>
<rect x="711.468" y="162.316" width="12.0591" height="40.5782" fill="#DCC7AF"/>
<rect x="699.412" y="121.735" width="12.0591" height="40.5782" fill="#DCC7AF"/>
<rect x="711.468" y="108.208" width="24.1182" height="13.5261" fill="#DCC7AF"/>
<rect x="735.588" y="27.0496" width="12.0591" height="81.1564" fill="#DCC7AF"/>
<rect x="723.531" y="13.5271" width="12.0591" height="13.5261" fill="#DCC7AF"/>
<rect x="518.528" width="205.001" height="13.5261" fill="#DCC7AF"/>
<rect x="434.117" y="13.5271" width="84.4126" height="13.5261" fill="#DCC7AF"/>
<rect x="96.4697" width="337.647" height="13.5261" fill="#DCC7AF"/>
<rect x="60.293" y="13.5271" width="36.1773" height="13.5261" fill="#DCC7AF"/>
<rect x="48.2383" y="27.0496" width="12.0591" height="27.0521" fill="#DCC7AF"/>
<rect x="12.0586" y="54.104" width="36.1773" height="13.5261" fill="#DCC7AF"/>
<rect x="24.1143" y="554.566" width="24.1182" height="13.5261" fill="#DCC7AF"/>
<rect x="96.4697" y="13.5271" width="337.647" height="541.043" fill="#DCC7AF"/>
<rect x="60.293" y="27.0496" width="36.1773" height="527.517" fill="#DCC7AF"/>
<rect x="24.1143" y="67.6311" width="36.1773" height="324.626" fill="#DCC7AF"/>
<rect x="12.0586" y="67.6311" width="12.0591" height="324.626" fill="#DCC7AF"/>
<rect x="711.468" y="202.893" width="12.0591" height="270.521" fill="#DCC7AF"/>
<rect x="711.468" y="27.0496" width="24.1182" height="81.1564" fill="#DCC7AF"/>
<rect x="24.1143" y="392.259" width="36.1773" height="162.313" fill="#DCC7AF"/>
<rect x="48.2383" y="554.566" width="168.826" height="13.5261" fill="#DCC7AF"/>
<rect x="373.823" y="554.566" width="168.826" height="13.5261" fill="#DCC7AF"/>
<rect x="602.939" y="202.893" width="108.531" height="365.204" fill="#DCC7AF"/>
<rect x="434.117" y="27.0496" width="168.826" height="527.517" fill="#DCC7AF"/>
<rect x="518.528" y="13.5271" width="205.001" height="13.5261" fill="#DCC7AF"/>
<rect x="699.412" y="162.316" width="12.0591" height="40.5782" fill="#DCC7AF"/>
<rect x="699.412" y="27.0496" width="12.0591" height="94.6825" fill="#DCC7AF"/>
<rect x="602.939" y="27.0496" width="96.4716" height="175.839" fill="#DCC7AF"/>
<rect x="48.2383" y="54.104" width="12.0591" height="13.5261" fill="#DCC7AF"/>
<rect x="687.352" y="162.316" width="12.0591" height="270.521" fill="#BAA48B"/>
<rect x="687.352" y="162.316" width="12.0591" height="270.521" fill="#BAA48B"/>
<rect x="60.293" y="162.316" width="12.0591" height="270.521" fill="#BAA48B"/>
<rect x="72.3535" y="121.74" width="12.0591" height="67.6303" transform="rotate(-180 72.3535 121.74)" fill="#BAA48B"/>
<rect x="120.589" y="54.1084" width="13.5261" height="48.2364" transform="rotate(90 120.589 54.1084)" fill="#BAA48B"/>
<rect x="72.3516" y="81.1633" width="12.0591" height="13.5261" fill="#BAA48B"/>
<rect x="84.415" y="67.6362" width="12.0591" height="13.5261" fill="#BAA48B"/>
<rect x="96.4717" y="94.6855" width="12.0591" height="13.5261" fill="#BAA48B"/>
<rect width="12.0591" height="67.6303" transform="matrix(-1 0 0 1 72.3535 473.409)" fill="#BAA48B"/>
<rect width="13.5261" height="48.2364" transform="matrix(0 -1 -1 0 120.589 541.04)" fill="#BAA48B"/>
<rect width="12.0591" height="13.5261" transform="matrix(1 0 0 -1 72.3516 513.991)" fill="#BAA48B"/>
<rect width="12.0591" height="13.5261" transform="matrix(1 0 0 -1 84.415 527.518)" fill="#BAA48B"/>
<rect width="12.0591" height="13.5261" transform="matrix(1 0 0 -1 96.4717 500.464)" fill="#BAA48B"/>
<rect x="687.354" y="473.409" width="12.0591" height="67.6303" fill="#BAA48B"/>
<rect x="639.121" y="541.04" width="13.5261" height="48.2364" transform="rotate(-90 639.121 541.04)" fill="#BAA48B"/>
<rect x="687.356" y="513.991" width="12.0591" height="13.5261" transform="rotate(180 687.356 513.991)" fill="#BAA48B"/>
<rect x="675.293" y="527.518" width="12.0591" height="13.5261" transform="rotate(180 675.293 527.518)" fill="#BAA48B"/>
<rect x="663.236" y="500.464" width="12.0591" height="13.5261" transform="rotate(180 663.236 500.464)" fill="#BAA48B"/>
<rect width="12.0591" height="67.6303" transform="matrix(1 0 0 -1 687.354 121.74)" fill="#BAA48B"/>
<rect width="13.5261" height="48.2364" transform="matrix(0 1 1 0 639.121 54.1084)" fill="#BAA48B"/>
<rect width="12.0591" height="13.5261" transform="matrix(-1 0 0 1 687.356 81.1633)" fill="#BAA48B"/>
<rect width="12.0591" height="13.5261" transform="matrix(-1 0 0 1 675.293 67.6362)" fill="#BAA48B"/>
<rect width="12.0591" height="13.5261" transform="matrix(-1 0 0 1 663.236 94.6855)" fill="#BAA48B"/>
<rect width="12.0591" height="270.521" transform="matrix(1 0 0 -1 723.531 473.412)" fill="#E9D2B8"/>
<rect x="723.531" y="568.093" width="12.0591" height="94.6825" transform="rotate(180 723.531 568.093)" fill="#E9D2B8"/>
<rect x="711.468" y="581.62" width="96.4716" height="13.5261" transform="rotate(180 711.468 581.62)" fill="#E9D2B8"/>
<rect x="614.997" y="568.093" width="72.3537" height="13.5261" transform="rotate(180 614.997 568.093)" fill="#E9D2B8"/>
<rect x="542.648" y="581.62" width="156.767" height="13.5261" transform="rotate(180 542.648 581.62)" fill="#E9D2B8"/>
<rect x="385.884" y="568.093" width="168.826" height="13.5261" transform="rotate(180 385.884 568.093)" fill="#E9D2B8"/>
<rect x="217.06" y="581.62" width="168.826" height="13.5261" transform="rotate(180 217.06 581.62)" fill="#E9D2B8"/>
<rect x="48.2383" y="568.093" width="24.1182" height="13.5261" transform="rotate(180 48.2383 568.093)" fill="#E9D2B8"/>
<rect x="24.1143" y="554.571" width="12.0591" height="162.313" transform="rotate(180 24.1143 554.571)" fill="#E9D2B8"/>
<rect x="12.0596" y="392.259" width="12.0591" height="324.626" transform="rotate(180 12.0596 392.259)" fill="#E9D2B8"/>
<rect width="12.0591" height="27.0521" transform="matrix(1 0 0 -1 711.468 189.366)" fill="#E9D2B8"/>
<rect width="12.0591" height="40.5782" transform="matrix(1 0 0 -1 699.412 162.316)" fill="#E9D2B8"/>
<rect width="12.0591" height="13.5261" transform="matrix(1 0 0 -1 723.531 121.735)" fill="#E9D2B8"/>
<rect width="12.0591" height="27.0521" transform="matrix(1 0 0 -1 723.531 40.5767)" fill="#E9D2B8"/>
<rect width="12.0591" height="27.0521" transform="matrix(1 0 0 -1 711.468 27.0542)" fill="#E9D2B8"/>
<rect width="12.0591" height="81.1564" transform="matrix(1 0 0 -1 735.588 108.208)" fill="#E9D2B8"/>
<rect x="12.0596" y="54.1084" width="36.1773" height="13.5261" fill="#E9D2B8"/>
<rect x="48.2383" y="27.0542" width="12.0591" height="27.0521" fill="#E9D2B8"/>
<rect x="60.293" y="13.5271" width="36.1773" height="13.5261" fill="#E9D2B8"/>
<rect x="96.4697" width="337.647" height="13.5261" fill="#E9D2B8"/>
<rect x="434.117" y="13.5271" width="84.4126" height="13.5261" fill="#E9D2B8"/>
<rect x="518.528" width="192.944" height="13.5261" fill="#E9D2B8"/>
<rect x="711.468" y="365.205" width="12.0591" height="27.0521" fill="#E9D2B8"/>
<rect x="711.468" y="243.47" width="12.0591" height="13.5261" fill="#E9D2B8"/>
<rect x="711.468" y="54.1084" width="24.1182" height="13.5261" fill="#E9D2B8"/>
<rect x="723.531" y="67.6311" width="12.0591" height="13.5261" fill="#E9D2B8"/>
<rect x="554.707" y="13.5271" width="84.4126" height="13.5261" fill="#E9D2B8"/>
<rect x="578.822" y="27.0542" width="24.1182" height="13.5261" fill="#E9D2B8"/>
<rect x="301.469" y="13.5271" width="24.1182" height="13.5261" fill="#E9D2B8"/>
<rect x="313.528" y="27.0542" width="12.0591" height="13.5261" fill="#E9D2B8"/>
<rect x="385.884" y="13.5271" width="36.1773" height="13.5261" fill="#E9D2B8"/>
<rect x="96.4697" y="13.5271" width="12.0591" height="13.5261" fill="#E9D2B8"/>
<rect x="96.4697" y="27.0542" width="24.1182" height="13.5261" fill="#E9D2B8"/>
<rect x="12.0596" y="67.6311" width="12.0591" height="94.6825" fill="#E9D2B8"/>
<rect x="24.1143" y="67.6311" width="12.0591" height="54.1043" fill="#E9D2B8"/>
<rect x="12.0596" y="270.524" width="12.0591" height="67.6303" fill="#E9D2B8"/>
<rect x="24.1143" y="324.628" width="12.0591" height="40.5782" fill="#E9D2B8"/>
<rect x="12.0596" y="365.205" width="12.0591" height="27.0521" fill="#E9D2B8"/>
<rect x="24.1143" y="405.781" width="12.0591" height="94.6825" fill="#E9D2B8"/>
<rect x="24.1143" y="513.994" width="12.0591" height="13.5261" fill="#E9D2B8"/>
<rect x="96.4697" y="554.571" width="36.1773" height="13.5261" fill="#E9D2B8"/>
<rect x="144.707" y="554.571" width="24.1182" height="13.5261" fill="#E9D2B8"/>
<rect x="289.413" y="541.043" width="48.2364" height="13.5261" fill="#E9D2B8"/>
<rect x="458.237" y="554.571" width="12.0591" height="13.5261" fill="#E9D2B8"/>
<rect x="506.469" y="554.571" width="24.1182" height="13.5261" fill="#E9D2B8"/>
<rect x="578.822" y="541.043" width="24.1182" height="13.5261" fill="#E9D2B8"/>
<rect x="663.237" y="554.571" width="12.0591" height="13.5261" fill="#E9D2B8"/>
<rect x="132.042" y="173.417" width="3.20833" height="3.20833" fill="black"/>
<rect x="135.25" y="173.417" width="3.20833" height="3.20833" fill="black"/>
<rect x="138.459" y="173.417" width="3.20833" height="3.20833" fill="black"/>
<rect x="141.667" y="173.417" width="3.20833" height="3.20833" fill="black"/>
<rect x="144.875" y="173.417" width="3.20833" height="3.20833" fill="black"/>
<rect x="148.084" y="173.417" width="3.20833" height="3.20833" fill="black"/>
<rect x="151.292" y="173.417" width="3.20833" height="3.20833" fill="black"/>
<rect x="154.5" y="173.417" width="3.20833" height="3.20833" fill="black"/>
<rect x="157.709" y="173.417" width="3.20833" height="3.20833" fill="black"/>
<rect x="160.917" y="173.417" width="3.20833" height="3.20833" fill="black"/>
<rect x="164.125" y="173.417" width="3.20833" height="3.20833" fill="black"/>
<rect x="167.334" y="173.417" width="3.20833" height="3.20833" fill="black"/>
<rect x="170.542" y="173.417" width="3.20833" height="3.20833" fill="black"/>
<rect x="173.75" y="173.417" width="3.20833" height="3.20833" fill="black"/>
<rect x="128.834" y="176.625" width="3.20833" height="3.20833" fill="black"/>
<rect x="125.625" y="179.833" width="3.20833" height="3.20833" fill="black"/>
<rect x="122.417" y="183.042" width="3.20833" height="3.20833" fill="black"/>
<rect x="122.417" y="186.25" width="3.20833" height="3.20833" fill="black"/>
<rect x="122.417" y="189.458" width="3.20833" height="3.20833" fill="black"/>
<rect x="122.417" y="192.667" width="3.20833" height="3.20833" fill="black"/>
<rect x="122.417" y="195.875" width="3.20833" height="3.20833" fill="black"/>
<rect x="122.417" y="199.083" width="3.20833" height="3.20833" fill="black"/>
<rect x="122.417" y="202.292" width="3.20833" height="3.20833" fill="black"/>
<rect x="122.417" y="205.5" width="3.20833" height="3.20833" fill="black"/>
<rect x="122.417" y="208.708" width="3.20833" height="3.20833" fill="black"/>
<rect x="122.417" y="211.917" width="3.20833" height="3.20833" fill="black"/>
<rect x="122.417" y="215.125" width="3.20833" height="3.20833" fill="black"/>
<rect x="122.417" y="218.333" width="3.20833" height="3.20833" fill="black"/>
<rect x="122.417" y="221.542" width="3.20833" height="3.20833" fill="black"/>
<rect x="122.417" y="224.75" width="3.20833" height="3.20833" fill="black"/>
<rect x="125.625" y="227.958" width="3.20833" height="3.20833" fill="black"/>
<rect x="128.834" y="231.167" width="3.20833" height="3.20833" fill="black"/>
<rect x="132.042" y="234.375" width="3.20833" height="3.20833" fill="black"/>
<rect x="135.25" y="234.375" width="3.20833" height="3.20833" fill="black"/>
<rect x="138.459" y="234.375" width="3.20833" height="3.20833" fill="black"/>
<rect x="141.667" y="234.375" width="3.20833" height="3.20833" fill="black"/>
<rect x="144.875" y="234.375" width="3.20833" height="3.20833" fill="black"/>
<rect x="148.084" y="234.375" width="3.20833" height="3.20833" fill="black"/>
<rect x="151.292" y="234.375" width="3.20833" height="3.20833" fill="black"/>
<rect x="154.5" y="234.375" width="3.20833" height="3.20833" fill="black"/>
<rect x="157.709" y="234.375" width="3.20833" height="3.20833" fill="black"/>
<rect x="160.917" y="234.375" width="3.20833" height="3.20833" fill="black"/>
<rect x="164.125" y="234.375" width="3.20833" height="3.20833" fill="black"/>
<rect x="167.334" y="234.375" width="3.20833" height="3.20833" fill="black"/>
<rect x="170.542" y="234.375" width="3.20833" height="3.20833" fill="black"/>
<rect x="173.75" y="234.375" width="3.20833" height="3.20833" fill="black"/>
<rect x="176.959" y="231.167" width="3.20833" height="3.20833" fill="black"/>
<rect x="180.167" y="227.958" width="3.20833" height="3.20833" fill="black"/>
<rect x="183.375" y="224.75" width="3.20833" height="3.20833" fill="black"/>
<rect x="183.375" y="221.542" width="3.20833" height="3.20833" fill="black"/>
<rect x="183.375" y="218.333" width="3.20833" height="3.20833" fill="black"/>
<rect x="183.375" y="215.125" width="3.20833" height="3.20833" fill="black"/>
<rect x="183.375" y="211.917" width="3.20833" height="3.20833" fill="black"/>
<rect x="183.375" y="208.708" width="3.20833" height="3.20833" fill="black"/>
<rect x="183.375" y="205.5" width="3.20833" height="3.20833" fill="black"/>
<rect x="183.375" y="202.292" width="3.20833" height="3.20833" fill="black"/>
<rect x="183.375" y="199.083" width="3.20833" height="3.20833" fill="black"/>
<rect x="183.375" y="195.875" width="3.20833" height="3.20833" fill="black"/>
<rect x="183.375" y="192.667" width="3.20833" height="3.20833" fill="black"/>
<rect x="183.375" y="189.458" width="3.20833" height="3.20833" fill="black"/>
<rect x="183.375" y="186.25" width="3.20833" height="3.20833" fill="black"/>
<rect x="183.375" y="183.042" width="3.20833" height="3.20833" fill="black"/>
<rect x="180.167" y="179.833" width="3.20833" height="3.20833" fill="black"/>
<rect x="176.959" y="176.625" width="3.20833" height="3.20833" fill="black"/>
<rect x="560.042" y="174.417" width="3.20833" height="3.20833" fill="black"/>
<rect x="563.25" y="174.417" width="3.20833" height="3.20833" fill="black"/>
<rect x="566.459" y="174.417" width="3.20833" height="3.20833" fill="black"/>
<rect x="569.667" y="174.417" width="3.20833" height="3.20833" fill="black"/>
<rect x="572.875" y="174.417" width="3.20833" height="3.20833" fill="black"/>
<rect x="576.084" y="174.417" width="3.20833" height="3.20833" fill="black"/>
<rect x="579.292" y="174.417" width="3.20833" height="3.20833" fill="black"/>
<rect x="582.5" y="174.417" width="3.20833" height="3.20833" fill="black"/>
<rect x="585.709" y="174.417" width="3.20833" height="3.20833" fill="black"/>
<rect x="588.917" y="174.417" width="3.20833" height="3.20833" fill="black"/>
<rect x="592.125" y="174.417" width="3.20833" height="3.20833" fill="black"/>
<rect x="595.334" y="174.417" width="3.20833" height="3.20833" fill="black"/>
<rect x="598.542" y="174.417" width="3.20833" height="3.20833" fill="black"/>
<rect x="601.75" y="174.417" width="3.20833" height="3.20833" fill="black"/>
<rect x="556.834" y="177.625" width="3.20833" height="3.20833" fill="black"/>
<rect x="553.625" y="180.833" width="3.20833" height="3.20833" fill="black"/>
<rect x="550.417" y="184.042" width="3.20833" height="3.20833" fill="black"/>
<rect x="550.417" y="187.25" width="3.20833" height="3.20833" fill="black"/>
<rect x="550.417" y="190.458" width="3.20833" height="3.20833" fill="black"/>
<rect x="550.417" y="193.667" width="3.20833" height="3.20833" fill="black"/>
<rect x="550.417" y="196.875" width="3.20833" height="3.20833" fill="black"/>
<rect x="550.417" y="200.083" width="3.20833" height="3.20833" fill="black"/>
<rect x="550.417" y="203.292" width="3.20833" height="3.20833" fill="black"/>
<rect x="550.417" y="206.5" width="3.20833" height="3.20833" fill="black"/>
<rect x="550.417" y="209.708" width="3.20833" height="3.20833" fill="black"/>
<rect x="550.417" y="212.917" width="3.20833" height="3.20833" fill="black"/>
<rect x="550.417" y="216.125" width="3.20833" height="3.20833" fill="black"/>
<rect x="550.417" y="219.333" width="3.20833" height="3.20833" fill="black"/>
<rect x="550.417" y="222.542" width="3.20833" height="3.20833" fill="black"/>
<rect x="550.417" y="225.75" width="3.20833" height="3.20833" fill="black"/>
<rect x="553.625" y="228.958" width="3.20833" height="3.20833" fill="black"/>
<rect x="556.834" y="232.167" width="3.20833" height="3.20833" fill="black"/>
<rect x="560.042" y="235.375" width="3.20833" height="3.20833" fill="black"/>
<rect x="563.25" y="235.375" width="3.20833" height="3.20833" fill="black"/>
<rect x="566.459" y="235.375" width="3.20833" height="3.20833" fill="black"/>
<rect x="569.667" y="235.375" width="3.20833" height="3.20833" fill="black"/>
<rect x="572.875" y="235.375" width="3.20833" height="3.20833" fill="black"/>
<rect x="576.084" y="235.375" width="3.20833" height="3.20833" fill="black"/>
<rect x="579.292" y="235.375" width="3.20833" height="3.20833" fill="black"/>
<rect x="582.5" y="235.375" width="3.20833" height="3.20833" fill="black"/>
<rect x="585.709" y="235.375" width="3.20833" height="3.20833" fill="black"/>
<rect x="588.917" y="235.375" width="3.20833" height="3.20833" fill="black"/>
<rect x="592.125" y="235.375" width="3.20833" height="3.20833" fill="black"/>
<rect x="595.334" y="235.375" width="3.20833" height="3.20833" fill="black"/>
<rect x="598.542" y="235.375" width="3.20833" height="3.20833" fill="black"/>
<rect x="601.75" y="235.375" width="3.20833" height="3.20833" fill="black"/>
<rect x="604.959" y="232.167" width="3.20833" height="3.20833" fill="black"/>
<rect x="608.167" y="228.958" width="3.20833" height="3.20833" fill="black"/>
<rect x="611.375" y="225.75" width="3.20833" height="3.20833" fill="black"/>
<rect x="611.375" y="222.542" width="3.20833" height="3.20833" fill="black"/>
<rect x="611.375" y="219.333" width="3.20833" height="3.20833" fill="black"/>
<rect x="611.375" y="216.125" width="3.20833" height="3.20833" fill="black"/>
<rect x="611.375" y="212.917" width="3.20833" height="3.20833" fill="black"/>
<rect x="611.375" y="209.708" width="3.20833" height="3.20833" fill="black"/>
<rect x="611.375" y="206.5" width="3.20833" height="3.20833" fill="black"/>
<rect x="611.375" y="203.292" width="3.20833" height="3.20833" fill="black"/>
<rect x="611.375" y="200.083" width="3.20833" height="3.20833" fill="black"/>
<rect x="611.375" y="196.875" width="3.20833" height="3.20833" fill="black"/>
<rect x="611.375" y="193.667" width="3.20833" height="3.20833" fill="black"/>
<rect x="611.375" y="190.458" width="3.20833" height="3.20833" fill="black"/>
<rect x="611.375" y="187.25" width="3.20833" height="3.20833" fill="black"/>
<rect x="611.375" y="184.042" width="3.20833" height="3.20833" fill="black"/>
<rect x="608.167" y="180.833" width="3.20833" height="3.20833" fill="black"/>
<rect x="604.959" y="177.625" width="3.20833" height="3.20833" fill="black"/>
<rect x="453.042" y="173.417" width="3.20833" height="3.20833" fill="black"/>
<rect x="456.25" y="173.417" width="3.20833" height="3.20833" fill="black"/>
<rect x="459.459" y="173.417" width="3.20833" height="3.20833" fill="black"/>
<rect x="462.667" y="173.417" width="3.20833" height="3.20833" fill="black"/>
<rect x="465.875" y="173.417" width="3.20833" height="3.20833" fill="black"/>
<rect x="469.084" y="173.417" width="3.20833" height="3.20833" fill="black"/>
<rect x="472.292" y="173.417" width="3.20833" height="3.20833" fill="black"/>
<rect x="475.5" y="173.417" width="3.20833" height="3.20833" fill="black"/>
<rect x="478.709" y="173.417" width="3.20833" height="3.20833" fill="black"/>
<rect x="481.917" y="173.417" width="3.20833" height="3.20833" fill="black"/>
<rect x="485.125" y="173.417" width="3.20833" height="3.20833" fill="black"/>
<rect x="488.334" y="173.417" width="3.20833" height="3.20833" fill="black"/>
<rect x="491.542" y="173.417" width="3.20833" height="3.20833" fill="black"/>
<rect x="494.75" y="173.417" width="3.20833" height="3.20833" fill="black"/>
<rect x="449.834" y="176.625" width="3.20833" height="3.20833" fill="black"/>
<rect x="446.625" y="179.833" width="3.20833" height="3.20833" fill="black"/>
<rect x="443.417" y="183.042" width="3.20833" height="3.20833" fill="black"/>
<rect x="443.417" y="186.25" width="3.20833" height="3.20833" fill="black"/>
<rect x="443.417" y="189.458" width="3.20833" height="3.20833" fill="black"/>
<rect x="443.417" y="192.667" width="3.20833" height="3.20833" fill="black"/>
<rect x="443.417" y="195.875" width="3.20833" height="3.20833" fill="black"/>
<rect x="443.417" y="199.083" width="3.20833" height="3.20833" fill="black"/>
<rect x="443.417" y="202.292" width="3.20833" height="3.20833" fill="black"/>
<rect x="443.417" y="205.5" width="3.20833" height="3.20833" fill="black"/>
<rect x="443.417" y="208.708" width="3.20833" height="3.20833" fill="black"/>
<rect x="443.417" y="211.917" width="3.20833" height="3.20833" fill="black"/>
<rect x="443.417" y="215.125" width="3.20833" height="3.20833" fill="black"/>
<rect x="443.417" y="218.333" width="3.20833" height="3.20833" fill="black"/>
<rect x="443.417" y="221.542" width="3.20833" height="3.20833" fill="black"/>
<rect x="443.417" y="224.75" width="3.20833" height="3.20833" fill="black"/>
<rect x="446.625" y="227.958" width="3.20833" height="3.20833" fill="black"/>
<rect x="449.834" y="231.167" width="3.20833" height="3.20833" fill="black"/>
<rect x="453.042" y="234.375" width="3.20833" height="3.20833" fill="black"/>
<rect x="456.25" y="234.375" width="3.20833" height="3.20833" fill="black"/>
<rect x="459.459" y="234.375" width="3.20833" height="3.20833" fill="black"/>
<rect x="462.667" y="234.375" width="3.20833" height="3.20833" fill="black"/>
<rect x="465.875" y="234.375" width="3.20833" height="3.20833" fill="black"/>
<rect x="469.084" y="234.375" width="3.20833" height="3.20833" fill="black"/>
<rect x="472.292" y="234.375" width="3.20833" height="3.20833" fill="black"/>
<rect x="475.5" y="234.375" width="3.20833" height="3.20833" fill="black"/>
<rect x="478.709" y="234.375" width="3.20833" height="3.20833" fill="black"/>
<rect x="481.917" y="234.375" width="3.20833" height="3.20833" fill="black"/>
<rect x="485.125" y="234.375" width="3.20833" height="3.20833" fill="black"/>
<rect x="488.334" y="234.375" width="3.20833" height="3.20833" fill="black"/>
<rect x="491.542" y="234.375" width="3.20833" height="3.20833" fill="black"/>
<rect x="494.75" y="234.375" width="3.20833" height="3.20833" fill="black"/>
<rect x="497.959" y="231.167" width="3.20833" height="3.20833" fill="black"/>
<rect x="501.167" y="227.958" width="3.20833" height="3.20833" fill="black"/>
<rect x="504.375" y="224.75" width="3.20833" height="3.20833" fill="black"/>
<rect x="504.375" y="221.542" width="3.20833" height="3.20833" fill="black"/>
<rect x="504.375" y="218.333" width="3.20833" height="3.20833" fill="black"/>
<rect x="504.375" y="215.125" width="3.20833" height="3.20833" fill="black"/>
<rect x="504.375" y="211.917" width="3.20833" height="3.20833" fill="black"/>
<rect x="504.375" y="208.708" width="3.20833" height="3.20833" fill="black"/>
<rect x="504.375" y="205.5" width="3.20833" height="3.20833" fill="black"/>
<rect x="504.375" y="202.292" width="3.20833" height="3.20833" fill="black"/>
<rect x="504.375" y="199.083" width="3.20833" height="3.20833" fill="black"/>
<rect x="504.375" y="195.875" width="3.20833" height="3.20833" fill="black"/>
<rect x="504.375" y="192.667" width="3.20833" height="3.20833" fill="black"/>
<rect x="504.375" y="189.458" width="3.20833" height="3.20833" fill="black"/>
<rect x="504.375" y="186.25" width="3.20833" height="3.20833" fill="black"/>
<rect x="504.375" y="183.042" width="3.20833" height="3.20833" fill="black"/>
<rect x="501.167" y="179.833" width="3.20833" height="3.20833" fill="black"/>
<rect x="497.959" y="176.625" width="3.20833" height="3.20833" fill="black"/>
<rect x="346.042" y="172.417" width="3.20833" height="3.20833" fill="black"/>
<rect x="349.25" y="172.417" width="3.20833" height="3.20833" fill="black"/>
<rect x="352.459" y="172.417" width="3.20833" height="3.20833" fill="black"/>
<rect x="355.667" y="172.417" width="3.20833" height="3.20833" fill="black"/>
<rect x="358.875" y="172.417" width="3.20833" height="3.20833" fill="black"/>
<rect x="362.084" y="172.417" width="3.20833" height="3.20833" fill="black"/>
<rect x="365.292" y="172.417" width="3.20833" height="3.20833" fill="black"/>
<rect x="368.5" y="172.417" width="3.20833" height="3.20833" fill="black"/>
<rect x="371.709" y="172.417" width="3.20833" height="3.20833" fill="black"/>
<rect x="374.917" y="172.417" width="3.20833" height="3.20833" fill="black"/>
<rect x="378.125" y="172.417" width="3.20833" height="3.20833" fill="black"/>
<rect x="381.334" y="172.417" width="3.20833" height="3.20833" fill="black"/>
<rect x="384.542" y="172.417" width="3.20833" height="3.20833" fill="black"/>
<rect x="387.75" y="172.417" width="3.20833" height="3.20833" fill="black"/>
<rect x="342.834" y="175.625" width="3.20833" height="3.20833" fill="black"/>
<rect x="339.625" y="178.833" width="3.20833" height="3.20833" fill="black"/>
<rect x="336.417" y="182.042" width="3.20833" height="3.20833" fill="black"/>
<rect x="336.417" y="185.25" width="3.20833" height="3.20833" fill="black"/>
<rect x="336.417" y="188.458" width="3.20833" height="3.20833" fill="black"/>
<rect x="336.417" y="191.667" width="3.20833" height="3.20833" fill="black"/>
<rect x="336.417" y="194.875" width="3.20833" height="3.20833" fill="black"/>
<rect x="336.417" y="198.083" width="3.20833" height="3.20833" fill="black"/>
<rect x="336.417" y="201.292" width="3.20833" height="3.20833" fill="black"/>
<rect x="336.417" y="204.5" width="3.20833" height="3.20833" fill="black"/>
<rect x="336.417" y="207.708" width="3.20833" height="3.20833" fill="black"/>
<rect x="336.417" y="210.917" width="3.20833" height="3.20833" fill="black"/>
<rect x="336.417" y="214.125" width="3.20833" height="3.20833" fill="black"/>
<rect x="336.417" y="217.333" width="3.20833" height="3.20833" fill="black"/>
<rect x="336.417" y="220.542" width="3.20833" height="3.20833" fill="black"/>
<rect x="336.417" y="223.75" width="3.20833" height="3.20833" fill="black"/>
<rect x="339.625" y="226.958" width="3.20833" height="3.20833" fill="black"/>
<rect x="342.834" y="230.167" width="3.20833" height="3.20833" fill="black"/>
<rect x="346.042" y="233.375" width="3.20833" height="3.20833" fill="black"/>
<rect x="349.25" y="233.375" width="3.20833" height="3.20833" fill="black"/>
<rect x="352.459" y="233.375" width="3.20833" height="3.20833" fill="black"/>
<rect x="355.667" y="233.375" width="3.20833" height="3.20833" fill="black"/>
<rect x="358.875" y="233.375" width="3.20833" height="3.20833" fill="black"/>
<rect x="362.084" y="233.375" width="3.20833" height="3.20833" fill="black"/>
<rect x="365.292" y="233.375" width="3.20833" height="3.20833" fill="black"/>
<rect x="368.5" y="233.375" width="3.20833" height="3.20833" fill="black"/>
<rect x="371.709" y="233.375" width="3.20833" height="3.20833" fill="black"/>
<rect x="374.917" y="233.375" width="3.20833" height="3.20833" fill="black"/>
<rect x="378.125" y="233.375" width="3.20833" height="3.20833" fill="black"/>
<rect x="381.334" y="233.375" width="3.20833" height="3.20833" fill="black"/>
<rect x="384.542" y="233.375" width="3.20833" height="3.20833" fill="black"/>
<rect x="387.75" y="233.375" width="3.20833" height="3.20833" fill="black"/>
<rect x="390.959" y="230.167" width="3.20833" height="3.20833" fill="black"/>
<rect x="394.167" y="226.958" width="3.20833" height="3.20833" fill="black"/>
<rect x="397.375" y="223.75" width="3.20833" height="3.20833" fill="black"/>
<rect x="397.375" y="220.542" width="3.20833" height="3.20833" fill="black"/>
<rect x="397.375" y="217.333" width="3.20833" height="3.20833" fill="black"/>
<rect x="397.375" y="214.125" width="3.20833" height="3.20833" fill="black"/>
<rect x="397.375" y="210.917" width="3.20833" height="3.20833" fill="black"/>
<rect x="397.375" y="207.708" width="3.20833" height="3.20833" fill="black"/>
<rect x="397.375" y="204.5" width="3.20833" height="3.20833" fill="black"/>
<rect x="397.375" y="201.292" width="3.20833" height="3.20833" fill="black"/>
<rect x="397.375" y="198.083" width="3.20833" height="3.20833" fill="black"/>
<rect x="397.375" y="194.875" width="3.20833" height="3.20833" fill="black"/>
<rect x="397.375" y="191.667" width="3.20833" height="3.20833" fill="black"/>
<rect x="397.375" y="188.458" width="3.20833" height="3.20833" fill="black"/>
<rect x="397.375" y="185.25" width="3.20833" height="3.20833" fill="black"/>
<rect x="397.375" y="182.042" width="3.20833" height="3.20833" fill="black"/>
<rect x="394.167" y="178.833" width="3.20833" height="3.20833" fill="black"/>
<rect x="390.959" y="175.625" width="3.20833" height="3.20833" fill="black"/>
<rect x="239.042" y="172.417" width="3.20833" height="3.20833" fill="black"/>
<rect x="242.25" y="172.417" width="3.20833" height="3.20833" fill="black"/>
<rect x="245.459" y="172.417" width="3.20833" height="3.20833" fill="black"/>
<rect x="248.667" y="172.417" width="3.20833" height="3.20833" fill="black"/>
<rect x="251.875" y="172.417" width="3.20833" height="3.20833" fill="black"/>
<rect x="255.084" y="172.417" width="3.20833" height="3.20833" fill="black"/>
<rect x="258.292" y="172.417" width="3.20833" height="3.20833" fill="black"/>
<rect x="261.5" y="172.417" width="3.20833" height="3.20833" fill="black"/>
<rect x="264.709" y="172.417" width="3.20833" height="3.20833" fill="black"/>
<rect x="267.917" y="172.417" width="3.20833" height="3.20833" fill="black"/>
<rect x="271.125" y="172.417" width="3.20833" height="3.20833" fill="black"/>
<rect x="274.334" y="172.417" width="3.20833" height="3.20833" fill="black"/>
<rect x="277.542" y="172.417" width="3.20833" height="3.20833" fill="black"/>
<rect x="280.75" y="172.417" width="3.20833" height="3.20833" fill="black"/>
<rect x="235.834" y="175.625" width="3.20833" height="3.20833" fill="black"/>
<rect x="232.625" y="178.833" width="3.20833" height="3.20833" fill="black"/>
<rect x="229.417" y="182.042" width="3.20833" height="3.20833" fill="black"/>
<rect x="229.417" y="185.25" width="3.20833" height="3.20833" fill="black"/>
<rect x="229.417" y="188.458" width="3.20833" height="3.20833" fill="black"/>
<rect x="229.417" y="191.667" width="3.20833" height="3.20833" fill="black"/>
<rect x="229.417" y="194.875" width="3.20833" height="3.20833" fill="black"/>
<rect x="229.417" y="198.083" width="3.20833" height="3.20833" fill="black"/>
<rect x="229.417" y="201.292" width="3.20833" height="3.20833" fill="black"/>
<rect x="229.417" y="204.5" width="3.20833" height="3.20833" fill="black"/>
<rect x="229.417" y="207.708" width="3.20833" height="3.20833" fill="black"/>
<rect x="229.417" y="210.917" width="3.20833" height="3.20833" fill="black"/>
<rect x="229.417" y="214.125" width="3.20833" height="3.20833" fill="black"/>
<rect x="229.417" y="217.333" width="3.20833" height="3.20833" fill="black"/>
<rect x="229.417" y="220.542" width="3.20833" height="3.20833" fill="black"/>
<rect x="229.417" y="223.75" width="3.20833" height="3.20833" fill="black"/>
<rect x="232.625" y="226.958" width="3.20833" height="3.20833" fill="black"/>
<rect x="235.834" y="230.167" width="3.20833" height="3.20833" fill="black"/>
<rect x="239.042" y="233.375" width="3.20833" height="3.20833" fill="black"/>
<rect x="242.25" y="233.375" width="3.20833" height="3.20833" fill="black"/>
<rect x="245.459" y="233.375" width="3.20833" height="3.20833" fill="black"/>
<rect x="248.667" y="233.375" width="3.20833" height="3.20833" fill="black"/>
<rect x="251.875" y="233.375" width="3.20833" height="3.20833" fill="black"/>
<rect x="255.084" y="233.375" width="3.20833" height="3.20833" fill="black"/>
<rect x="258.292" y="233.375" width="3.20833" height="3.20833" fill="black"/>
<rect x="261.5" y="233.375" width="3.20833" height="3.20833" fill="black"/>
<rect x="264.709" y="233.375" width="3.20833" height="3.20833" fill="black"/>
<rect x="267.917" y="233.375" width="3.20833" height="3.20833" fill="black"/>
<rect x="271.125" y="233.375" width="3.20833" height="3.20833" fill="black"/>
<rect x="274.334" y="233.375" width="3.20833" height="3.20833" fill="black"/>
<rect x="277.542" y="233.375" width="3.20833" height="3.20833" fill="black"/>
<rect x="280.75" y="233.375" width="3.20833" height="3.20833" fill="black"/>
<rect x="283.959" y="230.167" width="3.20833" height="3.20833" fill="black"/>
<rect x="287.167" y="226.958" width="3.20833" height="3.20833" fill="black"/>
<rect x="290.375" y="223.75" width="3.20833" height="3.20833" fill="black"/>
<rect x="290.375" y="220.542" width="3.20833" height="3.20833" fill="black"/>
<rect x="290.375" y="217.333" width="3.20833" height="3.20833" fill="black"/>
<rect x="290.375" y="214.125" width="3.20833" height="3.20833" fill="black"/>
<rect x="290.375" y="210.917" width="3.20833" height="3.20833" fill="black"/>
<rect x="290.375" y="207.708" width="3.20833" height="3.20833" fill="black"/>
<rect x="290.375" y="204.5" width="3.20833" height="3.20833" fill="black"/>
<rect x="290.375" y="201.292" width="3.20833" height="3.20833" fill="black"/>
<rect x="290.375" y="198.083" width="3.20833" height="3.20833" fill="black"/>
<rect x="290.375" y="194.875" width="3.20833" height="3.20833" fill="black"/>
<rect x="290.375" y="191.667" width="3.20833" height="3.20833" fill="black"/>
<rect x="290.375" y="188.458" width="3.20833" height="3.20833" fill="black"/>
<rect x="290.375" y="185.25" width="3.20833" height="3.20833" fill="black"/>
<rect x="290.375" y="182.042" width="3.20833" height="3.20833" fill="black"/>
<rect x="287.167" y="178.833" width="3.20833" height="3.20833" fill="black"/>
<rect x="283.959" y="175.625" width="3.20833" height="3.20833" fill="black"/>
<rect x="131.042" y="282.417" width="3.20833" height="3.20833" fill="black"/>
<rect x="134.25" y="282.417" width="3.20833" height="3.20833" fill="black"/>
<rect x="137.459" y="282.417" width="3.20833" height="3.20833" fill="black"/>
<rect x="140.667" y="282.417" width="3.20833" height="3.20833" fill="black"/>
<rect x="143.875" y="282.417" width="3.20833" height="3.20833" fill="black"/>
<rect x="147.084" y="282.417" width="3.20833" height="3.20833" fill="black"/>
<rect x="150.292" y="282.417" width="3.20833" height="3.20833" fill="black"/>
<rect x="153.5" y="282.417" width="3.20833" height="3.20833" fill="black"/>
<rect x="156.709" y="282.417" width="3.20833" height="3.20833" fill="black"/>
<rect x="159.917" y="282.417" width="3.20833" height="3.20833" fill="black"/>
<rect x="163.125" y="282.417" width="3.20833" height="3.20833" fill="black"/>
<rect x="166.334" y="282.417" width="3.20833" height="3.20833" fill="black"/>
<rect x="169.542" y="282.417" width="3.20833" height="3.20833" fill="black"/>
<rect x="172.75" y="282.417" width="3.20833" height="3.20833" fill="black"/>
<rect x="127.834" y="285.625" width="3.20833" height="3.20833" fill="black"/>
<rect x="124.625" y="288.833" width="3.20833" height="3.20833" fill="black"/>
<rect x="121.417" y="292.042" width="3.20833" height="3.20833" fill="black"/>
<rect x="121.417" y="295.25" width="3.20833" height="3.20833" fill="black"/>
<rect x="121.417" y="298.458" width="3.20833" height="3.20833" fill="black"/>
<rect x="121.417" y="301.667" width="3.20833" height="3.20833" fill="black"/>
<rect x="121.417" y="304.875" width="3.20833" height="3.20833" fill="black"/>
<rect x="121.417" y="308.083" width="3.20833" height="3.20833" fill="black"/>
<rect x="121.417" y="311.292" width="3.20833" height="3.20833" fill="black"/>
<rect x="121.417" y="314.5" width="3.20833" height="3.20833" fill="black"/>
<rect x="121.417" y="317.708" width="3.20833" height="3.20833" fill="black"/>
<rect x="121.417" y="320.917" width="3.20833" height="3.20833" fill="black"/>
<rect x="121.417" y="324.125" width="3.20833" height="3.20833" fill="black"/>
<rect x="121.417" y="327.333" width="3.20833" height="3.20833" fill="black"/>
<rect x="121.417" y="330.542" width="3.20833" height="3.20833" fill="black"/>
<rect x="121.417" y="333.75" width="3.20833" height="3.20833" fill="black"/>
<rect x="124.625" y="336.958" width="3.20833" height="3.20833" fill="black"/>
<rect x="127.834" y="340.167" width="3.20833" height="3.20833" fill="black"/>
<rect x="131.042" y="343.375" width="3.20833" height="3.20833" fill="black"/>
<rect x="134.25" y="343.375" width="3.20833" height="3.20833" fill="black"/>
<rect x="137.459" y="343.375" width="3.20833" height="3.20833" fill="black"/>
<rect x="140.667" y="343.375" width="3.20833" height="3.20833" fill="black"/>
<rect x="143.875" y="343.375" width="3.20833" height="3.20833" fill="black"/>
<rect x="147.084" y="343.375" width="3.20833" height="3.20833" fill="black"/>
<rect x="150.292" y="343.375" width="3.20833" height="3.20833" fill="black"/>
<rect x="153.5" y="343.375" width="3.20833" height="3.20833" fill="black"/>
<rect x="156.709" y="343.375" width="3.20833" height="3.20833" fill="black"/>
<rect x="159.917" y="343.375" width="3.20833" height="3.20833" fill="black"/>
<rect x="163.125" y="343.375" width="3.20833" height="3.20833" fill="black"/>
<rect x="166.334" y="343.375" width="3.20833" height="3.20833" fill="black"/>
<rect x="169.542" y="343.375" width="3.20833" height="3.20833" fill="black"/>
<rect x="172.75" y="343.375" width="3.20833" height="3.20833" fill="black"/>
<rect x="175.959" y="340.167" width="3.20833" height="3.20833" fill="black"/>
<rect x="179.167" y="336.958" width="3.20833" height="3.20833" fill="black"/>
<rect x="182.375" y="333.75" width="3.20833" height="3.20833" fill="black"/>
<rect x="182.375" y="330.542" width="3.20833" height="3.20833" fill="black"/>
<rect x="182.375" y="327.333" width="3.20833" height="3.20833" fill="black"/>
<rect x="182.375" y="324.125" width="3.20833" height="3.20833" fill="black"/>
<rect x="182.375" y="320.917" width="3.20833" height="3.20833" fill="black"/>
<rect x="182.375" y="317.708" width="3.20833" height="3.20833" fill="black"/>
<rect x="182.375" y="314.5" width="3.20833" height="3.20833" fill="black"/>
<rect x="182.375" y="311.292" width="3.20833" height="3.20833" fill="black"/>
<rect x="182.375" y="308.083" width="3.20833" height="3.20833" fill="black"/>
<rect x="182.375" y="304.875" width="3.20833" height="3.20833" fill="black"/>
<rect x="182.375" y="301.667" width="3.20833" height="3.20833" fill="black"/>
<rect x="182.375" y="298.458" width="3.20833" height="3.20833" fill="black"/>
<rect x="182.375" y="295.25" width="3.20833" height="3.20833" fill="black"/>
<rect x="182.375" y="292.042" width="3.20833" height="3.20833" fill="black"/>
<rect x="179.167" y="288.833" width="3.20833" height="3.20833" fill="black"/>
<rect x="175.959" y="285.625" width="3.20833" height="3.20833" fill="black"/>
<rect x="559.042" y="283.417" width="3.20833" height="3.20833" fill="black"/>
<rect x="562.25" y="283.417" width="3.20833" height="3.20833" fill="black"/>
<rect x="565.459" y="283.417" width="3.20833" height="3.20833" fill="black"/>
<rect x="568.667" y="283.417" width="3.20833" height="3.20833" fill="black"/>
<rect x="571.875" y="283.417" width="3.20833" height="3.20833" fill="black"/>
<rect x="575.084" y="283.417" width="3.20833" height="3.20833" fill="black"/>
<rect x="578.292" y="283.417" width="3.20833" height="3.20833" fill="black"/>
<rect x="581.5" y="283.417" width="3.20833" height="3.20833" fill="black"/>
<rect x="584.709" y="283.417" width="3.20833" height="3.20833" fill="black"/>
<rect x="587.917" y="283.417" width="3.20833" height="3.20833" fill="black"/>
<rect x="591.125" y="283.417" width="3.20833" height="3.20833" fill="black"/>
<rect x="594.334" y="283.417" width="3.20833" height="3.20833" fill="black"/>
<rect x="597.542" y="283.417" width="3.20833" height="3.20833" fill="black"/>
<rect x="600.75" y="283.417" width="3.20833" height="3.20833" fill="black"/>
<rect x="555.834" y="286.625" width="3.20833" height="3.20833" fill="black"/>
<rect x="552.625" y="289.833" width="3.20833" height="3.20833" fill="black"/>
<rect x="549.417" y="293.042" width="3.20833" height="3.20833" fill="black"/>
<rect x="549.417" y="296.25" width="3.20833" height="3.20833" fill="black"/>
<rect x="549.417" y="299.458" width="3.20833" height="3.20833" fill="black"/>
<rect x="549.417" y="302.667" width="3.20833" height="3.20833" fill="black"/>
<rect x="549.417" y="305.875" width="3.20833" height="3.20833" fill="black"/>
<rect x="549.417" y="309.083" width="3.20833" height="3.20833" fill="black"/>
<rect x="549.417" y="312.292" width="3.20833" height="3.20833" fill="black"/>
<rect x="549.417" y="315.5" width="3.20833" height="3.20833" fill="black"/>
<rect x="549.417" y="318.708" width="3.20833" height="3.20833" fill="black"/>
<rect x="549.417" y="321.917" width="3.20833" height="3.20833" fill="black"/>
<rect x="549.417" y="325.125" width="3.20833" height="3.20833" fill="black"/>
<rect x="549.417" y="328.333" width="3.20833" height="3.20833" fill="black"/>
<rect x="549.417" y="331.542" width="3.20833" height="3.20833" fill="black"/>
<rect x="549.417" y="334.75" width="3.20833" height="3.20833" fill="black"/>
<rect x="552.625" y="337.958" width="3.20833" height="3.20833" fill="black"/>
<rect x="555.834" y="341.167" width="3.20833" height="3.20833" fill="black"/>
<rect x="559.042" y="344.375" width="3.20833" height="3.20833" fill="black"/>
<rect x="562.25" y="344.375" width="3.20833" height="3.20833" fill="black"/>
<rect x="565.459" y="344.375" width="3.20833" height="3.20833" fill="black"/>
<rect x="568.667" y="344.375" width="3.20833" height="3.20833" fill="black"/>
<rect x="571.875" y="344.375" width="3.20833" height="3.20833" fill="black"/>
<rect x="575.084" y="344.375" width="3.20833" height="3.20833" fill="black"/>
<rect x="578.292" y="344.375" width="3.20833" height="3.20833" fill="black"/>
<rect x="581.5" y="344.375" width="3.20833" height="3.20833" fill="black"/>
<rect x="584.709" y="344.375" width="3.20833" height="3.20833" fill="black"/>
<rect x="587.917" y="344.375" width="3.20833" height="3.20833" fill="black"/>
<rect x="591.125" y="344.375" width="3.20833" height="3.20833" fill="black"/>
<rect x="594.334" y="344.375" width="3.20833" height="3.20833" fill="black"/>
<rect x="597.542" y="344.375" width="3.20833" height="3.20833" fill="black"/>
<rect x="600.75" y="344.375" width="3.20833" height="3.20833" fill="black"/>
<rect x="603.959" y="341.167" width="3.20833" height="3.20833" fill="black"/>
<rect x="607.167" y="337.958" width="3.20833" height="3.20833" fill="black"/>
<rect x="610.375" y="334.75" width="3.20833" height="3.20833" fill="black"/>
<rect x="610.375" y="331.542" width="3.20833" height="3.20833" fill="black"/>
<rect x="610.375" y="328.333" width="3.20833" height="3.20833" fill="black"/>
<rect x="610.375" y="325.125" width="3.20833" height="3.20833" fill="black"/>
<rect x="610.375" y="321.917" width="3.20833" height="3.20833" fill="black"/>
<rect x="610.375" y="318.708" width="3.20833" height="3.20833" fill="black"/>
<rect x="610.375" y="315.5" width="3.20833" height="3.20833" fill="black"/>
<rect x="610.375" y="312.292" width="3.20833" height="3.20833" fill="black"/>
<rect x="610.375" y="309.083" width="3.20833" height="3.20833" fill="black"/>
<rect x="610.375" y="305.875" width="3.20833" height="3.20833" fill="black"/>
<rect x="610.375" y="302.667" width="3.20833" height="3.20833" fill="black"/>
<rect x="610.375" y="299.458" width="3.20833" height="3.20833" fill="black"/>
<rect x="610.375" y="296.25" width="3.20833" height="3.20833" fill="black"/>
<rect x="610.375" y="293.042" width="3.20833" height="3.20833" fill="black"/>
<rect x="607.167" y="289.833" width="3.20833" height="3.20833" fill="black"/>
<rect x="603.959" y="286.625" width="3.20833" height="3.20833" fill="black"/>
<rect x="452.042" y="282.417" width="3.20833" height="3.20833" fill="black"/>
<rect x="455.25" y="282.417" width="3.20833" height="3.20833" fill="black"/>
<rect x="458.459" y="282.417" width="3.20833" height="3.20833" fill="black"/>
<rect x="461.667" y="282.417" width="3.20833" height="3.20833" fill="black"/>
<rect x="464.875" y="282.417" width="3.20833" height="3.20833" fill="black"/>
<rect x="468.084" y="282.417" width="3.20833" height="3.20833" fill="black"/>
<rect x="471.292" y="282.417" width="3.20833" height="3.20833" fill="black"/>
<rect x="474.5" y="282.417" width="3.20833" height="3.20833" fill="black"/>
<rect x="477.709" y="282.417" width="3.20833" height="3.20833" fill="black"/>
<rect x="480.917" y="282.417" width="3.20833" height="3.20833" fill="black"/>
<rect x="484.125" y="282.417" width="3.20833" height="3.20833" fill="black"/>
<rect x="487.334" y="282.417" width="3.20833" height="3.20833" fill="black"/>
<rect x="490.542" y="282.417" width="3.20833" height="3.20833" fill="black"/>
<rect x="493.75" y="282.417" width="3.20833" height="3.20833" fill="black"/>
<rect x="448.834" y="285.625" width="3.20833" height="3.20833" fill="black"/>
<rect x="445.625" y="288.833" width="3.20833" height="3.20833" fill="black"/>
<rect x="442.417" y="292.042" width="3.20833" height="3.20833" fill="black"/>
<rect x="442.417" y="295.25" width="3.20833" height="3.20833" fill="black"/>
<rect x="442.417" y="298.458" width="3.20833" height="3.20833" fill="black"/>
<rect x="442.417" y="301.667" width="3.20833" height="3.20833" fill="black"/>
<rect x="442.417" y="304.875" width="3.20833" height="3.20833" fill="black"/>
<rect x="442.417" y="308.083" width="3.20833" height="3.20833" fill="black"/>
<rect x="442.417" y="311.292" width="3.20833" height="3.20833" fill="black"/>
<rect x="442.417" y="314.5" width="3.20833" height="3.20833" fill="black"/>
<rect x="442.417" y="317.708" width="3.20833" height="3.20833" fill="black"/>
<rect x="442.417" y="320.917" width="3.20833" height="3.20833" fill="black"/>
<rect x="442.417" y="324.125" width="3.20833" height="3.20833" fill="black"/>
<rect x="442.417" y="327.333" width="3.20833" height="3.20833" fill="black"/>
<rect x="442.417" y="330.542" width="3.20833" height="3.20833" fill="black"/>
<rect x="442.417" y="333.75" width="3.20833" height="3.20833" fill="black"/>
<rect x="445.625" y="336.958" width="3.20833" height="3.20833" fill="black"/>
<rect x="448.834" y="340.167" width="3.20833" height="3.20833" fill="black"/>
<rect x="452.042" y="343.375" width="3.20833" height="3.20833" fill="black"/>
<rect x="455.25" y="343.375" width="3.20833" height="3.20833" fill="black"/>
<rect x="458.459" y="343.375" width="3.20833" height="3.20833" fill="black"/>
<rect x="461.667" y="343.375" width="3.20833" height="3.20833" fill="black"/>
<rect x="464.875" y="343.375" width="3.20833" height="3.20833" fill="black"/>
<rect x="468.084" y="343.375" width="3.20833" height="3.20833" fill="black"/>
<rect x="471.292" y="343.375" width="3.20833" height="3.20833" fill="black"/>
<rect x="474.5" y="343.375" width="3.20833" height="3.20833" fill="black"/>
<rect x="477.709" y="343.375" width="3.20833" height="3.20833" fill="black"/>
<rect x="480.917" y="343.375" width="3.20833" height="3.20833" fill="black"/>
<rect x="484.125" y="343.375" width="3.20833" height="3.20833" fill="black"/>
<rect x="487.334" y="343.375" width="3.20833" height="3.20833" fill="black"/>
<rect x="490.542" y="343.375" width="3.20833" height="3.20833" fill="black"/>
<rect x="493.75" y="343.375" width="3.20833" height="3.20833" fill="black"/>
<rect x="496.959" y="340.167" width="3.20833" height="3.20833" fill="black"/>
<rect x="500.167" y="336.958" width="3.20833" height="3.20833" fill="black"/>
<rect x="503.375" y="333.75" width="3.20833" height="3.20833" fill="black"/>
<rect x="503.375" y="330.542" width="3.20833" height="3.20833" fill="black"/>
<rect x="503.375" y="327.333" width="3.20833" height="3.20833" fill="black"/>
<rect x="503.375" y="324.125" width="3.20833" height="3.20833" fill="black"/>
<rect x="503.375" y="320.917" width="3.20833" height="3.20833" fill="black"/>
<rect x="503.375" y="317.708" width="3.20833" height="3.20833" fill="black"/>
<rect x="503.375" y="314.5" width="3.20833" height="3.20833" fill="black"/>
<rect x="503.375" y="311.292" width="3.20833" height="3.20833" fill="black"/>
<rect x="503.375" y="308.083" width="3.20833" height="3.20833" fill="black"/>
<rect x="503.375" y="304.875" width="3.20833" height="3.20833" fill="black"/>
<rect x="503.375" y="301.667" width="3.20833" height="3.20833" fill="black"/>
<rect x="503.375" y="298.458" width="3.20833" height="3.20833" fill="black"/>
<rect x="503.375" y="295.25" width="3.20833" height="3.20833" fill="black"/>
<rect x="503.375" y="292.042" width="3.20833" height="3.20833" fill="black"/>
<rect x="500.167" y="288.833" width="3.20833" height="3.20833" fill="black"/>
<rect x="496.959" y="285.625" width="3.20833" height="3.20833" fill="black"/>
<rect x="345.042" y="281.417" width="3.20833" height="3.20833" fill="black"/>
<rect x="348.25" y="281.417" width="3.20833" height="3.20833" fill="black"/>
<rect x="351.459" y="281.417" width="3.20833" height="3.20833" fill="black"/>
<rect x="354.667" y="281.417" width="3.20833" height="3.20833" fill="black"/>
<rect x="357.875" y="281.417" width="3.20833" height="3.20833" fill="black"/>
<rect x="361.084" y="281.417" width="3.20833" height="3.20833" fill="black"/>
<rect x="364.292" y="281.417" width="3.20833" height="3.20833" fill="black"/>
<rect x="367.5" y="281.417" width="3.20833" height="3.20833" fill="black"/>
<rect x="370.709" y="281.417" width="3.20833" height="3.20833" fill="black"/>
<rect x="373.917" y="281.417" width="3.20833" height="3.20833" fill="black"/>
<rect x="377.125" y="281.417" width="3.20833" height="3.20833" fill="black"/>
<rect x="380.334" y="281.417" width="3.20833" height="3.20833" fill="black"/>
<rect x="383.542" y="281.417" width="3.20833" height="3.20833" fill="black"/>
<rect x="386.75" y="281.417" width="3.20833" height="3.20833" fill="black"/>
<rect x="341.834" y="284.625" width="3.20833" height="3.20833" fill="black"/>
<rect x="338.625" y="287.833" width="3.20833" height="3.20833" fill="black"/>
<rect x="335.417" y="291.042" width="3.20833" height="3.20833" fill="black"/>
<rect x="335.417" y="294.25" width="3.20833" height="3.20833" fill="black"/>
<rect x="335.417" y="297.458" width="3.20833" height="3.20833" fill="black"/>
<rect x="335.417" y="300.667" width="3.20833" height="3.20833" fill="black"/>
<rect x="335.417" y="303.875" width="3.20833" height="3.20833" fill="black"/>
<rect x="335.417" y="307.083" width="3.20833" height="3.20833" fill="black"/>
<rect x="335.417" y="310.292" width="3.20833" height="3.20833" fill="black"/>
<rect x="335.417" y="313.5" width="3.20833" height="3.20833" fill="black"/>
<rect x="335.417" y="316.708" width="3.20833" height="3.20833" fill="black"/>
<rect x="335.417" y="319.917" width="3.20833" height="3.20833" fill="black"/>
<rect x="335.417" y="323.125" width="3.20833" height="3.20833" fill="black"/>
<rect x="335.417" y="326.333" width="3.20833" height="3.20833" fill="black"/>
<rect x="335.417" y="329.542" width="3.20833" height="3.20833" fill="black"/>
<rect x="335.417" y="332.75" width="3.20833" height="3.20833" fill="black"/>
<rect x="338.625" y="335.958" width="3.20833" height="3.20833" fill="black"/>
<rect x="341.834" y="339.167" width="3.20833" height="3.20833" fill="black"/>
<rect x="345.042" y="342.375" width="3.20833" height="3.20833" fill="black"/>
<rect x="348.25" y="342.375" width="3.20833" height="3.20833" fill="black"/>
<rect x="351.459" y="342.375" width="3.20833" height="3.20833" fill="black"/>
<rect x="354.667" y="342.375" width="3.20833" height="3.20833" fill="black"/>
<rect x="357.875" y="342.375" width="3.20833" height="3.20833" fill="black"/>
<rect x="361.084" y="342.375" width="3.20833" height="3.20833" fill="black"/>
<rect x="364.292" y="342.375" width="3.20833" height="3.20833" fill="black"/>
<rect x="367.5" y="342.375" width="3.20833" height="3.20833" fill="black"/>
<rect x="370.709" y="342.375" width="3.20833" height="3.20833" fill="black"/>
<rect x="373.917" y="342.375" width="3.20833" height="3.20833" fill="black"/>
<rect x="377.125" y="342.375" width="3.20833" height="3.20833" fill="black"/>
<rect x="380.334" y="342.375" width="3.20833" height="3.20833" fill="black"/>
<rect x="383.542" y="342.375" width="3.20833" height="3.20833" fill="black"/>
<rect x="386.75" y="342.375" width="3.20833" height="3.20833" fill="black"/>
<rect x="389.959" y="339.167" width="3.20833" height="3.20833" fill="black"/>
<rect x="393.167" y="335.958" width="3.20833" height="3.20833" fill="black"/>
<rect x="396.375" y="332.75" width="3.20833" height="3.20833" fill="black"/>
<rect x="396.375" y="329.542" width="3.20833" height="3.20833" fill="black"/>
<rect x="396.375" y="326.333" width="3.20833" height="3.20833" fill="black"/>
<rect x="396.375" y="323.125" width="3.20833" height="3.20833" fill="black"/>
<rect x="396.375" y="319.917" width="3.20833" height="3.20833" fill="black"/>
<rect x="396.375" y="316.708" width="3.20833" height="3.20833" fill="black"/>
<rect x="396.375" y="313.5" width="3.20833" height="3.20833" fill="black"/>
<rect x="396.375" y="310.292" width="3.20833" height="3.20833" fill="black"/>
<rect x="396.375" y="307.083" width="3.20833" height="3.20833" fill="black"/>
<rect x="396.375" y="303.875" width="3.20833" height="3.20833" fill="black"/>
<rect x="396.375" y="300.667" width="3.20833" height="3.20833" fill="black"/>
<rect x="396.375" y="297.458" width="3.20833" height="3.20833" fill="black"/>
<rect x="396.375" y="294.25" width="3.20833" height="3.20833" fill="black"/>
<rect x="396.375" y="291.042" width="3.20833" height="3.20833" fill="black"/>
<rect x="393.167" y="287.833" width="3.20833" height="3.20833" fill="black"/>
<rect x="389.959" y="284.625" width="3.20833" height="3.20833" fill="black"/>
<rect x="238.042" y="281.417" width="3.20833" height="3.20833" fill="black"/>
<rect x="241.25" y="281.417" width="3.20833" height="3.20833" fill="black"/>
<rect x="244.459" y="281.417" width="3.20833" height="3.20833" fill="black"/>
<rect x="247.667" y="281.417" width="3.20833" height="3.20833" fill="black"/>
<rect x="250.875" y="281.417" width="3.20833" height="3.20833" fill="black"/>
<rect x="254.084" y="281.417" width="3.20833" height="3.20833" fill="black"/>
<rect x="257.292" y="281.417" width="3.20833" height="3.20833" fill="black"/>
<rect x="260.5" y="281.417" width="3.20833" height="3.20833" fill="black"/>
<rect x="263.709" y="281.417" width="3.20833" height="3.20833" fill="black"/>
<rect x="266.917" y="281.417" width="3.20833" height="3.20833" fill="black"/>
<rect x="270.125" y="281.417" width="3.20833" height="3.20833" fill="black"/>
<rect x="273.334" y="281.417" width="3.20833" height="3.20833" fill="black"/>
<rect x="276.542" y="281.417" width="3.20833" height="3.20833" fill="black"/>
<rect x="279.75" y="281.417" width="3.20833" height="3.20833" fill="black"/>
<rect x="234.834" y="284.625" width="3.20833" height="3.20833" fill="black"/>
<rect x="231.625" y="287.833" width="3.20833" height="3.20833" fill="black"/>
<rect x="228.417" y="291.042" width="3.20833" height="3.20833" fill="black"/>
<rect x="228.417" y="294.25" width="3.20833" height="3.20833" fill="black"/>
<rect x="228.417" y="297.458" width="3.20833" height="3.20833" fill="black"/>
<rect x="228.417" y="300.667" width="3.20833" height="3.20833" fill="black"/>
<rect x="228.417" y="303.875" width="3.20833" height="3.20833" fill="black"/>
<rect x="228.417" y="307.083" width="3.20833" height="3.20833" fill="black"/>
<rect x="228.417" y="310.292" width="3.20833" height="3.20833" fill="black"/>
<rect x="228.417" y="313.5" width="3.20833" height="3.20833" fill="black"/>
<rect x="228.417" y="316.708" width="3.20833" height="3.20833" fill="black"/>
<rect x="228.417" y="319.917" width="3.20833" height="3.20833" fill="black"/>
<rect x="228.417" y="323.125" width="3.20833" height="3.20833" fill="black"/>
<rect x="228.417" y="326.333" width="3.20833" height="3.20833" fill="black"/>
<rect x="228.417" y="329.542" width="3.20833" height="3.20833" fill="black"/>
<rect x="228.417" y="332.75" width="3.20833" height="3.20833" fill="black"/>
<rect x="231.625" y="335.958" width="3.20833" height="3.20833" fill="black"/>
<rect x="234.834" y="339.167" width="3.20833" height="3.20833" fill="black"/>
<rect x="238.042" y="342.375" width="3.20833" height="3.20833" fill="black"/>
<rect x="241.25" y="342.375" width="3.20833" height="3.20833" fill="black"/>
<rect x="244.459" y="342.375" width="3.20833" height="3.20833" fill="black"/>
<rect x="247.667" y="342.375" width="3.20833" height="3.20833" fill="black"/>
<rect x="250.875" y="342.375" width="3.20833" height="3.20833" fill="black"/>
<rect x="254.084" y="342.375" width="3.20833" height="3.20833" fill="black"/>
<rect x="257.292" y="342.375" width="3.20833" height="3.20833" fill="black"/>
<rect x="260.5" y="342.375" width="3.20833" height="3.20833" fill="black"/>
<rect x="263.709" y="342.375" width="3.20833" height="3.20833" fill="black"/>
<rect x="266.917" y="342.375" width="3.20833" height="3.20833" fill="black"/>
<rect x="270.125" y="342.375" width="3.20833" height="3.20833" fill="black"/>
<rect x="273.334" y="342.375" width="3.20833" height="3.20833" fill="black"/>
<rect x="276.542" y="342.375" width="3.20833" height="3.20833" fill="black"/>
<rect x="279.75" y="342.375" width="3.20833" height="3.20833" fill="black"/>
<rect x="282.959" y="339.167" width="3.20833" height="3.20833" fill="black"/>
<rect x="286.167" y="335.958" width="3.20833" height="3.20833" fill="black"/>
<rect x="289.375" y="332.75" width="3.20833" height="3.20833" fill="black"/>
<rect x="289.375" y="329.542" width="3.20833" height="3.20833" fill="black"/>
<rect x="289.375" y="326.333" width="3.20833" height="3.20833" fill="black"/>
<rect x="289.375" y="323.125" width="3.20833" height="3.20833" fill="black"/>
<rect x="289.375" y="319.917" width="3.20833" height="3.20833" fill="black"/>
<rect x="289.375" y="316.708" width="3.20833" height="3.20833" fill="black"/>
<rect x="289.375" y="313.5" width="3.20833" height="3.20833" fill="black"/>
<rect x="289.375" y="310.292" width="3.20833" height="3.20833" fill="black"/>
<rect x="289.375" y="307.083" width="3.20833" height="3.20833" fill="black"/>
<rect x="289.375" y="303.875" width="3.20833" height="3.20833" fill="black"/>
<rect x="289.375" y="300.667" width="3.20833" height="3.20833" fill="black"/>
<rect x="289.375" y="297.458" width="3.20833" height="3.20833" fill="black"/>
<rect x="289.375" y="294.25" width="3.20833" height="3.20833" fill="black"/>
<rect x="289.375" y="291.042" width="3.20833" height="3.20833" fill="black"/>
<rect x="286.167" y="287.833" width="3.20833" height="3.20833" fill="black"/>
<rect x="282.959" y="284.625" width="3.20833" height="3.20833" fill="black"/>
<rect x="130.042" y="391.417" width="3.20833" height="3.20833" fill="black"/>
<rect x="133.25" y="391.417" width="3.20833" height="3.20833" fill="black"/>
<rect x="136.459" y="391.417" width="3.20833" height="3.20833" fill="black"/>
<rect x="139.667" y="391.417" width="3.20833" height="3.20833" fill="black"/>
<rect x="142.875" y="391.417" width="3.20833" height="3.20833" fill="black"/>
<rect x="146.084" y="391.417" width="3.20833" height="3.20833" fill="black"/>
<rect x="149.292" y="391.417" width="3.20833" height="3.20833" fill="black"/>
<rect x="152.5" y="391.417" width="3.20833" height="3.20833" fill="black"/>
<rect x="155.709" y="391.417" width="3.20833" height="3.20833" fill="black"/>
<rect x="158.917" y="391.417" width="3.20833" height="3.20833" fill="black"/>
<rect x="162.125" y="391.417" width="3.20833" height="3.20833" fill="black"/>
<rect x="165.334" y="391.417" width="3.20833" height="3.20833" fill="black"/>
<rect x="168.542" y="391.417" width="3.20833" height="3.20833" fill="black"/>
<rect x="171.75" y="391.417" width="3.20833" height="3.20833" fill="black"/>
<rect x="126.834" y="394.625" width="3.20833" height="3.20833" fill="black"/>
<rect x="123.625" y="397.833" width="3.20833" height="3.20833" fill="black"/>
<rect x="120.417" y="401.042" width="3.20833" height="3.20833" fill="black"/>
<rect x="120.417" y="404.25" width="3.20833" height="3.20833" fill="black"/>
<rect x="120.417" y="407.458" width="3.20833" height="3.20833" fill="black"/>
<rect x="120.417" y="410.667" width="3.20833" height="3.20833" fill="black"/>
<rect x="120.417" y="413.875" width="3.20833" height="3.20833" fill="black"/>
<rect x="120.417" y="417.083" width="3.20833" height="3.20833" fill="black"/>
<rect x="120.417" y="420.292" width="3.20833" height="3.20833" fill="black"/>
<rect x="120.417" y="423.5" width="3.20833" height="3.20833" fill="black"/>
<rect x="120.417" y="426.708" width="3.20833" height="3.20833" fill="black"/>
<rect x="120.417" y="429.917" width="3.20833" height="3.20833" fill="black"/>
<rect x="120.417" y="433.125" width="3.20833" height="3.20833" fill="black"/>
<rect x="120.417" y="436.333" width="3.20833" height="3.20833" fill="black"/>
<rect x="120.417" y="439.542" width="3.20833" height="3.20833" fill="black"/>
<rect x="120.417" y="442.75" width="3.20833" height="3.20833" fill="black"/>
<rect x="123.625" y="445.958" width="3.20833" height="3.20833" fill="black"/>
<rect x="126.834" y="449.167" width="3.20833" height="3.20833" fill="black"/>
<rect x="130.042" y="452.375" width="3.20833" height="3.20833" fill="black"/>
<rect x="133.25" y="452.375" width="3.20833" height="3.20833" fill="black"/>
<rect x="136.459" y="452.375" width="3.20833" height="3.20833" fill="black"/>
<rect x="139.667" y="452.375" width="3.20833" height="3.20833" fill="black"/>
<rect x="142.875" y="452.375" width="3.20833" height="3.20833" fill="black"/>
<rect x="146.084" y="452.375" width="3.20833" height="3.20833" fill="black"/>
<rect x="149.292" y="452.375" width="3.20833" height="3.20833" fill="black"/>
<rect x="152.5" y="452.375" width="3.20833" height="3.20833" fill="black"/>
<rect x="155.709" y="452.375" width="3.20833" height="3.20833" fill="black"/>
<rect x="158.917" y="452.375" width="3.20833" height="3.20833" fill="black"/>
<rect x="162.125" y="452.375" width="3.20833" height="3.20833" fill="black"/>
<rect x="165.334" y="452.375" width="3.20833" height="3.20833" fill="black"/>
<rect x="168.542" y="452.375" width="3.20833" height="3.20833" fill="black"/>
<rect x="171.75" y="452.375" width="3.20833" height="3.20833" fill="black"/>
<rect x="174.959" y="449.167" width="3.20833" height="3.20833" fill="black"/>
<rect x="178.167" y="445.958" width="3.20833" height="3.20833" fill="black"/>
<rect x="181.375" y="442.75" width="3.20833" height="3.20833" fill="black"/>
<rect x="181.375" y="439.542" width="3.20833" height="3.20833" fill="black"/>
<rect x="181.375" y="436.333" width="3.20833" height="3.20833" fill="black"/>
<rect x="181.375" y="433.125" width="3.20833" height="3.20833" fill="black"/>
<rect x="181.375" y="429.917" width="3.20833" height="3.20833" fill="black"/>
<rect x="181.375" y="426.708" width="3.20833" height="3.20833" fill="black"/>
<rect x="181.375" y="423.5" width="3.20833" height="3.20833" fill="black"/>
<rect x="181.375" y="420.292" width="3.20833" height="3.20833" fill="black"/>
<rect x="181.375" y="417.083" width="3.20833" height="3.20833" fill="black"/>
<rect x="181.375" y="413.875" width="3.20833" height="3.20833" fill="black"/>
<rect x="181.375" y="410.667" width="3.20833" height="3.20833" fill="black"/>
<rect x="181.375" y="407.458" width="3.20833" height="3.20833" fill="black"/>
<rect x="181.375" y="404.25" width="3.20833" height="3.20833" fill="black"/>
<rect x="181.375" y="401.042" width="3.20833" height="3.20833" fill="black"/>
<rect x="178.167" y="397.833" width="3.20833" height="3.20833" fill="black"/>
<rect x="174.959" y="394.625" width="3.20833" height="3.20833" fill="black"/>
<rect x="558.042" y="392.417" width="3.20833" height="3.20833" fill="black"/>
<rect x="561.25" y="392.417" width="3.20833" height="3.20833" fill="black"/>
<rect x="564.459" y="392.417" width="3.20833" height="3.20833" fill="black"/>
<rect x="567.667" y="392.417" width="3.20833" height="3.20833" fill="black"/>
<rect x="570.875" y="392.417" width="3.20833" height="3.20833" fill="black"/>
<rect x="574.084" y="392.417" width="3.20833" height="3.20833" fill="black"/>
<rect x="577.292" y="392.417" width="3.20833" height="3.20833" fill="black"/>
<rect x="580.5" y="392.417" width="3.20833" height="3.20833" fill="black"/>
<rect x="583.709" y="392.417" width="3.20833" height="3.20833" fill="black"/>
<rect x="586.917" y="392.417" width="3.20833" height="3.20833" fill="black"/>
<rect x="590.125" y="392.417" width="3.20833" height="3.20833" fill="black"/>
<rect x="593.334" y="392.417" width="3.20833" height="3.20833" fill="black"/>
<rect x="596.542" y="392.417" width="3.20833" height="3.20833" fill="black"/>
<rect x="599.75" y="392.417" width="3.20833" height="3.20833" fill="black"/>
<rect x="554.834" y="395.625" width="3.20833" height="3.20833" fill="black"/>
<rect x="551.625" y="398.833" width="3.20833" height="3.20833" fill="black"/>
<rect x="548.417" y="402.042" width="3.20833" height="3.20833" fill="black"/>
<rect x="548.417" y="405.25" width="3.20833" height="3.20833" fill="black"/>
<rect x="548.417" y="408.458" width="3.20833" height="3.20833" fill="black"/>
<rect x="548.417" y="411.667" width="3.20833" height="3.20833" fill="black"/>
<rect x="548.417" y="414.875" width="3.20833" height="3.20833" fill="black"/>
<rect x="548.417" y="418.083" width="3.20833" height="3.20833" fill="black"/>
<rect x="548.417" y="421.292" width="3.20833" height="3.20833" fill="black"/>
<rect x="548.417" y="424.5" width="3.20833" height="3.20833" fill="black"/>
<rect x="548.417" y="427.708" width="3.20833" height="3.20833" fill="black"/>
<rect x="548.417" y="430.917" width="3.20833" height="3.20833" fill="black"/>
<rect x="548.417" y="434.125" width="3.20833" height="3.20833" fill="black"/>
<rect x="548.417" y="437.333" width="3.20833" height="3.20833" fill="black"/>
<rect x="548.417" y="440.542" width="3.20833" height="3.20833" fill="black"/>
<rect x="548.417" y="443.75" width="3.20833" height="3.20833" fill="black"/>
<rect x="551.625" y="446.958" width="3.20833" height="3.20833" fill="black"/>
<rect x="554.834" y="450.167" width="3.20833" height="3.20833" fill="black"/>
<rect x="558.042" y="453.375" width="3.20833" height="3.20833" fill="black"/>
<rect x="561.25" y="453.375" width="3.20833" height="3.20833" fill="black"/>
<rect x="564.459" y="453.375" width="3.20833" height="3.20833" fill="black"/>
<rect x="567.667" y="453.375" width="3.20833" height="3.20833" fill="black"/>
<rect x="570.875" y="453.375" width="3.20833" height="3.20833" fill="black"/>
<rect x="574.084" y="453.375" width="3.20833" height="3.20833" fill="black"/>
<rect x="577.292" y="453.375" width="3.20833" height="3.20833" fill="black"/>
<rect x="580.5" y="453.375" width="3.20833" height="3.20833" fill="black"/>
<rect x="583.709" y="453.375" width="3.20833" height="3.20833" fill="black"/>
<rect x="586.917" y="453.375" width="3.20833" height="3.20833" fill="black"/>
<rect x="590.125" y="453.375" width="3.20833" height="3.20833" fill="black"/>
<rect x="593.334" y="453.375" width="3.20833" height="3.20833" fill="black"/>
<rect x="596.542" y="453.375" width="3.20833" height="3.20833" fill="black"/>
<rect x="599.75" y="453.375" width="3.20833" height="3.20833" fill="black"/>
<rect x="602.959" y="450.167" width="3.20833" height="3.20833" fill="black"/>
<rect x="606.167" y="446.958" width="3.20833" height="3.20833" fill="black"/>
<rect x="609.375" y="443.75" width="3.20833" height="3.20833" fill="black"/>
<rect x="609.375" y="440.542" width="3.20833" height="3.20833" fill="black"/>
<rect x="609.375" y="437.333" width="3.20833" height="3.20833" fill="black"/>
<rect x="609.375" y="434.125" width="3.20833" height="3.20833" fill="black"/>
<rect x="609.375" y="430.917" width="3.20833" height="3.20833" fill="black"/>
<rect x="609.375" y="427.708" width="3.20833" height="3.20833" fill="black"/>
<rect x="609.375" y="424.5" width="3.20833" height="3.20833" fill="black"/>
<rect x="609.375" y="421.292" width="3.20833" height="3.20833" fill="black"/>
<rect x="609.375" y="418.083" width="3.20833" height="3.20833" fill="black"/>
<rect x="609.375" y="414.875" width="3.20833" height="3.20833" fill="black"/>
<rect x="609.375" y="411.667" width="3.20833" height="3.20833" fill="black"/>
<rect x="609.375" y="408.458" width="3.20833" height="3.20833" fill="black"/>
<rect x="609.375" y="405.25" width="3.20833" height="3.20833" fill="black"/>
<rect x="609.375" y="402.042" width="3.20833" height="3.20833" fill="black"/>
<rect x="606.167" y="398.833" width="3.20833" height="3.20833" fill="black"/>
<rect x="602.959" y="395.625" width="3.20833" height="3.20833" fill="black"/>
<rect x="451.042" y="391.417" width="3.20833" height="3.20833" fill="black"/>
<rect x="454.25" y="391.417" width="3.20833" height="3.20833" fill="black"/>
<rect x="457.459" y="391.417" width="3.20833" height="3.20833" fill="black"/>
<rect x="460.667" y="391.417" width="3.20833" height="3.20833" fill="black"/>
<rect x="463.875" y="391.417" width="3.20833" height="3.20833" fill="black"/>
<rect x="467.084" y="391.417" width="3.20833" height="3.20833" fill="black"/>
<rect x="470.292" y="391.417" width="3.20833" height="3.20833" fill="black"/>
<rect x="473.5" y="391.417" width="3.20833" height="3.20833" fill="black"/>
<rect x="476.709" y="391.417" width="3.20833" height="3.20833" fill="black"/>
<rect x="479.917" y="391.417" width="3.20833" height="3.20833" fill="black"/>
<rect x="483.125" y="391.417" width="3.20833" height="3.20833" fill="black"/>
<rect x="486.334" y="391.417" width="3.20833" height="3.20833" fill="black"/>
<rect x="489.542" y="391.417" width="3.20833" height="3.20833" fill="black"/>
<rect x="492.75" y="391.417" width="3.20833" height="3.20833" fill="black"/>
<rect x="447.834" y="394.625" width="3.20833" height="3.20833" fill="black"/>
<rect x="444.625" y="397.833" width="3.20833" height="3.20833" fill="black"/>
<rect x="441.417" y="401.042" width="3.20833" height="3.20833" fill="black"/>
<rect x="441.417" y="404.25" width="3.20833" height="3.20833" fill="black"/>
<rect x="441.417" y="407.458" width="3.20833" height="3.20833" fill="black"/>
<rect x="441.417" y="410.667" width="3.20833" height="3.20833" fill="black"/>
<rect x="441.417" y="413.875" width="3.20833" height="3.20833" fill="black"/>
<rect x="441.417" y="417.083" width="3.20833" height="3.20833" fill="black"/>
<rect x="441.417" y="420.292" width="3.20833" height="3.20833" fill="black"/>
<rect x="441.417" y="423.5" width="3.20833" height="3.20833" fill="black"/>
<rect x="441.417" y="426.708" width="3.20833" height="3.20833" fill="black"/>
<rect x="441.417" y="429.917" width="3.20833" height="3.20833" fill="black"/>
<rect x="441.417" y="433.125" width="3.20833" height="3.20833" fill="black"/>
<rect x="441.417" y="436.333" width="3.20833" height="3.20833" fill="black"/>
<rect x="441.417" y="439.542" width="3.20833" height="3.20833" fill="black"/>
<rect x="441.417" y="442.75" width="3.20833" height="3.20833" fill="black"/>
<rect x="444.625" y="445.958" width="3.20833" height="3.20833" fill="black"/>
<rect x="447.834" y="449.167" width="3.20833" height="3.20833" fill="black"/>
<rect x="451.042" y="452.375" width="3.20833" height="3.20833" fill="black"/>
<rect x="454.25" y="452.375" width="3.20833" height="3.20833" fill="black"/>
<rect x="457.459" y="452.375" width="3.20833" height="3.20833" fill="black"/>
<rect x="460.667" y="452.375" width="3.20833" height="3.20833" fill="black"/>
<rect x="463.875" y="452.375" width="3.20833" height="3.20833" fill="black"/>
<rect x="467.084" y="452.375" width="3.20833" height="3.20833" fill="black"/>
<rect x="470.292" y="452.375" width="3.20833" height="3.20833" fill="black"/>
<rect x="473.5" y="452.375" width="3.20833" height="3.20833" fill="black"/>
<rect x="476.709" y="452.375" width="3.20833" height="3.20833" fill="black"/>
<rect x="479.917" y="452.375" width="3.20833" height="3.20833" fill="black"/>
<rect x="483.125" y="452.375" width="3.20833" height="3.20833" fill="black"/>
<rect x="486.334" y="452.375" width="3.20833" height="3.20833" fill="black"/>
<rect x="489.542" y="452.375" width="3.20833" height="3.20833" fill="black"/>
<rect x="492.75" y="452.375" width="3.20833" height="3.20833" fill="black"/>
<rect x="495.959" y="449.167" width="3.20833" height="3.20833" fill="black"/>
<rect x="499.167" y="445.958" width="3.20833" height="3.20833" fill="black"/>
<rect x="502.375" y="442.75" width="3.20833" height="3.20833" fill="black"/>
<rect x="502.375" y="439.542" width="3.20833" height="3.20833" fill="black"/>
<rect x="502.375" y="436.333" width="3.20833" height="3.20833" fill="black"/>
<rect x="502.375" y="433.125" width="3.20833" height="3.20833" fill="black"/>
<rect x="502.375" y="429.917" width="3.20833" height="3.20833" fill="black"/>
<rect x="502.375" y="426.708" width="3.20833" height="3.20833" fill="black"/>
<rect x="502.375" y="423.5" width="3.20833" height="3.20833" fill="black"/>
<rect x="502.375" y="420.292" width="3.20833" height="3.20833" fill="black"/>
<rect x="502.375" y="417.083" width="3.20833" height="3.20833" fill="black"/>
<rect x="502.375" y="413.875" width="3.20833" height="3.20833" fill="black"/>
<rect x="502.375" y="410.667" width="3.20833" height="3.20833" fill="black"/>
<rect x="502.375" y="407.458" width="3.20833" height="3.20833" fill="black"/>
<rect x="502.375" y="404.25" width="3.20833" height="3.20833" fill="black"/>
<rect x="502.375" y="401.042" width="3.20833" height="3.20833" fill="black"/>
<rect x="499.167" y="397.833" width="3.20833" height="3.20833" fill="black"/>
<rect x="495.959" y="394.625" width="3.20833" height="3.20833" fill="black"/>
<rect x="344.042" y="390.417" width="3.20833" height="3.20833" fill="black"/>
<rect x="347.25" y="390.417" width="3.20833" height="3.20833" fill="black"/>
<rect x="350.459" y="390.417" width="3.20833" height="3.20833" fill="black"/>
<rect x="353.667" y="390.417" width="3.20833" height="3.20833" fill="black"/>
<rect x="356.875" y="390.417" width="3.20833" height="3.20833" fill="black"/>
<rect x="360.084" y="390.417" width="3.20833" height="3.20833" fill="black"/>
<rect x="363.292" y="390.417" width="3.20833" height="3.20833" fill="black"/>
<rect x="366.5" y="390.417" width="3.20833" height="3.20833" fill="black"/>
<rect x="369.709" y="390.417" width="3.20833" height="3.20833" fill="black"/>
<rect x="372.917" y="390.417" width="3.20833" height="3.20833" fill="black"/>
<rect x="376.125" y="390.417" width="3.20833" height="3.20833" fill="black"/>
<rect x="379.334" y="390.417" width="3.20833" height="3.20833" fill="black"/>
<rect x="382.542" y="390.417" width="3.20833" height="3.20833" fill="black"/>
<rect x="385.75" y="390.417" width="3.20833" height="3.20833" fill="black"/>
<rect x="340.834" y="393.625" width="3.20833" height="3.20833" fill="black"/>
<rect x="337.625" y="396.833" width="3.20833" height="3.20833" fill="black"/>
<rect x="334.417" y="400.042" width="3.20833" height="3.20833" fill="black"/>
<rect x="334.417" y="403.25" width="3.20833" height="3.20833" fill="black"/>
<rect x="334.417" y="406.458" width="3.20833" height="3.20833" fill="black"/>
<rect x="334.417" y="409.667" width="3.20833" height="3.20833" fill="black"/>
<rect x="334.417" y="412.875" width="3.20833" height="3.20833" fill="black"/>
<rect x="334.417" y="416.083" width="3.20833" height="3.20833" fill="black"/>
<rect x="334.417" y="419.292" width="3.20833" height="3.20833" fill="black"/>
<rect x="334.417" y="422.5" width="3.20833" height="3.20833" fill="black"/>
<rect x="334.417" y="425.708" width="3.20833" height="3.20833" fill="black"/>
<rect x="334.417" y="428.917" width="3.20833" height="3.20833" fill="black"/>
<rect x="334.417" y="432.125" width="3.20833" height="3.20833" fill="black"/>
<rect x="334.417" y="435.333" width="3.20833" height="3.20833" fill="black"/>
<rect x="334.417" y="438.542" width="3.20833" height="3.20833" fill="black"/>
<rect x="334.417" y="441.75" width="3.20833" height="3.20833" fill="black"/>
<rect x="337.625" y="444.958" width="3.20833" height="3.20833" fill="black"/>
<rect x="340.834" y="448.167" width="3.20833" height="3.20833" fill="black"/>
<rect x="344.042" y="451.375" width="3.20833" height="3.20833" fill="black"/>
<rect x="347.25" y="451.375" width="3.20833" height="3.20833" fill="black"/>
<rect x="350.459" y="451.375" width="3.20833" height="3.20833" fill="black"/>
<rect x="353.667" y="451.375" width="3.20833" height="3.20833" fill="black"/>
<rect x="356.875" y="451.375" width="3.20833" height="3.20833" fill="black"/>
<rect x="360.084" y="451.375" width="3.20833" height="3.20833" fill="black"/>
<rect x="363.292" y="451.375" width="3.20833" height="3.20833" fill="black"/>
<rect x="366.5" y="451.375" width="3.20833" height="3.20833" fill="black"/>
<rect x="369.709" y="451.375" width="3.20833" height="3.20833" fill="black"/>
<rect x="372.917" y="451.375" width="3.20833" height="3.20833" fill="black"/>
<rect x="376.125" y="451.375" width="3.20833" height="3.20833" fill="black"/>
<rect x="379.334" y="451.375" width="3.20833" height="3.20833" fill="black"/>
<rect x="382.542" y="451.375" width="3.20833" height="3.20833" fill="black"/>
<rect x="385.75" y="451.375" width="3.20833" height="3.20833" fill="black"/>
<rect x="388.959" y="448.167" width="3.20833" height="3.20833" fill="black"/>
<rect x="392.167" y="444.958" width="3.20833" height="3.20833" fill="black"/>
<rect x="395.375" y="441.75" width="3.20833" height="3.20833" fill="black"/>
<rect x="395.375" y="438.542" width="3.20833" height="3.20833" fill="black"/>
<rect x="395.375" y="435.333" width="3.20833" height="3.20833" fill="black"/>
<rect x="395.375" y="432.125" width="3.20833" height="3.20833" fill="black"/>
<rect x="395.375" y="428.917" width="3.20833" height="3.20833" fill="black"/>
<rect x="395.375" y="425.708" width="3.20833" height="3.20833" fill="black"/>
<rect x="395.375" y="422.5" width="3.20833" height="3.20833" fill="black"/>
<rect x="395.375" y="419.292" width="3.20833" height="3.20833" fill="black"/>
<rect x="395.375" y="416.083" width="3.20833" height="3.20833" fill="black"/>
<rect x="395.375" y="412.875" width="3.20833" height="3.20833" fill="black"/>
<rect x="395.375" y="409.667" width="3.20833" height="3.20833" fill="black"/>
<rect x="395.375" y="406.458" width="3.20833" height="3.20833" fill="black"/>
<rect x="395.375" y="403.25" width="3.20833" height="3.20833" fill="black"/>
<rect x="395.375" y="400.042" width="3.20833" height="3.20833" fill="black"/>
<rect x="392.167" y="396.833" width="3.20833" height="3.20833" fill="black"/>
<rect x="388.959" y="393.625" width="3.20833" height="3.20833" fill="black"/>
<rect x="237.042" y="390.417" width="3.20833" height="3.20833" fill="black"/>
<rect x="240.25" y="390.417" width="3.20833" height="3.20833" fill="black"/>
<rect x="243.459" y="390.417" width="3.20833" height="3.20833" fill="black"/>
<rect x="246.667" y="390.417" width="3.20833" height="3.20833" fill="black"/>
<rect x="249.875" y="390.417" width="3.20833" height="3.20833" fill="black"/>
<rect x="253.084" y="390.417" width="3.20833" height="3.20833" fill="black"/>
<rect x="256.292" y="390.417" width="3.20833" height="3.20833" fill="black"/>
<rect x="259.5" y="390.417" width="3.20833" height="3.20833" fill="black"/>
<rect x="262.709" y="390.417" width="3.20833" height="3.20833" fill="black"/>
<rect x="265.917" y="390.417" width="3.20833" height="3.20833" fill="black"/>
<rect x="269.125" y="390.417" width="3.20833" height="3.20833" fill="black"/>
<rect x="272.334" y="390.417" width="3.20833" height="3.20833" fill="black"/>
<rect x="275.542" y="390.417" width="3.20833" height="3.20833" fill="black"/>
<rect x="278.75" y="390.417" width="3.20833" height="3.20833" fill="black"/>
<rect x="233.834" y="393.625" width="3.20833" height="3.20833" fill="black"/>
<rect x="230.625" y="396.833" width="3.20833" height="3.20833" fill="black"/>
<rect x="227.417" y="400.042" width="3.20833" height="3.20833" fill="black"/>
<rect x="227.417" y="403.25" width="3.20833" height="3.20833" fill="black"/>
<rect x="227.417" y="406.458" width="3.20833" height="3.20833" fill="black"/>
<rect x="227.417" y="409.667" width="3.20833" height="3.20833" fill="black"/>
<rect x="227.417" y="412.875" width="3.20833" height="3.20833" fill="black"/>
<rect x="227.417" y="416.083" width="3.20833" height="3.20833" fill="black"/>
<rect x="227.417" y="419.292" width="3.20833" height="3.20833" fill="black"/>
<rect x="227.417" y="422.5" width="3.20833" height="3.20833" fill="black"/>
<rect x="227.417" y="425.708" width="3.20833" height="3.20833" fill="black"/>
<rect x="227.417" y="428.917" width="3.20833" height="3.20833" fill="black"/>
<rect x="227.417" y="432.125" width="3.20833" height="3.20833" fill="black"/>
<rect x="227.417" y="435.333" width="3.20833" height="3.20833" fill="black"/>
<rect x="227.417" y="438.542" width="3.20833" height="3.20833" fill="black"/>
<rect x="227.417" y="441.75" width="3.20833" height="3.20833" fill="black"/>
<rect x="230.625" y="444.958" width="3.20833" height="3.20833" fill="black"/>
<rect x="233.834" y="448.167" width="3.20833" height="3.20833" fill="black"/>
<rect x="237.042" y="451.375" width="3.20833" height="3.20833" fill="black"/>
<rect x="240.25" y="451.375" width="3.20833" height="3.20833" fill="black"/>
<rect x="243.459" y="451.375" width="3.20833" height="3.20833" fill="black"/>
<rect x="246.667" y="451.375" width="3.20833" height="3.20833" fill="black"/>
<rect x="249.875" y="451.375" width="3.20833" height="3.20833" fill="black"/>
<rect x="253.084" y="451.375" width="3.20833" height="3.20833" fill="black"/>
<rect x="256.292" y="451.375" width="3.20833" height="3.20833" fill="black"/>
<rect x="259.5" y="451.375" width="3.20833" height="3.20833" fill="black"/>
<rect x="262.709" y="451.375" width="3.20833" height="3.20833" fill="black"/>
<rect x="265.917" y="451.375" width="3.20833" height="3.20833" fill="black"/>
<rect x="269.125" y="451.375" width="3.20833" height="3.20833" fill="black"/>
<rect x="272.334" y="451.375" width="3.20833" height="3.20833" fill="black"/>
<rect x="275.542" y="451.375" width="3.20833" height="3.20833" fill="black"/>
<rect x="278.75" y="451.375" width="3.20833" height="3.20833" fill="black"/>
<rect x="281.959" y="448.167" width="3.20833" height="3.20833" fill="black"/>
<rect x="285.167" y="444.958" width="3.20833" height="3.20833" fill="black"/>
<rect x="288.375" y="441.75" width="3.20833" height="3.20833" fill="black"/>
<rect x="288.375" y="438.542" width="3.20833" height="3.20833" fill="black"/>
<rect x="288.375" y="435.333" width="3.20833" height="3.20833" fill="black"/>
<rect x="288.375" y="432.125" width="3.20833" height="3.20833" fill="black"/>
<rect x="288.375" y="428.917" width="3.20833" height="3.20833" fill="black"/>
<rect x="288.375" y="425.708" width="3.20833" height="3.20833" fill="black"/>
<rect x="288.375" y="422.5" width="3.20833" height="3.20833" fill="black"/>
<rect x="288.375" y="419.292" width="3.20833" height="3.20833" fill="black"/>
<rect x="288.375" y="416.083" width="3.20833" height="3.20833" fill="black"/>
<rect x="288.375" y="412.875" width="3.20833" height="3.20833" fill="black"/>
<rect x="288.375" y="409.667" width="3.20833" height="3.20833" fill="black"/>
<rect x="288.375" y="406.458" width="3.20833" height="3.20833" fill="black"/>
<rect x="288.375" y="403.25" width="3.20833" height="3.20833" fill="black"/>
<rect x="288.375" y="400.042" width="3.20833" height="3.20833" fill="black"/>
<rect x="285.167" y="396.833" width="3.20833" height="3.20833" fill="black"/>
<rect x="281.959" y="393.625" width="3.20833" height="3.20833" fill="black"/>
</svg>
