<svg width="760" height="596" viewBox="0 0 760 596" fill="none" xmlns="http://www.w3.org/2000/svg">
<rect x="60.2949" y="581.626" width="168.826" height="13.5261" fill="#B8A590"/>
<rect x="229.117" y="568.099" width="156.767" height="13.5261" fill="#B8A590"/>
<rect x="385.881" y="581.626" width="168.826" height="13.5261" fill="#B8A590"/>
<rect x="554.705" y="568.099" width="60.2955" height="13.5261" fill="#B8A590"/>
<rect x="614.996" y="581.626" width="108.531" height="13.5261" fill="#B8A590"/>
<rect width="12.0591" height="324.626" transform="matrix(-1 0 0 1 24.1172 81.1636)" fill="#B8A590"/>
<rect x="24.1172" y="405.792" width="12.0591" height="162.313" fill="#B8A590"/>
<rect x="723.53" y="486.945" width="12.0591" height="94.6825" fill="#B8A590"/>
<rect x="735.589" y="216.426" width="12.0591" height="270.521" fill="#B8A590"/>
<rect x="723.53" y="175.849" width="12.0591" height="40.5782" fill="#B8A590"/>
<rect x="711.471" y="135.267" width="12.0591" height="40.5782" fill="#B8A590"/>
<rect x="723.53" y="121.74" width="24.1182" height="13.5261" fill="#B8A590"/>
<rect x="747.646" y="40.582" width="12.0591" height="81.1564" fill="#B8A590"/>
<rect x="735.589" y="27.0598" width="12.0591" height="13.5261" fill="#B8A590"/>
<rect x="530.586" y="13.5325" width="205.001" height="13.5261" fill="#B8A590"/>
<rect x="446.176" y="27.0598" width="84.4126" height="13.5261" fill="#B8A590"/>
<rect x="108.527" y="13.5325" width="337.647" height="13.5261" fill="#B8A590"/>
<rect x="72.3506" y="27.0598" width="36.1773" height="13.5261" fill="#B8A590"/>
<rect x="60.2949" y="40.582" width="12.0591" height="27.0521" fill="#B8A590"/>
<rect x="24.1172" y="67.6367" width="36.1773" height="13.5261" fill="#B8A590"/>
<rect x="36.1719" y="568.099" width="24.1182" height="13.5261" fill="#B8A590"/>
<rect x="108.527" y="27.0598" width="337.647" height="541.043" fill="#B8A590"/>
<rect x="72.3506" y="40.582" width="36.1773" height="527.517" fill="#B8A590"/>
<rect x="36.1719" y="81.1636" width="36.1773" height="324.626" fill="#B8A590"/>
<rect x="24.1172" y="81.1636" width="12.0591" height="324.626" fill="#B8A590"/>
<rect x="723.53" y="216.426" width="12.0591" height="270.521" fill="#B8A590"/>
<rect x="723.53" y="40.582" width="24.1182" height="81.1564" fill="#B8A590"/>
<rect x="36.1719" y="405.792" width="36.1773" height="162.313" fill="#B8A590"/>
<rect x="60.2949" y="568.099" width="168.826" height="13.5261" fill="#B8A590"/>
<rect x="385.881" y="568.099" width="168.826" height="13.5261" fill="#B8A590"/>
<rect x="614.996" y="216.426" width="108.531" height="365.204" fill="#B8A590"/>
<rect x="446.176" y="40.582" width="168.826" height="527.517" fill="#B8A590"/>
<rect x="530.586" y="27.0598" width="205.001" height="13.5261" fill="#B8A590"/>
<rect x="711.471" y="175.849" width="12.0591" height="40.5782" fill="#B8A590"/>
<rect x="711.471" y="40.582" width="12.0591" height="94.6825" fill="#B8A590"/>
<rect x="614.996" y="40.582" width="96.4716" height="175.839" fill="#B8A590"/>
<rect x="48.2383" y="568.093" width="168.826" height="13.5261" fill="#DCC7AF"/>
<rect x="217.06" y="554.566" width="156.767" height="13.5261" fill="#DCC7AF"/>
<rect x="385.884" y="568.093" width="156.767" height="13.5261" fill="#DCC7AF"/>
<rect x="542.648" y="554.566" width="60.2955" height="13.5261" fill="#DCC7AF"/>
<rect x="614.998" y="568.093" width="96.4716" height="13.5261" fill="#DCC7AF"/>
<rect width="12.0591" height="324.626" transform="matrix(-1 0 0 1 12.0586 67.6311)" fill="#DCC7AF"/>
<rect x="12.0586" y="392.259" width="12.0591" height="162.313" fill="#DCC7AF"/>
<rect x="711.468" y="473.412" width="12.0591" height="94.6825" fill="#DCC7AF"/>
<rect x="723.531" y="202.893" width="12.0591" height="270.521" fill="#DCC7AF"/>
<rect x="711.468" y="162.316" width="12.0591" height="40.5782" fill="#DCC7AF"/>
<rect x="699.412" y="121.735" width="12.0591" height="40.5782" fill="#DCC7AF"/>
<rect x="711.468" y="108.208" width="24.1182" height="13.5261" fill="#DCC7AF"/>
<rect x="735.588" y="27.0496" width="12.0591" height="81.1564" fill="#DCC7AF"/>
<rect x="723.531" y="13.5271" width="12.0591" height="13.5261" fill="#DCC7AF"/>
<rect x="518.528" width="205.001" height="13.5261" fill="#DCC7AF"/>
<rect x="434.117" y="13.5271" width="84.4126" height="13.5261" fill="#DCC7AF"/>
<rect x="96.4697" width="337.647" height="13.5261" fill="#DCC7AF"/>
<rect x="60.293" y="13.5271" width="36.1773" height="13.5261" fill="#DCC7AF"/>
<rect x="48.2383" y="27.0496" width="12.0591" height="27.0521" fill="#DCC7AF"/>
<rect x="12.0586" y="54.104" width="36.1773" height="13.5261" fill="#DCC7AF"/>
<rect x="24.1143" y="554.566" width="24.1182" height="13.5261" fill="#DCC7AF"/>
<rect x="96.4697" y="13.5271" width="337.647" height="541.043" fill="#DCC7AF"/>
<rect x="60.293" y="27.0496" width="36.1773" height="527.517" fill="#DCC7AF"/>
<rect x="24.1143" y="67.6311" width="36.1773" height="324.626" fill="#DCC7AF"/>
<rect x="12.0586" y="67.6311" width="12.0591" height="324.626" fill="#DCC7AF"/>
<rect x="711.468" y="202.893" width="12.0591" height="270.521" fill="#DCC7AF"/>
<rect x="711.468" y="27.0496" width="24.1182" height="81.1564" fill="#DCC7AF"/>
<rect x="24.1143" y="392.259" width="36.1773" height="162.313" fill="#DCC7AF"/>
<rect x="48.2383" y="554.566" width="168.826" height="13.5261" fill="#DCC7AF"/>
<rect x="373.823" y="554.566" width="168.826" height="13.5261" fill="#DCC7AF"/>
<rect x="602.939" y="202.893" width="108.531" height="365.204" fill="#DCC7AF"/>
<rect x="434.117" y="27.0496" width="168.826" height="527.517" fill="#DCC7AF"/>
<rect x="518.528" y="13.5271" width="205.001" height="13.5261" fill="#DCC7AF"/>
<rect x="699.412" y="162.316" width="12.0591" height="40.5782" fill="#DCC7AF"/>
<rect x="699.412" y="27.0496" width="12.0591" height="94.6825" fill="#DCC7AF"/>
<rect x="602.939" y="27.0496" width="96.4716" height="175.839" fill="#DCC7AF"/>
<rect x="48.2383" y="54.104" width="12.0591" height="13.5261" fill="#DCC7AF"/>
<rect x="687.352" y="162.316" width="12.0591" height="270.521" fill="#BAA48B"/>
<rect x="687.352" y="162.316" width="12.0591" height="270.521" fill="#BAA48B"/>
<rect x="60.293" y="162.316" width="12.0591" height="270.521" fill="#BAA48B"/>
<rect x="72.3535" y="121.74" width="12.0591" height="67.6303" transform="rotate(-180 72.3535 121.74)" fill="#BAA48B"/>
<rect x="120.589" y="54.1084" width="13.5261" height="48.2364" transform="rotate(90 120.589 54.1084)" fill="#BAA48B"/>
<rect x="72.3516" y="81.1633" width="12.0591" height="13.5261" fill="#BAA48B"/>
<rect x="84.415" y="67.6362" width="12.0591" height="13.5261" fill="#BAA48B"/>
<rect x="96.4717" y="94.6855" width="12.0591" height="13.5261" fill="#BAA48B"/>
<rect width="12.0591" height="67.6303" transform="matrix(-1 0 0 1 72.3535 473.409)" fill="#BAA48B"/>
<rect width="13.5261" height="48.2364" transform="matrix(0 -1 -1 0 120.589 541.04)" fill="#BAA48B"/>
<rect width="12.0591" height="13.5261" transform="matrix(1 0 0 -1 72.3516 513.991)" fill="#BAA48B"/>
<rect width="12.0591" height="13.5261" transform="matrix(1 0 0 -1 84.415 527.518)" fill="#BAA48B"/>
<rect width="12.0591" height="13.5261" transform="matrix(1 0 0 -1 96.4717 500.464)" fill="#BAA48B"/>
<rect x="687.354" y="473.409" width="12.0591" height="67.6303" fill="#BAA48B"/>
<rect x="639.121" y="541.04" width="13.5261" height="48.2364" transform="rotate(-90 639.121 541.04)" fill="#BAA48B"/>
<rect x="687.356" y="513.991" width="12.0591" height="13.5261" transform="rotate(180 687.356 513.991)" fill="#BAA48B"/>
<rect x="675.293" y="527.518" width="12.0591" height="13.5261" transform="rotate(180 675.293 527.518)" fill="#BAA48B"/>
<rect x="663.236" y="500.464" width="12.0591" height="13.5261" transform="rotate(180 663.236 500.464)" fill="#BAA48B"/>
<rect width="12.0591" height="67.6303" transform="matrix(1 0 0 -1 687.354 121.74)" fill="#BAA48B"/>
<rect width="13.5261" height="48.2364" transform="matrix(0 1 1 0 639.121 54.1084)" fill="#BAA48B"/>
<rect width="12.0591" height="13.5261" transform="matrix(-1 0 0 1 687.356 81.1633)" fill="#BAA48B"/>
<rect width="12.0591" height="13.5261" transform="matrix(-1 0 0 1 675.293 67.6362)" fill="#BAA48B"/>
<rect width="12.0591" height="13.5261" transform="matrix(-1 0 0 1 663.236 94.6855)" fill="#BAA48B"/>
<rect width="12.0591" height="270.521" transform="matrix(1 0 0 -1 723.531 473.412)" fill="#E9D2B8"/>
<rect x="723.531" y="568.093" width="12.0591" height="94.6825" transform="rotate(180 723.531 568.093)" fill="#E9D2B8"/>
<rect x="711.468" y="581.62" width="96.4716" height="13.5261" transform="rotate(180 711.468 581.62)" fill="#E9D2B8"/>
<rect x="614.997" y="568.093" width="72.3537" height="13.5261" transform="rotate(180 614.997 568.093)" fill="#E9D2B8"/>
<rect x="542.648" y="581.62" width="156.767" height="13.5261" transform="rotate(180 542.648 581.62)" fill="#E9D2B8"/>
<rect x="385.884" y="568.093" width="168.826" height="13.5261" transform="rotate(180 385.884 568.093)" fill="#E9D2B8"/>
<rect x="217.06" y="581.62" width="168.826" height="13.5261" transform="rotate(180 217.06 581.62)" fill="#E9D2B8"/>
<rect x="48.2383" y="568.093" width="24.1182" height="13.5261" transform="rotate(180 48.2383 568.093)" fill="#E9D2B8"/>
<rect x="24.1143" y="554.571" width="12.0591" height="162.313" transform="rotate(180 24.1143 554.571)" fill="#E9D2B8"/>
<rect x="12.0596" y="392.259" width="12.0591" height="324.626" transform="rotate(180 12.0596 392.259)" fill="#E9D2B8"/>
<rect width="12.0591" height="27.0521" transform="matrix(1 0 0 -1 711.468 189.366)" fill="#E9D2B8"/>
<rect width="12.0591" height="40.5782" transform="matrix(1 0 0 -1 699.412 162.316)" fill="#E9D2B8"/>
<rect width="12.0591" height="13.5261" transform="matrix(1 0 0 -1 723.531 121.735)" fill="#E9D2B8"/>
<rect width="12.0591" height="27.0521" transform="matrix(1 0 0 -1 723.531 40.5767)" fill="#E9D2B8"/>
<rect width="12.0591" height="27.0521" transform="matrix(1 0 0 -1 711.468 27.0542)" fill="#E9D2B8"/>
<rect width="12.0591" height="81.1564" transform="matrix(1 0 0 -1 735.588 108.208)" fill="#E9D2B8"/>
<rect x="12.0596" y="54.1084" width="36.1773" height="13.5261" fill="#E9D2B8"/>
<rect x="48.2383" y="27.0542" width="12.0591" height="27.0521" fill="#E9D2B8"/>
<rect x="60.293" y="13.5271" width="36.1773" height="13.5261" fill="#E9D2B8"/>
<rect x="96.4697" width="337.647" height="13.5261" fill="#E9D2B8"/>
<rect x="434.117" y="13.5271" width="84.4126" height="13.5261" fill="#E9D2B8"/>
<rect x="518.528" width="192.944" height="13.5261" fill="#E9D2B8"/>
<rect x="711.468" y="365.205" width="12.0591" height="27.0521" fill="#E9D2B8"/>
<rect x="711.468" y="243.47" width="12.0591" height="13.5261" fill="#E9D2B8"/>
<rect x="711.468" y="54.1084" width="24.1182" height="13.5261" fill="#E9D2B8"/>
<rect x="723.531" y="67.6311" width="12.0591" height="13.5261" fill="#E9D2B8"/>
<rect x="554.707" y="13.5271" width="84.4126" height="13.5261" fill="#E9D2B8"/>
<rect x="578.822" y="27.0542" width="24.1182" height="13.5261" fill="#E9D2B8"/>
<rect x="301.469" y="13.5271" width="24.1182" height="13.5261" fill="#E9D2B8"/>
<rect x="313.528" y="27.0542" width="12.0591" height="13.5261" fill="#E9D2B8"/>
<rect x="385.884" y="13.5271" width="36.1773" height="13.5261" fill="#E9D2B8"/>
<rect x="96.4697" y="13.5271" width="12.0591" height="13.5261" fill="#E9D2B8"/>
<rect x="96.4697" y="27.0542" width="24.1182" height="13.5261" fill="#E9D2B8"/>
<rect x="12.0596" y="67.6311" width="12.0591" height="94.6825" fill="#E9D2B8"/>
<rect x="24.1143" y="67.6311" width="12.0591" height="54.1043" fill="#E9D2B8"/>
<rect x="12.0596" y="270.524" width="12.0591" height="67.6303" fill="#E9D2B8"/>
<rect x="24.1143" y="324.628" width="12.0591" height="40.5782" fill="#E9D2B8"/>
<rect x="12.0596" y="365.205" width="12.0591" height="27.0521" fill="#E9D2B8"/>
<rect x="24.1143" y="405.781" width="12.0591" height="94.6825" fill="#E9D2B8"/>
<rect x="24.1143" y="513.994" width="12.0591" height="13.5261" fill="#E9D2B8"/>
<rect x="96.4697" y="554.571" width="36.1773" height="13.5261" fill="#E9D2B8"/>
<rect x="144.707" y="554.571" width="24.1182" height="13.5261" fill="#E9D2B8"/>
<rect x="289.413" y="541.043" width="48.2364" height="13.5261" fill="#E9D2B8"/>
<rect x="458.237" y="554.571" width="12.0591" height="13.5261" fill="#E9D2B8"/>
<rect x="506.469" y="554.571" width="24.1182" height="13.5261" fill="#E9D2B8"/>
<rect x="578.822" y="541.043" width="24.1182" height="13.5261" fill="#E9D2B8"/>
<rect x="663.237" y="554.571" width="12.0591" height="13.5261" fill="#E9D2B8"/>
<rect x="132.042" y="158.417" width="3.20833" height="3.20833" fill="black"/>
<rect x="135.25" y="158.417" width="3.20833" height="3.20833" fill="black"/>
<rect x="138.459" y="158.417" width="3.20833" height="3.20833" fill="black"/>
<rect x="141.667" y="158.417" width="3.20833" height="3.20833" fill="black"/>
<rect x="144.875" y="158.417" width="3.20833" height="3.20833" fill="black"/>
<rect x="148.084" y="158.417" width="3.20833" height="3.20833" fill="black"/>
<rect x="151.292" y="158.417" width="3.20833" height="3.20833" fill="black"/>
<rect x="154.5" y="158.417" width="3.20833" height="3.20833" fill="black"/>
<rect x="157.709" y="158.417" width="3.20833" height="3.20833" fill="black"/>
<rect x="160.917" y="158.417" width="3.20833" height="3.20833" fill="black"/>
<rect x="164.125" y="158.417" width="3.20833" height="3.20833" fill="black"/>
<rect x="167.334" y="158.417" width="3.20833" height="3.20833" fill="black"/>
<rect x="170.542" y="158.417" width="3.20833" height="3.20833" fill="black"/>
<rect x="173.75" y="158.417" width="3.20833" height="3.20833" fill="black"/>
<rect x="128.834" y="161.625" width="3.20833" height="3.20833" fill="black"/>
<rect x="125.625" y="164.833" width="3.20833" height="3.20833" fill="black"/>
<rect x="122.417" y="168.042" width="3.20833" height="3.20833" fill="black"/>
<rect x="122.417" y="171.25" width="3.20833" height="3.20833" fill="black"/>
<rect x="122.417" y="174.458" width="3.20833" height="3.20833" fill="black"/>
<rect x="122.417" y="177.667" width="3.20833" height="3.20833" fill="black"/>
<rect x="122.417" y="180.875" width="3.20833" height="3.20833" fill="black"/>
<rect x="122.417" y="184.083" width="3.20833" height="3.20833" fill="black"/>
<rect x="122.417" y="187.292" width="3.20833" height="3.20833" fill="black"/>
<rect x="122.417" y="190.5" width="3.20833" height="3.20833" fill="black"/>
<rect x="122.417" y="193.708" width="3.20833" height="3.20833" fill="black"/>
<rect x="122.417" y="196.917" width="3.20833" height="3.20833" fill="black"/>
<rect x="122.417" y="200.125" width="3.20833" height="3.20833" fill="black"/>
<rect x="122.417" y="203.333" width="3.20833" height="3.20833" fill="black"/>
<rect x="122.417" y="206.542" width="3.20833" height="3.20833" fill="black"/>
<rect x="122.417" y="209.75" width="3.20833" height="3.20833" fill="black"/>
<rect x="125.625" y="212.958" width="3.20833" height="3.20833" fill="black"/>
<rect x="128.834" y="216.167" width="3.20833" height="3.20833" fill="black"/>
<rect x="132.042" y="219.375" width="3.20833" height="3.20833" fill="black"/>
<rect x="135.25" y="219.375" width="3.20833" height="3.20833" fill="black"/>
<rect x="138.459" y="219.375" width="3.20833" height="3.20833" fill="black"/>
<rect x="141.667" y="219.375" width="3.20833" height="3.20833" fill="black"/>
<rect x="144.875" y="219.375" width="3.20833" height="3.20833" fill="black"/>
<rect x="148.084" y="219.375" width="3.20833" height="3.20833" fill="black"/>
<rect x="151.292" y="219.375" width="3.20833" height="3.20833" fill="black"/>
<rect x="154.5" y="219.375" width="3.20833" height="3.20833" fill="black"/>
<rect x="157.709" y="219.375" width="3.20833" height="3.20833" fill="black"/>
<rect x="160.917" y="219.375" width="3.20833" height="3.20833" fill="black"/>
<rect x="164.125" y="219.375" width="3.20833" height="3.20833" fill="black"/>
<rect x="167.334" y="219.375" width="3.20833" height="3.20833" fill="black"/>
<rect x="170.542" y="219.375" width="3.20833" height="3.20833" fill="black"/>
<rect x="173.75" y="219.375" width="3.20833" height="3.20833" fill="black"/>
<rect x="176.959" y="216.167" width="3.20833" height="3.20833" fill="black"/>
<rect x="180.167" y="212.958" width="3.20833" height="3.20833" fill="black"/>
<rect x="183.375" y="209.75" width="3.20833" height="3.20833" fill="black"/>
<rect x="183.375" y="206.542" width="3.20833" height="3.20833" fill="black"/>
<rect x="183.375" y="203.333" width="3.20833" height="3.20833" fill="black"/>
<rect x="183.375" y="200.125" width="3.20833" height="3.20833" fill="black"/>
<rect x="183.375" y="196.917" width="3.20833" height="3.20833" fill="black"/>
<rect x="183.375" y="193.708" width="3.20833" height="3.20833" fill="black"/>
<rect x="183.375" y="190.5" width="3.20833" height="3.20833" fill="black"/>
<rect x="183.375" y="187.292" width="3.20833" height="3.20833" fill="black"/>
<rect x="183.375" y="184.083" width="3.20833" height="3.20833" fill="black"/>
<rect x="183.375" y="180.875" width="3.20833" height="3.20833" fill="black"/>
<rect x="183.375" y="177.667" width="3.20833" height="3.20833" fill="black"/>
<rect x="183.375" y="174.458" width="3.20833" height="3.20833" fill="black"/>
<rect x="183.375" y="171.25" width="3.20833" height="3.20833" fill="black"/>
<rect x="183.375" y="168.042" width="3.20833" height="3.20833" fill="black"/>
<rect x="180.167" y="164.833" width="3.20833" height="3.20833" fill="black"/>
<rect x="176.959" y="161.625" width="3.20833" height="3.20833" fill="black"/>
<rect x="560.042" y="159.417" width="3.20833" height="3.20833" fill="black"/>
<rect x="563.25" y="159.417" width="3.20833" height="3.20833" fill="black"/>
<rect x="566.459" y="159.417" width="3.20833" height="3.20833" fill="black"/>
<rect x="569.667" y="159.417" width="3.20833" height="3.20833" fill="black"/>
<rect x="572.875" y="159.417" width="3.20833" height="3.20833" fill="black"/>
<rect x="576.084" y="159.417" width="3.20833" height="3.20833" fill="black"/>
<rect x="579.292" y="159.417" width="3.20833" height="3.20833" fill="black"/>
<rect x="582.5" y="159.417" width="3.20833" height="3.20833" fill="black"/>
<rect x="585.709" y="159.417" width="3.20833" height="3.20833" fill="black"/>
<rect x="588.917" y="159.417" width="3.20833" height="3.20833" fill="black"/>
<rect x="592.125" y="159.417" width="3.20833" height="3.20833" fill="black"/>
<rect x="595.334" y="159.417" width="3.20833" height="3.20833" fill="black"/>
<rect x="598.542" y="159.417" width="3.20833" height="3.20833" fill="black"/>
<rect x="601.75" y="159.417" width="3.20833" height="3.20833" fill="black"/>
<rect x="556.834" y="162.625" width="3.20833" height="3.20833" fill="black"/>
<rect x="553.625" y="165.833" width="3.20833" height="3.20833" fill="black"/>
<rect x="550.417" y="169.042" width="3.20833" height="3.20833" fill="black"/>
<rect x="550.417" y="172.25" width="3.20833" height="3.20833" fill="black"/>
<rect x="550.417" y="175.458" width="3.20833" height="3.20833" fill="black"/>
<rect x="550.417" y="178.667" width="3.20833" height="3.20833" fill="black"/>
<rect x="550.417" y="181.875" width="3.20833" height="3.20833" fill="black"/>
<rect x="550.417" y="185.083" width="3.20833" height="3.20833" fill="black"/>
<rect x="550.417" y="188.292" width="3.20833" height="3.20833" fill="black"/>
<rect x="550.417" y="191.5" width="3.20833" height="3.20833" fill="black"/>
<rect x="550.417" y="194.708" width="3.20833" height="3.20833" fill="black"/>
<rect x="550.417" y="197.917" width="3.20833" height="3.20833" fill="black"/>
<rect x="550.417" y="201.125" width="3.20833" height="3.20833" fill="black"/>
<rect x="550.417" y="204.333" width="3.20833" height="3.20833" fill="black"/>
<rect x="550.417" y="207.542" width="3.20833" height="3.20833" fill="black"/>
<rect x="550.417" y="210.75" width="3.20833" height="3.20833" fill="black"/>
<rect x="553.625" y="213.958" width="3.20833" height="3.20833" fill="black"/>
<rect x="556.834" y="217.167" width="3.20833" height="3.20833" fill="black"/>
<rect x="560.042" y="220.375" width="3.20833" height="3.20833" fill="black"/>
<rect x="563.25" y="220.375" width="3.20833" height="3.20833" fill="black"/>
<rect x="566.459" y="220.375" width="3.20833" height="3.20833" fill="black"/>
<rect x="569.667" y="220.375" width="3.20833" height="3.20833" fill="black"/>
<rect x="572.875" y="220.375" width="3.20833" height="3.20833" fill="black"/>
<rect x="576.084" y="220.375" width="3.20833" height="3.20833" fill="black"/>
<rect x="579.292" y="220.375" width="3.20833" height="3.20833" fill="black"/>
<rect x="582.5" y="220.375" width="3.20833" height="3.20833" fill="black"/>
<rect x="585.709" y="220.375" width="3.20833" height="3.20833" fill="black"/>
<rect x="588.917" y="220.375" width="3.20833" height="3.20833" fill="black"/>
<rect x="592.125" y="220.375" width="3.20833" height="3.20833" fill="black"/>
<rect x="595.334" y="220.375" width="3.20833" height="3.20833" fill="black"/>
<rect x="598.542" y="220.375" width="3.20833" height="3.20833" fill="black"/>
<rect x="601.75" y="220.375" width="3.20833" height="3.20833" fill="black"/>
<rect x="604.959" y="217.167" width="3.20833" height="3.20833" fill="black"/>
<rect x="608.167" y="213.958" width="3.20833" height="3.20833" fill="black"/>
<rect x="611.375" y="210.75" width="3.20833" height="3.20833" fill="black"/>
<rect x="611.375" y="207.542" width="3.20833" height="3.20833" fill="black"/>
<rect x="611.375" y="204.333" width="3.20833" height="3.20833" fill="black"/>
<rect x="611.375" y="201.125" width="3.20833" height="3.20833" fill="black"/>
<rect x="611.375" y="197.917" width="3.20833" height="3.20833" fill="black"/>
<rect x="611.375" y="194.708" width="3.20833" height="3.20833" fill="black"/>
<rect x="611.375" y="191.5" width="3.20833" height="3.20833" fill="black"/>
<rect x="611.375" y="188.292" width="3.20833" height="3.20833" fill="black"/>
<rect x="611.375" y="185.083" width="3.20833" height="3.20833" fill="black"/>
<rect x="611.375" y="181.875" width="3.20833" height="3.20833" fill="black"/>
<rect x="611.375" y="178.667" width="3.20833" height="3.20833" fill="black"/>
<rect x="611.375" y="175.458" width="3.20833" height="3.20833" fill="black"/>
<rect x="611.375" y="172.25" width="3.20833" height="3.20833" fill="black"/>
<rect x="611.375" y="169.042" width="3.20833" height="3.20833" fill="black"/>
<rect x="608.167" y="165.833" width="3.20833" height="3.20833" fill="black"/>
<rect x="604.959" y="162.625" width="3.20833" height="3.20833" fill="black"/>
<rect x="448.042" y="159.417" width="3.20833" height="3.20833" fill="black"/>
<rect x="451.25" y="159.417" width="3.20833" height="3.20833" fill="black"/>
<rect x="454.459" y="159.417" width="3.20833" height="3.20833" fill="black"/>
<rect x="457.667" y="159.417" width="3.20833" height="3.20833" fill="black"/>
<rect x="460.875" y="159.417" width="3.20833" height="3.20833" fill="black"/>
<rect x="464.084" y="159.417" width="3.20833" height="3.20833" fill="black"/>
<rect x="467.292" y="159.417" width="3.20833" height="3.20833" fill="black"/>
<rect x="470.5" y="159.417" width="3.20833" height="3.20833" fill="black"/>
<rect x="473.709" y="159.417" width="3.20833" height="3.20833" fill="black"/>
<rect x="476.917" y="159.417" width="3.20833" height="3.20833" fill="black"/>
<rect x="480.125" y="159.417" width="3.20833" height="3.20833" fill="black"/>
<rect x="483.334" y="159.417" width="3.20833" height="3.20833" fill="black"/>
<rect x="486.542" y="159.417" width="3.20833" height="3.20833" fill="black"/>
<rect x="489.75" y="159.417" width="3.20833" height="3.20833" fill="black"/>
<rect x="444.834" y="162.625" width="3.20833" height="3.20833" fill="black"/>
<rect x="441.625" y="165.833" width="3.20833" height="3.20833" fill="black"/>
<rect x="438.417" y="169.042" width="3.20833" height="3.20833" fill="black"/>
<rect x="438.417" y="172.25" width="3.20833" height="3.20833" fill="black"/>
<rect x="438.417" y="175.458" width="3.20833" height="3.20833" fill="black"/>
<rect x="438.417" y="178.667" width="3.20833" height="3.20833" fill="black"/>
<rect x="438.417" y="181.875" width="3.20833" height="3.20833" fill="black"/>
<rect x="438.417" y="185.083" width="3.20833" height="3.20833" fill="black"/>
<rect x="438.417" y="188.292" width="3.20833" height="3.20833" fill="black"/>
<rect x="438.417" y="191.5" width="3.20833" height="3.20833" fill="black"/>
<rect x="438.417" y="194.708" width="3.20833" height="3.20833" fill="black"/>
<rect x="438.417" y="197.917" width="3.20833" height="3.20833" fill="black"/>
<rect x="438.417" y="201.125" width="3.20833" height="3.20833" fill="black"/>
<rect x="438.417" y="204.333" width="3.20833" height="3.20833" fill="black"/>
<rect x="438.417" y="207.542" width="3.20833" height="3.20833" fill="black"/>
<rect x="438.417" y="210.75" width="3.20833" height="3.20833" fill="black"/>
<rect x="441.625" y="213.958" width="3.20833" height="3.20833" fill="black"/>
<rect x="444.834" y="217.167" width="3.20833" height="3.20833" fill="black"/>
<rect x="448.042" y="220.375" width="3.20833" height="3.20833" fill="black"/>
<rect x="451.25" y="220.375" width="3.20833" height="3.20833" fill="black"/>
<rect x="454.459" y="220.375" width="3.20833" height="3.20833" fill="black"/>
<rect x="457.667" y="220.375" width="3.20833" height="3.20833" fill="black"/>
<rect x="460.875" y="220.375" width="3.20833" height="3.20833" fill="black"/>
<rect x="464.084" y="220.375" width="3.20833" height="3.20833" fill="black"/>
<rect x="467.292" y="220.375" width="3.20833" height="3.20833" fill="black"/>
<rect x="470.5" y="220.375" width="3.20833" height="3.20833" fill="black"/>
<rect x="473.709" y="220.375" width="3.20833" height="3.20833" fill="black"/>
<rect x="476.917" y="220.375" width="3.20833" height="3.20833" fill="black"/>
<rect x="480.125" y="220.375" width="3.20833" height="3.20833" fill="black"/>
<rect x="483.334" y="220.375" width="3.20833" height="3.20833" fill="black"/>
<rect x="486.542" y="220.375" width="3.20833" height="3.20833" fill="black"/>
<rect x="489.75" y="220.375" width="3.20833" height="3.20833" fill="black"/>
<rect x="492.959" y="217.167" width="3.20833" height="3.20833" fill="black"/>
<rect x="496.167" y="213.958" width="3.20833" height="3.20833" fill="black"/>
<rect x="499.375" y="210.75" width="3.20833" height="3.20833" fill="black"/>
<rect x="499.375" y="207.542" width="3.20833" height="3.20833" fill="black"/>
<rect x="499.375" y="204.333" width="3.20833" height="3.20833" fill="black"/>
<rect x="499.375" y="201.125" width="3.20833" height="3.20833" fill="black"/>
<rect x="499.375" y="197.917" width="3.20833" height="3.20833" fill="black"/>
<rect x="499.375" y="194.708" width="3.20833" height="3.20833" fill="black"/>
<rect x="499.375" y="191.5" width="3.20833" height="3.20833" fill="black"/>
<rect x="499.375" y="188.292" width="3.20833" height="3.20833" fill="black"/>
<rect x="499.375" y="185.083" width="3.20833" height="3.20833" fill="black"/>
<rect x="499.375" y="181.875" width="3.20833" height="3.20833" fill="black"/>
<rect x="499.375" y="178.667" width="3.20833" height="3.20833" fill="black"/>
<rect x="499.375" y="175.458" width="3.20833" height="3.20833" fill="black"/>
<rect x="499.375" y="172.25" width="3.20833" height="3.20833" fill="black"/>
<rect x="499.375" y="169.042" width="3.20833" height="3.20833" fill="black"/>
<rect x="496.167" y="165.833" width="3.20833" height="3.20833" fill="black"/>
<rect x="492.959" y="162.625" width="3.20833" height="3.20833" fill="black"/>
<rect x="341.042" y="158.417" width="3.20833" height="3.20833" fill="black"/>
<rect x="344.25" y="158.417" width="3.20833" height="3.20833" fill="black"/>
<rect x="347.459" y="158.417" width="3.20833" height="3.20833" fill="black"/>
<rect x="350.667" y="158.417" width="3.20833" height="3.20833" fill="black"/>
<rect x="353.875" y="158.417" width="3.20833" height="3.20833" fill="black"/>
<rect x="357.084" y="158.417" width="3.20833" height="3.20833" fill="black"/>
<rect x="360.292" y="158.417" width="3.20833" height="3.20833" fill="black"/>
<rect x="363.5" y="158.417" width="3.20833" height="3.20833" fill="black"/>
<rect x="366.709" y="158.417" width="3.20833" height="3.20833" fill="black"/>
<rect x="369.917" y="158.417" width="3.20833" height="3.20833" fill="black"/>
<rect x="373.125" y="158.417" width="3.20833" height="3.20833" fill="black"/>
<rect x="376.334" y="158.417" width="3.20833" height="3.20833" fill="black"/>
<rect x="379.542" y="158.417" width="3.20833" height="3.20833" fill="black"/>
<rect x="382.75" y="158.417" width="3.20833" height="3.20833" fill="black"/>
<rect x="337.834" y="161.625" width="3.20833" height="3.20833" fill="black"/>
<rect x="334.625" y="164.833" width="3.20833" height="3.20833" fill="black"/>
<rect x="331.417" y="168.042" width="3.20833" height="3.20833" fill="black"/>
<rect x="331.417" y="171.25" width="3.20833" height="3.20833" fill="black"/>
<rect x="331.417" y="174.458" width="3.20833" height="3.20833" fill="black"/>
<rect x="331.417" y="177.667" width="3.20833" height="3.20833" fill="black"/>
<rect x="331.417" y="180.875" width="3.20833" height="3.20833" fill="black"/>
<rect x="331.417" y="184.083" width="3.20833" height="3.20833" fill="black"/>
<rect x="331.417" y="187.292" width="3.20833" height="3.20833" fill="black"/>
<rect x="331.417" y="190.5" width="3.20833" height="3.20833" fill="black"/>
<rect x="331.417" y="193.708" width="3.20833" height="3.20833" fill="black"/>
<rect x="331.417" y="196.917" width="3.20833" height="3.20833" fill="black"/>
<rect x="331.417" y="200.125" width="3.20833" height="3.20833" fill="black"/>
<rect x="331.417" y="203.333" width="3.20833" height="3.20833" fill="black"/>
<rect x="331.417" y="206.542" width="3.20833" height="3.20833" fill="black"/>
<rect x="331.417" y="209.75" width="3.20833" height="3.20833" fill="black"/>
<rect x="334.625" y="212.958" width="3.20833" height="3.20833" fill="black"/>
<rect x="337.834" y="216.167" width="3.20833" height="3.20833" fill="black"/>
<rect x="341.042" y="219.375" width="3.20833" height="3.20833" fill="black"/>
<rect x="344.25" y="219.375" width="3.20833" height="3.20833" fill="black"/>
<rect x="347.459" y="219.375" width="3.20833" height="3.20833" fill="black"/>
<rect x="350.667" y="219.375" width="3.20833" height="3.20833" fill="black"/>
<rect x="353.875" y="219.375" width="3.20833" height="3.20833" fill="black"/>
<rect x="357.084" y="219.375" width="3.20833" height="3.20833" fill="black"/>
<rect x="360.292" y="219.375" width="3.20833" height="3.20833" fill="black"/>
<rect x="363.5" y="219.375" width="3.20833" height="3.20833" fill="black"/>
<rect x="366.709" y="219.375" width="3.20833" height="3.20833" fill="black"/>
<rect x="369.917" y="219.375" width="3.20833" height="3.20833" fill="black"/>
<rect x="373.125" y="219.375" width="3.20833" height="3.20833" fill="black"/>
<rect x="376.334" y="219.375" width="3.20833" height="3.20833" fill="black"/>
<rect x="379.542" y="219.375" width="3.20833" height="3.20833" fill="black"/>
<rect x="382.75" y="219.375" width="3.20833" height="3.20833" fill="black"/>
<rect x="385.959" y="216.167" width="3.20833" height="3.20833" fill="black"/>
<rect x="389.167" y="212.958" width="3.20833" height="3.20833" fill="black"/>
<rect x="392.375" y="209.75" width="3.20833" height="3.20833" fill="black"/>
<rect x="392.375" y="206.542" width="3.20833" height="3.20833" fill="black"/>
<rect x="392.375" y="203.333" width="3.20833" height="3.20833" fill="black"/>
<rect x="392.375" y="200.125" width="3.20833" height="3.20833" fill="black"/>
<rect x="392.375" y="196.917" width="3.20833" height="3.20833" fill="black"/>
<rect x="392.375" y="193.708" width="3.20833" height="3.20833" fill="black"/>
<rect x="392.375" y="190.5" width="3.20833" height="3.20833" fill="black"/>
<rect x="392.375" y="187.292" width="3.20833" height="3.20833" fill="black"/>
<rect x="392.375" y="184.083" width="3.20833" height="3.20833" fill="black"/>
<rect x="392.375" y="180.875" width="3.20833" height="3.20833" fill="black"/>
<rect x="392.375" y="177.667" width="3.20833" height="3.20833" fill="black"/>
<rect x="392.375" y="174.458" width="3.20833" height="3.20833" fill="black"/>
<rect x="392.375" y="171.25" width="3.20833" height="3.20833" fill="black"/>
<rect x="392.375" y="168.042" width="3.20833" height="3.20833" fill="black"/>
<rect x="389.167" y="164.833" width="3.20833" height="3.20833" fill="black"/>
<rect x="385.959" y="161.625" width="3.20833" height="3.20833" fill="black"/>
<rect x="232.042" y="158.417" width="3.20833" height="3.20833" fill="black"/>
<rect x="235.25" y="158.417" width="3.20833" height="3.20833" fill="black"/>
<rect x="238.459" y="158.417" width="3.20833" height="3.20833" fill="black"/>
<rect x="241.667" y="158.417" width="3.20833" height="3.20833" fill="black"/>
<rect x="244.875" y="158.417" width="3.20833" height="3.20833" fill="black"/>
<rect x="248.084" y="158.417" width="3.20833" height="3.20833" fill="black"/>
<rect x="251.292" y="158.417" width="3.20833" height="3.20833" fill="black"/>
<rect x="254.5" y="158.417" width="3.20833" height="3.20833" fill="black"/>
<rect x="257.709" y="158.417" width="3.20833" height="3.20833" fill="black"/>
<rect x="260.917" y="158.417" width="3.20833" height="3.20833" fill="black"/>
<rect x="264.125" y="158.417" width="3.20833" height="3.20833" fill="black"/>
<rect x="267.334" y="158.417" width="3.20833" height="3.20833" fill="black"/>
<rect x="270.542" y="158.417" width="3.20833" height="3.20833" fill="black"/>
<rect x="273.75" y="158.417" width="3.20833" height="3.20833" fill="black"/>
<rect x="228.834" y="161.625" width="3.20833" height="3.20833" fill="black"/>
<rect x="225.625" y="164.833" width="3.20833" height="3.20833" fill="black"/>
<rect x="222.417" y="168.042" width="3.20833" height="3.20833" fill="black"/>
<rect x="222.417" y="171.25" width="3.20833" height="3.20833" fill="black"/>
<rect x="222.417" y="174.458" width="3.20833" height="3.20833" fill="black"/>
<rect x="222.417" y="177.667" width="3.20833" height="3.20833" fill="black"/>
<rect x="222.417" y="180.875" width="3.20833" height="3.20833" fill="black"/>
<rect x="222.417" y="184.083" width="3.20833" height="3.20833" fill="black"/>
<rect x="222.417" y="187.292" width="3.20833" height="3.20833" fill="black"/>
<rect x="222.417" y="190.5" width="3.20833" height="3.20833" fill="black"/>
<rect x="222.417" y="193.708" width="3.20833" height="3.20833" fill="black"/>
<rect x="222.417" y="196.917" width="3.20833" height="3.20833" fill="black"/>
<rect x="222.417" y="200.125" width="3.20833" height="3.20833" fill="black"/>
<rect x="222.417" y="203.333" width="3.20833" height="3.20833" fill="black"/>
<rect x="222.417" y="206.542" width="3.20833" height="3.20833" fill="black"/>
<rect x="222.417" y="209.75" width="3.20833" height="3.20833" fill="black"/>
<rect x="225.625" y="212.958" width="3.20833" height="3.20833" fill="black"/>
<rect x="228.834" y="216.167" width="3.20833" height="3.20833" fill="black"/>
<rect x="232.042" y="219.375" width="3.20833" height="3.20833" fill="black"/>
<rect x="235.25" y="219.375" width="3.20833" height="3.20833" fill="black"/>
<rect x="238.459" y="219.375" width="3.20833" height="3.20833" fill="black"/>
<rect x="241.667" y="219.375" width="3.20833" height="3.20833" fill="black"/>
<rect x="244.875" y="219.375" width="3.20833" height="3.20833" fill="black"/>
<rect x="248.084" y="219.375" width="3.20833" height="3.20833" fill="black"/>
<rect x="251.292" y="219.375" width="3.20833" height="3.20833" fill="black"/>
<rect x="254.5" y="219.375" width="3.20833" height="3.20833" fill="black"/>
<rect x="257.709" y="219.375" width="3.20833" height="3.20833" fill="black"/>
<rect x="260.917" y="219.375" width="3.20833" height="3.20833" fill="black"/>
<rect x="264.125" y="219.375" width="3.20833" height="3.20833" fill="black"/>
<rect x="267.334" y="219.375" width="3.20833" height="3.20833" fill="black"/>
<rect x="270.542" y="219.375" width="3.20833" height="3.20833" fill="black"/>
<rect x="273.75" y="219.375" width="3.20833" height="3.20833" fill="black"/>
<rect x="276.959" y="216.167" width="3.20833" height="3.20833" fill="black"/>
<rect x="280.167" y="212.958" width="3.20833" height="3.20833" fill="black"/>
<rect x="283.375" y="209.75" width="3.20833" height="3.20833" fill="black"/>
<rect x="283.375" y="206.542" width="3.20833" height="3.20833" fill="black"/>
<rect x="283.375" y="203.333" width="3.20833" height="3.20833" fill="black"/>
<rect x="283.375" y="200.125" width="3.20833" height="3.20833" fill="black"/>
<rect x="283.375" y="196.917" width="3.20833" height="3.20833" fill="black"/>
<rect x="283.375" y="193.708" width="3.20833" height="3.20833" fill="black"/>
<rect x="283.375" y="190.5" width="3.20833" height="3.20833" fill="black"/>
<rect x="283.375" y="187.292" width="3.20833" height="3.20833" fill="black"/>
<rect x="283.375" y="184.083" width="3.20833" height="3.20833" fill="black"/>
<rect x="283.375" y="180.875" width="3.20833" height="3.20833" fill="black"/>
<rect x="283.375" y="177.667" width="3.20833" height="3.20833" fill="black"/>
<rect x="283.375" y="174.458" width="3.20833" height="3.20833" fill="black"/>
<rect x="283.375" y="171.25" width="3.20833" height="3.20833" fill="black"/>
<rect x="283.375" y="168.042" width="3.20833" height="3.20833" fill="black"/>
<rect x="280.167" y="164.833" width="3.20833" height="3.20833" fill="black"/>
<rect x="276.959" y="161.625" width="3.20833" height="3.20833" fill="black"/>
<rect x="132.042" y="339.417" width="3.20833" height="3.20833" fill="black"/>
<rect x="135.25" y="339.417" width="3.20833" height="3.20833" fill="black"/>
<rect x="138.459" y="339.417" width="3.20833" height="3.20833" fill="black"/>
<rect x="141.667" y="339.417" width="3.20833" height="3.20833" fill="black"/>
<rect x="144.875" y="339.417" width="3.20833" height="3.20833" fill="black"/>
<rect x="148.084" y="339.417" width="3.20833" height="3.20833" fill="black"/>
<rect x="151.292" y="339.417" width="3.20833" height="3.20833" fill="black"/>
<rect x="154.5" y="339.417" width="3.20833" height="3.20833" fill="black"/>
<rect x="157.709" y="339.417" width="3.20833" height="3.20833" fill="black"/>
<rect x="160.917" y="339.417" width="3.20833" height="3.20833" fill="black"/>
<rect x="164.125" y="339.417" width="3.20833" height="3.20833" fill="black"/>
<rect x="167.334" y="339.417" width="3.20833" height="3.20833" fill="black"/>
<rect x="170.542" y="339.417" width="3.20833" height="3.20833" fill="black"/>
<rect x="173.75" y="339.417" width="3.20833" height="3.20833" fill="black"/>
<rect x="128.834" y="342.625" width="3.20833" height="3.20833" fill="black"/>
<rect x="125.625" y="345.833" width="3.20833" height="3.20833" fill="black"/>
<rect x="122.417" y="349.042" width="3.20833" height="3.20833" fill="black"/>
<rect x="122.417" y="352.25" width="3.20833" height="3.20833" fill="black"/>
<rect x="122.417" y="355.458" width="3.20833" height="3.20833" fill="black"/>
<rect x="122.417" y="358.667" width="3.20833" height="3.20833" fill="black"/>
<rect x="122.417" y="361.875" width="3.20833" height="3.20833" fill="black"/>
<rect x="122.417" y="365.083" width="3.20833" height="3.20833" fill="black"/>
<rect x="122.417" y="368.292" width="3.20833" height="3.20833" fill="black"/>
<rect x="122.417" y="371.5" width="3.20833" height="3.20833" fill="black"/>
<rect x="122.417" y="374.708" width="3.20833" height="3.20833" fill="black"/>
<rect x="122.417" y="377.917" width="3.20833" height="3.20833" fill="black"/>
<rect x="122.417" y="381.125" width="3.20833" height="3.20833" fill="black"/>
<rect x="122.417" y="384.333" width="3.20833" height="3.20833" fill="black"/>
<rect x="122.417" y="387.542" width="3.20833" height="3.20833" fill="black"/>
<rect x="122.417" y="390.75" width="3.20833" height="3.20833" fill="black"/>
<rect x="125.625" y="393.958" width="3.20833" height="3.20833" fill="black"/>
<rect x="128.834" y="397.167" width="3.20833" height="3.20833" fill="black"/>
<rect x="132.042" y="400.375" width="3.20833" height="3.20833" fill="black"/>
<rect x="135.25" y="400.375" width="3.20833" height="3.20833" fill="black"/>
<rect x="138.459" y="400.375" width="3.20833" height="3.20833" fill="black"/>
<rect x="141.667" y="400.375" width="3.20833" height="3.20833" fill="black"/>
<rect x="144.875" y="400.375" width="3.20833" height="3.20833" fill="black"/>
<rect x="148.084" y="400.375" width="3.20833" height="3.20833" fill="black"/>
<rect x="151.292" y="400.375" width="3.20833" height="3.20833" fill="black"/>
<rect x="154.5" y="400.375" width="3.20833" height="3.20833" fill="black"/>
<rect x="157.709" y="400.375" width="3.20833" height="3.20833" fill="black"/>
<rect x="160.917" y="400.375" width="3.20833" height="3.20833" fill="black"/>
<rect x="164.125" y="400.375" width="3.20833" height="3.20833" fill="black"/>
<rect x="167.334" y="400.375" width="3.20833" height="3.20833" fill="black"/>
<rect x="170.542" y="400.375" width="3.20833" height="3.20833" fill="black"/>
<rect x="173.75" y="400.375" width="3.20833" height="3.20833" fill="black"/>
<rect x="176.959" y="397.167" width="3.20833" height="3.20833" fill="black"/>
<rect x="180.167" y="393.958" width="3.20833" height="3.20833" fill="black"/>
<rect x="183.375" y="390.75" width="3.20833" height="3.20833" fill="black"/>
<rect x="183.375" y="387.542" width="3.20833" height="3.20833" fill="black"/>
<rect x="183.375" y="384.333" width="3.20833" height="3.20833" fill="black"/>
<rect x="183.375" y="381.125" width="3.20833" height="3.20833" fill="black"/>
<rect x="183.375" y="377.917" width="3.20833" height="3.20833" fill="black"/>
<rect x="183.375" y="374.708" width="3.20833" height="3.20833" fill="black"/>
<rect x="183.375" y="371.5" width="3.20833" height="3.20833" fill="black"/>
<rect x="183.375" y="368.292" width="3.20833" height="3.20833" fill="black"/>
<rect x="183.375" y="365.083" width="3.20833" height="3.20833" fill="black"/>
<rect x="183.375" y="361.875" width="3.20833" height="3.20833" fill="black"/>
<rect x="183.375" y="358.667" width="3.20833" height="3.20833" fill="black"/>
<rect x="183.375" y="355.458" width="3.20833" height="3.20833" fill="black"/>
<rect x="183.375" y="352.25" width="3.20833" height="3.20833" fill="black"/>
<rect x="183.375" y="349.042" width="3.20833" height="3.20833" fill="black"/>
<rect x="180.167" y="345.833" width="3.20833" height="3.20833" fill="black"/>
<rect x="176.959" y="342.625" width="3.20833" height="3.20833" fill="black"/>
<rect x="560.042" y="340.417" width="3.20833" height="3.20833" fill="black"/>
<rect x="563.25" y="340.417" width="3.20833" height="3.20833" fill="black"/>
<rect x="566.459" y="340.417" width="3.20833" height="3.20833" fill="black"/>
<rect x="569.667" y="340.417" width="3.20833" height="3.20833" fill="black"/>
<rect x="572.875" y="340.417" width="3.20833" height="3.20833" fill="black"/>
<rect x="576.084" y="340.417" width="3.20833" height="3.20833" fill="black"/>
<rect x="579.292" y="340.417" width="3.20833" height="3.20833" fill="black"/>
<rect x="582.5" y="340.417" width="3.20833" height="3.20833" fill="black"/>
<rect x="585.709" y="340.417" width="3.20833" height="3.20833" fill="black"/>
<rect x="588.917" y="340.417" width="3.20833" height="3.20833" fill="black"/>
<rect x="592.125" y="340.417" width="3.20833" height="3.20833" fill="black"/>
<rect x="595.334" y="340.417" width="3.20833" height="3.20833" fill="black"/>
<rect x="598.542" y="340.417" width="3.20833" height="3.20833" fill="black"/>
<rect x="601.75" y="340.417" width="3.20833" height="3.20833" fill="black"/>
<rect x="556.834" y="343.625" width="3.20833" height="3.20833" fill="black"/>
<rect x="553.625" y="346.833" width="3.20833" height="3.20833" fill="black"/>
<rect x="550.417" y="350.042" width="3.20833" height="3.20833" fill="black"/>
<rect x="550.417" y="353.25" width="3.20833" height="3.20833" fill="black"/>
<rect x="550.417" y="356.458" width="3.20833" height="3.20833" fill="black"/>
<rect x="550.417" y="359.667" width="3.20833" height="3.20833" fill="black"/>
<rect x="550.417" y="362.875" width="3.20833" height="3.20833" fill="black"/>
<rect x="550.417" y="366.083" width="3.20833" height="3.20833" fill="black"/>
<rect x="550.417" y="369.292" width="3.20833" height="3.20833" fill="black"/>
<rect x="550.417" y="372.5" width="3.20833" height="3.20833" fill="black"/>
<rect x="550.417" y="375.708" width="3.20833" height="3.20833" fill="black"/>
<rect x="550.417" y="378.917" width="3.20833" height="3.20833" fill="black"/>
<rect x="550.417" y="382.125" width="3.20833" height="3.20833" fill="black"/>
<rect x="550.417" y="385.333" width="3.20833" height="3.20833" fill="black"/>
<rect x="550.417" y="388.542" width="3.20833" height="3.20833" fill="black"/>
<rect x="550.417" y="391.75" width="3.20833" height="3.20833" fill="black"/>
<rect x="553.625" y="394.958" width="3.20833" height="3.20833" fill="black"/>
<rect x="556.834" y="398.167" width="3.20833" height="3.20833" fill="black"/>
<rect x="560.042" y="401.375" width="3.20833" height="3.20833" fill="black"/>
<rect x="563.25" y="401.375" width="3.20833" height="3.20833" fill="black"/>
<rect x="566.459" y="401.375" width="3.20833" height="3.20833" fill="black"/>
<rect x="569.667" y="401.375" width="3.20833" height="3.20833" fill="black"/>
<rect x="572.875" y="401.375" width="3.20833" height="3.20833" fill="black"/>
<rect x="576.084" y="401.375" width="3.20833" height="3.20833" fill="black"/>
<rect x="579.292" y="401.375" width="3.20833" height="3.20833" fill="black"/>
<rect x="582.5" y="401.375" width="3.20833" height="3.20833" fill="black"/>
<rect x="585.709" y="401.375" width="3.20833" height="3.20833" fill="black"/>
<rect x="588.917" y="401.375" width="3.20833" height="3.20833" fill="black"/>
<rect x="592.125" y="401.375" width="3.20833" height="3.20833" fill="black"/>
<rect x="595.334" y="401.375" width="3.20833" height="3.20833" fill="black"/>
<rect x="598.542" y="401.375" width="3.20833" height="3.20833" fill="black"/>
<rect x="601.75" y="401.375" width="3.20833" height="3.20833" fill="black"/>
<rect x="604.959" y="398.167" width="3.20833" height="3.20833" fill="black"/>
<rect x="608.167" y="394.958" width="3.20833" height="3.20833" fill="black"/>
<rect x="611.375" y="391.75" width="3.20833" height="3.20833" fill="black"/>
<rect x="611.375" y="388.542" width="3.20833" height="3.20833" fill="black"/>
<rect x="611.375" y="385.333" width="3.20833" height="3.20833" fill="black"/>
<rect x="611.375" y="382.125" width="3.20833" height="3.20833" fill="black"/>
<rect x="611.375" y="378.917" width="3.20833" height="3.20833" fill="black"/>
<rect x="611.375" y="375.708" width="3.20833" height="3.20833" fill="black"/>
<rect x="611.375" y="372.5" width="3.20833" height="3.20833" fill="black"/>
<rect x="611.375" y="369.292" width="3.20833" height="3.20833" fill="black"/>
<rect x="611.375" y="366.083" width="3.20833" height="3.20833" fill="black"/>
<rect x="611.375" y="362.875" width="3.20833" height="3.20833" fill="black"/>
<rect x="611.375" y="359.667" width="3.20833" height="3.20833" fill="black"/>
<rect x="611.375" y="356.458" width="3.20833" height="3.20833" fill="black"/>
<rect x="611.375" y="353.25" width="3.20833" height="3.20833" fill="black"/>
<rect x="611.375" y="350.042" width="3.20833" height="3.20833" fill="black"/>
<rect x="608.167" y="346.833" width="3.20833" height="3.20833" fill="black"/>
<rect x="604.959" y="343.625" width="3.20833" height="3.20833" fill="black"/>
<rect x="448.042" y="340.417" width="3.20833" height="3.20833" fill="black"/>
<rect x="451.25" y="340.417" width="3.20833" height="3.20833" fill="black"/>
<rect x="454.459" y="340.417" width="3.20833" height="3.20833" fill="black"/>
<rect x="457.667" y="340.417" width="3.20833" height="3.20833" fill="black"/>
<rect x="460.875" y="340.417" width="3.20833" height="3.20833" fill="black"/>
<rect x="464.084" y="340.417" width="3.20833" height="3.20833" fill="black"/>
<rect x="467.292" y="340.417" width="3.20833" height="3.20833" fill="black"/>
<rect x="470.5" y="340.417" width="3.20833" height="3.20833" fill="black"/>
<rect x="473.709" y="340.417" width="3.20833" height="3.20833" fill="black"/>
<rect x="476.917" y="340.417" width="3.20833" height="3.20833" fill="black"/>
<rect x="480.125" y="340.417" width="3.20833" height="3.20833" fill="black"/>
<rect x="483.334" y="340.417" width="3.20833" height="3.20833" fill="black"/>
<rect x="486.542" y="340.417" width="3.20833" height="3.20833" fill="black"/>
<rect x="489.75" y="340.417" width="3.20833" height="3.20833" fill="black"/>
<rect x="444.834" y="343.625" width="3.20833" height="3.20833" fill="black"/>
<rect x="441.625" y="346.833" width="3.20833" height="3.20833" fill="black"/>
<rect x="438.417" y="350.042" width="3.20833" height="3.20833" fill="black"/>
<rect x="438.417" y="353.25" width="3.20833" height="3.20833" fill="black"/>
<rect x="438.417" y="356.458" width="3.20833" height="3.20833" fill="black"/>
<rect x="438.417" y="359.667" width="3.20833" height="3.20833" fill="black"/>
<rect x="438.417" y="362.875" width="3.20833" height="3.20833" fill="black"/>
<rect x="438.417" y="366.083" width="3.20833" height="3.20833" fill="black"/>
<rect x="438.417" y="369.292" width="3.20833" height="3.20833" fill="black"/>
<rect x="438.417" y="372.5" width="3.20833" height="3.20833" fill="black"/>
<rect x="438.417" y="375.708" width="3.20833" height="3.20833" fill="black"/>
<rect x="438.417" y="378.917" width="3.20833" height="3.20833" fill="black"/>
<rect x="438.417" y="382.125" width="3.20833" height="3.20833" fill="black"/>
<rect x="438.417" y="385.333" width="3.20833" height="3.20833" fill="black"/>
<rect x="438.417" y="388.542" width="3.20833" height="3.20833" fill="black"/>
<rect x="438.417" y="391.75" width="3.20833" height="3.20833" fill="black"/>
<rect x="441.625" y="394.958" width="3.20833" height="3.20833" fill="black"/>
<rect x="444.834" y="398.167" width="3.20833" height="3.20833" fill="black"/>
<rect x="448.042" y="401.375" width="3.20833" height="3.20833" fill="black"/>
<rect x="451.25" y="401.375" width="3.20833" height="3.20833" fill="black"/>
<rect x="454.459" y="401.375" width="3.20833" height="3.20833" fill="black"/>
<rect x="457.667" y="401.375" width="3.20833" height="3.20833" fill="black"/>
<rect x="460.875" y="401.375" width="3.20833" height="3.20833" fill="black"/>
<rect x="464.084" y="401.375" width="3.20833" height="3.20833" fill="black"/>
<rect x="467.292" y="401.375" width="3.20833" height="3.20833" fill="black"/>
<rect x="470.5" y="401.375" width="3.20833" height="3.20833" fill="black"/>
<rect x="473.709" y="401.375" width="3.20833" height="3.20833" fill="black"/>
<rect x="476.917" y="401.375" width="3.20833" height="3.20833" fill="black"/>
<rect x="480.125" y="401.375" width="3.20833" height="3.20833" fill="black"/>
<rect x="483.334" y="401.375" width="3.20833" height="3.20833" fill="black"/>
<rect x="486.542" y="401.375" width="3.20833" height="3.20833" fill="black"/>
<rect x="489.75" y="401.375" width="3.20833" height="3.20833" fill="black"/>
<rect x="492.959" y="398.167" width="3.20833" height="3.20833" fill="black"/>
<rect x="496.167" y="394.958" width="3.20833" height="3.20833" fill="black"/>
<rect x="499.375" y="391.75" width="3.20833" height="3.20833" fill="black"/>
<rect x="499.375" y="388.542" width="3.20833" height="3.20833" fill="black"/>
<rect x="499.375" y="385.333" width="3.20833" height="3.20833" fill="black"/>
<rect x="499.375" y="382.125" width="3.20833" height="3.20833" fill="black"/>
<rect x="499.375" y="378.917" width="3.20833" height="3.20833" fill="black"/>
<rect x="499.375" y="375.708" width="3.20833" height="3.20833" fill="black"/>
<rect x="499.375" y="372.5" width="3.20833" height="3.20833" fill="black"/>
<rect x="499.375" y="369.292" width="3.20833" height="3.20833" fill="black"/>
<rect x="499.375" y="366.083" width="3.20833" height="3.20833" fill="black"/>
<rect x="499.375" y="362.875" width="3.20833" height="3.20833" fill="black"/>
<rect x="499.375" y="359.667" width="3.20833" height="3.20833" fill="black"/>
<rect x="499.375" y="356.458" width="3.20833" height="3.20833" fill="black"/>
<rect x="499.375" y="353.25" width="3.20833" height="3.20833" fill="black"/>
<rect x="499.375" y="350.042" width="3.20833" height="3.20833" fill="black"/>
<rect x="496.167" y="346.833" width="3.20833" height="3.20833" fill="black"/>
<rect x="492.959" y="343.625" width="3.20833" height="3.20833" fill="black"/>
<rect x="341.042" y="339.417" width="3.20833" height="3.20833" fill="black"/>
<rect x="344.25" y="339.417" width="3.20833" height="3.20833" fill="black"/>
<rect x="347.459" y="339.417" width="3.20833" height="3.20833" fill="black"/>
<rect x="350.667" y="339.417" width="3.20833" height="3.20833" fill="black"/>
<rect x="353.875" y="339.417" width="3.20833" height="3.20833" fill="black"/>
<rect x="357.084" y="339.417" width="3.20833" height="3.20833" fill="black"/>
<rect x="360.292" y="339.417" width="3.20833" height="3.20833" fill="black"/>
<rect x="363.5" y="339.417" width="3.20833" height="3.20833" fill="black"/>
<rect x="366.709" y="339.417" width="3.20833" height="3.20833" fill="black"/>
<rect x="369.917" y="339.417" width="3.20833" height="3.20833" fill="black"/>
<rect x="373.125" y="339.417" width="3.20833" height="3.20833" fill="black"/>
<rect x="376.334" y="339.417" width="3.20833" height="3.20833" fill="black"/>
<rect x="379.542" y="339.417" width="3.20833" height="3.20833" fill="black"/>
<rect x="382.75" y="339.417" width="3.20833" height="3.20833" fill="black"/>
<rect x="337.834" y="342.625" width="3.20833" height="3.20833" fill="black"/>
<rect x="334.625" y="345.833" width="3.20833" height="3.20833" fill="black"/>
<rect x="331.417" y="349.042" width="3.20833" height="3.20833" fill="black"/>
<rect x="331.417" y="352.25" width="3.20833" height="3.20833" fill="black"/>
<rect x="331.417" y="355.458" width="3.20833" height="3.20833" fill="black"/>
<rect x="331.417" y="358.667" width="3.20833" height="3.20833" fill="black"/>
<rect x="331.417" y="361.875" width="3.20833" height="3.20833" fill="black"/>
<rect x="331.417" y="365.083" width="3.20833" height="3.20833" fill="black"/>
<rect x="331.417" y="368.292" width="3.20833" height="3.20833" fill="black"/>
<rect x="331.417" y="371.5" width="3.20833" height="3.20833" fill="black"/>
<rect x="331.417" y="374.708" width="3.20833" height="3.20833" fill="black"/>
<rect x="331.417" y="377.917" width="3.20833" height="3.20833" fill="black"/>
<rect x="331.417" y="381.125" width="3.20833" height="3.20833" fill="black"/>
<rect x="331.417" y="384.333" width="3.20833" height="3.20833" fill="black"/>
<rect x="331.417" y="387.542" width="3.20833" height="3.20833" fill="black"/>
<rect x="331.417" y="390.75" width="3.20833" height="3.20833" fill="black"/>
<rect x="334.625" y="393.958" width="3.20833" height="3.20833" fill="black"/>
<rect x="337.834" y="397.167" width="3.20833" height="3.20833" fill="black"/>
<rect x="341.042" y="400.375" width="3.20833" height="3.20833" fill="black"/>
<rect x="344.25" y="400.375" width="3.20833" height="3.20833" fill="black"/>
<rect x="347.459" y="400.375" width="3.20833" height="3.20833" fill="black"/>
<rect x="350.667" y="400.375" width="3.20833" height="3.20833" fill="black"/>
<rect x="353.875" y="400.375" width="3.20833" height="3.20833" fill="black"/>
<rect x="357.084" y="400.375" width="3.20833" height="3.20833" fill="black"/>
<rect x="360.292" y="400.375" width="3.20833" height="3.20833" fill="black"/>
<rect x="363.5" y="400.375" width="3.20833" height="3.20833" fill="black"/>
<rect x="366.709" y="400.375" width="3.20833" height="3.20833" fill="black"/>
<rect x="369.917" y="400.375" width="3.20833" height="3.20833" fill="black"/>
<rect x="373.125" y="400.375" width="3.20833" height="3.20833" fill="black"/>
<rect x="376.334" y="400.375" width="3.20833" height="3.20833" fill="black"/>
<rect x="379.542" y="400.375" width="3.20833" height="3.20833" fill="black"/>
<rect x="382.75" y="400.375" width="3.20833" height="3.20833" fill="black"/>
<rect x="385.959" y="397.167" width="3.20833" height="3.20833" fill="black"/>
<rect x="389.167" y="393.958" width="3.20833" height="3.20833" fill="black"/>
<rect x="392.375" y="390.75" width="3.20833" height="3.20833" fill="black"/>
<rect x="392.375" y="387.542" width="3.20833" height="3.20833" fill="black"/>
<rect x="392.375" y="384.333" width="3.20833" height="3.20833" fill="black"/>
<rect x="392.375" y="381.125" width="3.20833" height="3.20833" fill="black"/>
<rect x="392.375" y="377.917" width="3.20833" height="3.20833" fill="black"/>
<rect x="392.375" y="374.708" width="3.20833" height="3.20833" fill="black"/>
<rect x="392.375" y="371.5" width="3.20833" height="3.20833" fill="black"/>
<rect x="392.375" y="368.292" width="3.20833" height="3.20833" fill="black"/>
<rect x="392.375" y="365.083" width="3.20833" height="3.20833" fill="black"/>
<rect x="392.375" y="361.875" width="3.20833" height="3.20833" fill="black"/>
<rect x="392.375" y="358.667" width="3.20833" height="3.20833" fill="black"/>
<rect x="392.375" y="355.458" width="3.20833" height="3.20833" fill="black"/>
<rect x="392.375" y="352.25" width="3.20833" height="3.20833" fill="black"/>
<rect x="392.375" y="349.042" width="3.20833" height="3.20833" fill="black"/>
<rect x="389.167" y="345.833" width="3.20833" height="3.20833" fill="black"/>
<rect x="385.959" y="342.625" width="3.20833" height="3.20833" fill="black"/>
<rect x="232.042" y="339.417" width="3.20833" height="3.20833" fill="black"/>
<rect x="235.25" y="339.417" width="3.20833" height="3.20833" fill="black"/>
<rect x="238.459" y="339.417" width="3.20833" height="3.20833" fill="black"/>
<rect x="241.667" y="339.417" width="3.20833" height="3.20833" fill="black"/>
<rect x="244.875" y="339.417" width="3.20833" height="3.20833" fill="black"/>
<rect x="248.084" y="339.417" width="3.20833" height="3.20833" fill="black"/>
<rect x="251.292" y="339.417" width="3.20833" height="3.20833" fill="black"/>
<rect x="254.5" y="339.417" width="3.20833" height="3.20833" fill="black"/>
<rect x="257.709" y="339.417" width="3.20833" height="3.20833" fill="black"/>
<rect x="260.917" y="339.417" width="3.20833" height="3.20833" fill="black"/>
<rect x="264.125" y="339.417" width="3.20833" height="3.20833" fill="black"/>
<rect x="267.334" y="339.417" width="3.20833" height="3.20833" fill="black"/>
<rect x="270.542" y="339.417" width="3.20833" height="3.20833" fill="black"/>
<rect x="273.75" y="339.417" width="3.20833" height="3.20833" fill="black"/>
<rect x="228.834" y="342.625" width="3.20833" height="3.20833" fill="black"/>
<rect x="225.625" y="345.833" width="3.20833" height="3.20833" fill="black"/>
<rect x="222.417" y="349.042" width="3.20833" height="3.20833" fill="black"/>
<rect x="222.417" y="352.25" width="3.20833" height="3.20833" fill="black"/>
<rect x="222.417" y="355.458" width="3.20833" height="3.20833" fill="black"/>
<rect x="222.417" y="358.667" width="3.20833" height="3.20833" fill="black"/>
<rect x="222.417" y="361.875" width="3.20833" height="3.20833" fill="black"/>
<rect x="222.417" y="365.083" width="3.20833" height="3.20833" fill="black"/>
<rect x="222.417" y="368.292" width="3.20833" height="3.20833" fill="black"/>
<rect x="222.417" y="371.5" width="3.20833" height="3.20833" fill="black"/>
<rect x="222.417" y="374.708" width="3.20833" height="3.20833" fill="black"/>
<rect x="222.417" y="377.917" width="3.20833" height="3.20833" fill="black"/>
<rect x="222.417" y="381.125" width="3.20833" height="3.20833" fill="black"/>
<rect x="222.417" y="384.333" width="3.20833" height="3.20833" fill="black"/>
<rect x="222.417" y="387.542" width="3.20833" height="3.20833" fill="black"/>
<rect x="222.417" y="390.75" width="3.20833" height="3.20833" fill="black"/>
<rect x="225.625" y="393.958" width="3.20833" height="3.20833" fill="black"/>
<rect x="228.834" y="397.167" width="3.20833" height="3.20833" fill="black"/>
<rect x="232.042" y="400.375" width="3.20833" height="3.20833" fill="black"/>
<rect x="235.25" y="400.375" width="3.20833" height="3.20833" fill="black"/>
<rect x="238.459" y="400.375" width="3.20833" height="3.20833" fill="black"/>
<rect x="241.667" y="400.375" width="3.20833" height="3.20833" fill="black"/>
<rect x="244.875" y="400.375" width="3.20833" height="3.20833" fill="black"/>
<rect x="248.084" y="400.375" width="3.20833" height="3.20833" fill="black"/>
<rect x="251.292" y="400.375" width="3.20833" height="3.20833" fill="black"/>
<rect x="254.5" y="400.375" width="3.20833" height="3.20833" fill="black"/>
<rect x="257.709" y="400.375" width="3.20833" height="3.20833" fill="black"/>
<rect x="260.917" y="400.375" width="3.20833" height="3.20833" fill="black"/>
<rect x="264.125" y="400.375" width="3.20833" height="3.20833" fill="black"/>
<rect x="267.334" y="400.375" width="3.20833" height="3.20833" fill="black"/>
<rect x="270.542" y="400.375" width="3.20833" height="3.20833" fill="black"/>
<rect x="273.75" y="400.375" width="3.20833" height="3.20833" fill="black"/>
<rect x="276.959" y="397.167" width="3.20833" height="3.20833" fill="black"/>
<rect x="280.167" y="393.958" width="3.20833" height="3.20833" fill="black"/>
<rect x="283.375" y="390.75" width="3.20833" height="3.20833" fill="black"/>
<rect x="283.375" y="387.542" width="3.20833" height="3.20833" fill="black"/>
<rect x="283.375" y="384.333" width="3.20833" height="3.20833" fill="black"/>
<rect x="283.375" y="381.125" width="3.20833" height="3.20833" fill="black"/>
<rect x="283.375" y="377.917" width="3.20833" height="3.20833" fill="black"/>
<rect x="283.375" y="374.708" width="3.20833" height="3.20833" fill="black"/>
<rect x="283.375" y="371.5" width="3.20833" height="3.20833" fill="black"/>
<rect x="283.375" y="368.292" width="3.20833" height="3.20833" fill="black"/>
<rect x="283.375" y="365.083" width="3.20833" height="3.20833" fill="black"/>
<rect x="283.375" y="361.875" width="3.20833" height="3.20833" fill="black"/>
<rect x="283.375" y="358.667" width="3.20833" height="3.20833" fill="black"/>
<rect x="283.375" y="355.458" width="3.20833" height="3.20833" fill="black"/>
<rect x="283.375" y="352.25" width="3.20833" height="3.20833" fill="black"/>
<rect x="283.375" y="349.042" width="3.20833" height="3.20833" fill="black"/>
<rect x="280.167" y="345.833" width="3.20833" height="3.20833" fill="black"/>
<rect x="276.959" y="342.625" width="3.20833" height="3.20833" fill="black"/>
<rect x="132.042" y="249.417" width="3.20833" height="3.20833" fill="black"/>
<rect x="135.25" y="249.417" width="3.20833" height="3.20833" fill="black"/>
<rect x="138.459" y="249.417" width="3.20833" height="3.20833" fill="black"/>
<rect x="141.667" y="249.417" width="3.20833" height="3.20833" fill="black"/>
<rect x="144.875" y="249.417" width="3.20833" height="3.20833" fill="black"/>
<rect x="148.084" y="249.417" width="3.20833" height="3.20833" fill="black"/>
<rect x="151.292" y="249.417" width="3.20833" height="3.20833" fill="black"/>
<rect x="154.5" y="249.417" width="3.20833" height="3.20833" fill="black"/>
<rect x="157.709" y="249.417" width="3.20833" height="3.20833" fill="black"/>
<rect x="160.917" y="249.417" width="3.20833" height="3.20833" fill="black"/>
<rect x="164.125" y="249.417" width="3.20833" height="3.20833" fill="black"/>
<rect x="167.334" y="249.417" width="3.20833" height="3.20833" fill="black"/>
<rect x="170.542" y="249.417" width="3.20833" height="3.20833" fill="black"/>
<rect x="173.75" y="249.417" width="3.20833" height="3.20833" fill="black"/>
<rect x="128.834" y="252.625" width="3.20833" height="3.20833" fill="black"/>
<rect x="125.625" y="255.833" width="3.20833" height="3.20833" fill="black"/>
<rect x="122.417" y="259.042" width="3.20833" height="3.20833" fill="black"/>
<rect x="122.417" y="262.25" width="3.20833" height="3.20833" fill="black"/>
<rect x="122.417" y="265.458" width="3.20833" height="3.20833" fill="black"/>
<rect x="122.417" y="268.667" width="3.20833" height="3.20833" fill="black"/>
<rect x="122.417" y="271.875" width="3.20833" height="3.20833" fill="black"/>
<rect x="122.417" y="275.083" width="3.20833" height="3.20833" fill="black"/>
<rect x="122.417" y="278.292" width="3.20833" height="3.20833" fill="black"/>
<rect x="122.417" y="281.5" width="3.20833" height="3.20833" fill="black"/>
<rect x="122.417" y="284.708" width="3.20833" height="3.20833" fill="black"/>
<rect x="122.417" y="287.917" width="3.20833" height="3.20833" fill="black"/>
<rect x="122.417" y="291.125" width="3.20833" height="3.20833" fill="black"/>
<rect x="122.417" y="294.333" width="3.20833" height="3.20833" fill="black"/>
<rect x="122.417" y="297.542" width="3.20833" height="3.20833" fill="black"/>
<rect x="122.417" y="300.75" width="3.20833" height="3.20833" fill="black"/>
<rect x="125.625" y="303.958" width="3.20833" height="3.20833" fill="black"/>
<rect x="128.834" y="307.167" width="3.20833" height="3.20833" fill="black"/>
<rect x="132.042" y="310.375" width="3.20833" height="3.20833" fill="black"/>
<rect x="135.25" y="310.375" width="3.20833" height="3.20833" fill="black"/>
<rect x="138.459" y="310.375" width="3.20833" height="3.20833" fill="black"/>
<rect x="141.667" y="310.375" width="3.20833" height="3.20833" fill="black"/>
<rect x="144.875" y="310.375" width="3.20833" height="3.20833" fill="black"/>
<rect x="148.084" y="310.375" width="3.20833" height="3.20833" fill="black"/>
<rect x="151.292" y="310.375" width="3.20833" height="3.20833" fill="black"/>
<rect x="154.5" y="310.375" width="3.20833" height="3.20833" fill="black"/>
<rect x="157.709" y="310.375" width="3.20833" height="3.20833" fill="black"/>
<rect x="160.917" y="310.375" width="3.20833" height="3.20833" fill="black"/>
<rect x="164.125" y="310.375" width="3.20833" height="3.20833" fill="black"/>
<rect x="167.334" y="310.375" width="3.20833" height="3.20833" fill="black"/>
<rect x="170.542" y="310.375" width="3.20833" height="3.20833" fill="black"/>
<rect x="173.75" y="310.375" width="3.20833" height="3.20833" fill="black"/>
<rect x="176.959" y="307.167" width="3.20833" height="3.20833" fill="black"/>
<rect x="180.167" y="303.958" width="3.20833" height="3.20833" fill="black"/>
<rect x="183.375" y="300.75" width="3.20833" height="3.20833" fill="black"/>
<rect x="183.375" y="297.542" width="3.20833" height="3.20833" fill="black"/>
<rect x="183.375" y="294.333" width="3.20833" height="3.20833" fill="black"/>
<rect x="183.375" y="291.125" width="3.20833" height="3.20833" fill="black"/>
<rect x="183.375" y="287.917" width="3.20833" height="3.20833" fill="black"/>
<rect x="183.375" y="284.708" width="3.20833" height="3.20833" fill="black"/>
<rect x="183.375" y="281.5" width="3.20833" height="3.20833" fill="black"/>
<rect x="183.375" y="278.292" width="3.20833" height="3.20833" fill="black"/>
<rect x="183.375" y="275.083" width="3.20833" height="3.20833" fill="black"/>
<rect x="183.375" y="271.875" width="3.20833" height="3.20833" fill="black"/>
<rect x="183.375" y="268.667" width="3.20833" height="3.20833" fill="black"/>
<rect x="183.375" y="265.458" width="3.20833" height="3.20833" fill="black"/>
<rect x="183.375" y="262.25" width="3.20833" height="3.20833" fill="black"/>
<rect x="183.375" y="259.042" width="3.20833" height="3.20833" fill="black"/>
<rect x="180.167" y="255.833" width="3.20833" height="3.20833" fill="black"/>
<rect x="176.959" y="252.625" width="3.20833" height="3.20833" fill="black"/>
<rect x="560.042" y="250.417" width="3.20833" height="3.20833" fill="black"/>
<rect x="563.25" y="250.417" width="3.20833" height="3.20833" fill="black"/>
<rect x="566.459" y="250.417" width="3.20833" height="3.20833" fill="black"/>
<rect x="569.667" y="250.417" width="3.20833" height="3.20833" fill="black"/>
<rect x="572.875" y="250.417" width="3.20833" height="3.20833" fill="black"/>
<rect x="576.084" y="250.417" width="3.20833" height="3.20833" fill="black"/>
<rect x="579.292" y="250.417" width="3.20833" height="3.20833" fill="black"/>
<rect x="582.5" y="250.417" width="3.20833" height="3.20833" fill="black"/>
<rect x="585.709" y="250.417" width="3.20833" height="3.20833" fill="black"/>
<rect x="588.917" y="250.417" width="3.20833" height="3.20833" fill="black"/>
<rect x="592.125" y="250.417" width="3.20833" height="3.20833" fill="black"/>
<rect x="595.334" y="250.417" width="3.20833" height="3.20833" fill="black"/>
<rect x="598.542" y="250.417" width="3.20833" height="3.20833" fill="black"/>
<rect x="601.75" y="250.417" width="3.20833" height="3.20833" fill="black"/>
<rect x="556.834" y="253.625" width="3.20833" height="3.20833" fill="black"/>
<rect x="553.625" y="256.833" width="3.20833" height="3.20833" fill="black"/>
<rect x="550.417" y="260.042" width="3.20833" height="3.20833" fill="black"/>
<rect x="550.417" y="263.25" width="3.20833" height="3.20833" fill="black"/>
<rect x="550.417" y="266.458" width="3.20833" height="3.20833" fill="black"/>
<rect x="550.417" y="269.667" width="3.20833" height="3.20833" fill="black"/>
<rect x="550.417" y="272.875" width="3.20833" height="3.20833" fill="black"/>
<rect x="550.417" y="276.083" width="3.20833" height="3.20833" fill="black"/>
<rect x="550.417" y="279.292" width="3.20833" height="3.20833" fill="black"/>
<rect x="550.417" y="282.5" width="3.20833" height="3.20833" fill="black"/>
<rect x="550.417" y="285.708" width="3.20833" height="3.20833" fill="black"/>
<rect x="550.417" y="288.917" width="3.20833" height="3.20833" fill="black"/>
<rect x="550.417" y="292.125" width="3.20833" height="3.20833" fill="black"/>
<rect x="550.417" y="295.333" width="3.20833" height="3.20833" fill="black"/>
<rect x="550.417" y="298.542" width="3.20833" height="3.20833" fill="black"/>
<rect x="550.417" y="301.75" width="3.20833" height="3.20833" fill="black"/>
<rect x="553.625" y="304.958" width="3.20833" height="3.20833" fill="black"/>
<rect x="556.834" y="308.167" width="3.20833" height="3.20833" fill="black"/>
<rect x="560.042" y="311.375" width="3.20833" height="3.20833" fill="black"/>
<rect x="563.25" y="311.375" width="3.20833" height="3.20833" fill="black"/>
<rect x="566.459" y="311.375" width="3.20833" height="3.20833" fill="black"/>
<rect x="569.667" y="311.375" width="3.20833" height="3.20833" fill="black"/>
<rect x="572.875" y="311.375" width="3.20833" height="3.20833" fill="black"/>
<rect x="576.084" y="311.375" width="3.20833" height="3.20833" fill="black"/>
<rect x="579.292" y="311.375" width="3.20833" height="3.20833" fill="black"/>
<rect x="582.5" y="311.375" width="3.20833" height="3.20833" fill="black"/>
<rect x="585.709" y="311.375" width="3.20833" height="3.20833" fill="black"/>
<rect x="588.917" y="311.375" width="3.20833" height="3.20833" fill="black"/>
<rect x="592.125" y="311.375" width="3.20833" height="3.20833" fill="black"/>
<rect x="595.334" y="311.375" width="3.20833" height="3.20833" fill="black"/>
<rect x="598.542" y="311.375" width="3.20833" height="3.20833" fill="black"/>
<rect x="601.75" y="311.375" width="3.20833" height="3.20833" fill="black"/>
<rect x="604.959" y="308.167" width="3.20833" height="3.20833" fill="black"/>
<rect x="608.167" y="304.958" width="3.20833" height="3.20833" fill="black"/>
<rect x="611.375" y="301.75" width="3.20833" height="3.20833" fill="black"/>
<rect x="611.375" y="298.542" width="3.20833" height="3.20833" fill="black"/>
<rect x="611.375" y="295.333" width="3.20833" height="3.20833" fill="black"/>
<rect x="611.375" y="292.125" width="3.20833" height="3.20833" fill="black"/>
<rect x="611.375" y="288.917" width="3.20833" height="3.20833" fill="black"/>
<rect x="611.375" y="285.708" width="3.20833" height="3.20833" fill="black"/>
<rect x="611.375" y="282.5" width="3.20833" height="3.20833" fill="black"/>
<rect x="611.375" y="279.292" width="3.20833" height="3.20833" fill="black"/>
<rect x="611.375" y="276.083" width="3.20833" height="3.20833" fill="black"/>
<rect x="611.375" y="272.875" width="3.20833" height="3.20833" fill="black"/>
<rect x="611.375" y="269.667" width="3.20833" height="3.20833" fill="black"/>
<rect x="611.375" y="266.458" width="3.20833" height="3.20833" fill="black"/>
<rect x="611.375" y="263.25" width="3.20833" height="3.20833" fill="black"/>
<rect x="611.375" y="260.042" width="3.20833" height="3.20833" fill="black"/>
<rect x="608.167" y="256.833" width="3.20833" height="3.20833" fill="black"/>
<rect x="604.959" y="253.625" width="3.20833" height="3.20833" fill="black"/>
<rect x="448.042" y="250.417" width="3.20833" height="3.20833" fill="black"/>
<rect x="451.25" y="250.417" width="3.20833" height="3.20833" fill="black"/>
<rect x="454.459" y="250.417" width="3.20833" height="3.20833" fill="black"/>
<rect x="457.667" y="250.417" width="3.20833" height="3.20833" fill="black"/>
<rect x="460.875" y="250.417" width="3.20833" height="3.20833" fill="black"/>
<rect x="464.084" y="250.417" width="3.20833" height="3.20833" fill="black"/>
<rect x="467.292" y="250.417" width="3.20833" height="3.20833" fill="black"/>
<rect x="470.5" y="250.417" width="3.20833" height="3.20833" fill="black"/>
<rect x="473.709" y="250.417" width="3.20833" height="3.20833" fill="black"/>
<rect x="476.917" y="250.417" width="3.20833" height="3.20833" fill="black"/>
<rect x="480.125" y="250.417" width="3.20833" height="3.20833" fill="black"/>
<rect x="483.334" y="250.417" width="3.20833" height="3.20833" fill="black"/>
<rect x="486.542" y="250.417" width="3.20833" height="3.20833" fill="black"/>
<rect x="489.75" y="250.417" width="3.20833" height="3.20833" fill="black"/>
<rect x="444.834" y="253.625" width="3.20833" height="3.20833" fill="black"/>
<rect x="441.625" y="256.833" width="3.20833" height="3.20833" fill="black"/>
<rect x="438.417" y="260.042" width="3.20833" height="3.20833" fill="black"/>
<rect x="438.417" y="263.25" width="3.20833" height="3.20833" fill="black"/>
<rect x="438.417" y="266.458" width="3.20833" height="3.20833" fill="black"/>
<rect x="438.417" y="269.667" width="3.20833" height="3.20833" fill="black"/>
<rect x="438.417" y="272.875" width="3.20833" height="3.20833" fill="black"/>
<rect x="438.417" y="276.083" width="3.20833" height="3.20833" fill="black"/>
<rect x="438.417" y="279.292" width="3.20833" height="3.20833" fill="black"/>
<rect x="438.417" y="282.5" width="3.20833" height="3.20833" fill="black"/>
<rect x="438.417" y="285.708" width="3.20833" height="3.20833" fill="black"/>
<rect x="438.417" y="288.917" width="3.20833" height="3.20833" fill="black"/>
<rect x="438.417" y="292.125" width="3.20833" height="3.20833" fill="black"/>
<rect x="438.417" y="295.333" width="3.20833" height="3.20833" fill="black"/>
<rect x="438.417" y="298.542" width="3.20833" height="3.20833" fill="black"/>
<rect x="438.417" y="301.75" width="3.20833" height="3.20833" fill="black"/>
<rect x="441.625" y="304.958" width="3.20833" height="3.20833" fill="black"/>
<rect x="444.834" y="308.167" width="3.20833" height="3.20833" fill="black"/>
<rect x="448.042" y="311.375" width="3.20833" height="3.20833" fill="black"/>
<rect x="451.25" y="311.375" width="3.20833" height="3.20833" fill="black"/>
<rect x="454.459" y="311.375" width="3.20833" height="3.20833" fill="black"/>
<rect x="457.667" y="311.375" width="3.20833" height="3.20833" fill="black"/>
<rect x="460.875" y="311.375" width="3.20833" height="3.20833" fill="black"/>
<rect x="464.084" y="311.375" width="3.20833" height="3.20833" fill="black"/>
<rect x="467.292" y="311.375" width="3.20833" height="3.20833" fill="black"/>
<rect x="470.5" y="311.375" width="3.20833" height="3.20833" fill="black"/>
<rect x="473.709" y="311.375" width="3.20833" height="3.20833" fill="black"/>
<rect x="476.917" y="311.375" width="3.20833" height="3.20833" fill="black"/>
<rect x="480.125" y="311.375" width="3.20833" height="3.20833" fill="black"/>
<rect x="483.334" y="311.375" width="3.20833" height="3.20833" fill="black"/>
<rect x="486.542" y="311.375" width="3.20833" height="3.20833" fill="black"/>
<rect x="489.75" y="311.375" width="3.20833" height="3.20833" fill="black"/>
<rect x="492.959" y="308.167" width="3.20833" height="3.20833" fill="black"/>
<rect x="496.167" y="304.958" width="3.20833" height="3.20833" fill="black"/>
<rect x="499.375" y="301.75" width="3.20833" height="3.20833" fill="black"/>
<rect x="499.375" y="298.542" width="3.20833" height="3.20833" fill="black"/>
<rect x="499.375" y="295.333" width="3.20833" height="3.20833" fill="black"/>
<rect x="499.375" y="292.125" width="3.20833" height="3.20833" fill="black"/>
<rect x="499.375" y="288.917" width="3.20833" height="3.20833" fill="black"/>
<rect x="499.375" y="285.708" width="3.20833" height="3.20833" fill="black"/>
<rect x="499.375" y="282.5" width="3.20833" height="3.20833" fill="black"/>
<rect x="499.375" y="279.292" width="3.20833" height="3.20833" fill="black"/>
<rect x="499.375" y="276.083" width="3.20833" height="3.20833" fill="black"/>
<rect x="499.375" y="272.875" width="3.20833" height="3.20833" fill="black"/>
<rect x="499.375" y="269.667" width="3.20833" height="3.20833" fill="black"/>
<rect x="499.375" y="266.458" width="3.20833" height="3.20833" fill="black"/>
<rect x="499.375" y="263.25" width="3.20833" height="3.20833" fill="black"/>
<rect x="499.375" y="260.042" width="3.20833" height="3.20833" fill="black"/>
<rect x="496.167" y="256.833" width="3.20833" height="3.20833" fill="black"/>
<rect x="492.959" y="253.625" width="3.20833" height="3.20833" fill="black"/>
<rect x="341.042" y="249.417" width="3.20833" height="3.20833" fill="black"/>
<rect x="344.25" y="249.417" width="3.20833" height="3.20833" fill="black"/>
<rect x="347.459" y="249.417" width="3.20833" height="3.20833" fill="black"/>
<rect x="350.667" y="249.417" width="3.20833" height="3.20833" fill="black"/>
<rect x="353.875" y="249.417" width="3.20833" height="3.20833" fill="black"/>
<rect x="357.084" y="249.417" width="3.20833" height="3.20833" fill="black"/>
<rect x="360.292" y="249.417" width="3.20833" height="3.20833" fill="black"/>
<rect x="363.5" y="249.417" width="3.20833" height="3.20833" fill="black"/>
<rect x="366.709" y="249.417" width="3.20833" height="3.20833" fill="black"/>
<rect x="369.917" y="249.417" width="3.20833" height="3.20833" fill="black"/>
<rect x="373.125" y="249.417" width="3.20833" height="3.20833" fill="black"/>
<rect x="376.334" y="249.417" width="3.20833" height="3.20833" fill="black"/>
<rect x="379.542" y="249.417" width="3.20833" height="3.20833" fill="black"/>
<rect x="382.75" y="249.417" width="3.20833" height="3.20833" fill="black"/>
<rect x="337.834" y="252.625" width="3.20833" height="3.20833" fill="black"/>
<rect x="334.625" y="255.833" width="3.20833" height="3.20833" fill="black"/>
<rect x="331.417" y="259.042" width="3.20833" height="3.20833" fill="black"/>
<rect x="331.417" y="262.25" width="3.20833" height="3.20833" fill="black"/>
<rect x="331.417" y="265.458" width="3.20833" height="3.20833" fill="black"/>
<rect x="331.417" y="268.667" width="3.20833" height="3.20833" fill="black"/>
<rect x="331.417" y="271.875" width="3.20833" height="3.20833" fill="black"/>
<rect x="331.417" y="275.083" width="3.20833" height="3.20833" fill="black"/>
<rect x="331.417" y="278.292" width="3.20833" height="3.20833" fill="black"/>
<rect x="331.417" y="281.5" width="3.20833" height="3.20833" fill="black"/>
<rect x="331.417" y="284.708" width="3.20833" height="3.20833" fill="black"/>
<rect x="331.417" y="287.917" width="3.20833" height="3.20833" fill="black"/>
<rect x="331.417" y="291.125" width="3.20833" height="3.20833" fill="black"/>
<rect x="331.417" y="294.333" width="3.20833" height="3.20833" fill="black"/>
<rect x="331.417" y="297.542" width="3.20833" height="3.20833" fill="black"/>
<rect x="331.417" y="300.75" width="3.20833" height="3.20833" fill="black"/>
<rect x="334.625" y="303.958" width="3.20833" height="3.20833" fill="black"/>
<rect x="337.834" y="307.167" width="3.20833" height="3.20833" fill="black"/>
<rect x="341.042" y="310.375" width="3.20833" height="3.20833" fill="black"/>
<rect x="344.25" y="310.375" width="3.20833" height="3.20833" fill="black"/>
<rect x="347.459" y="310.375" width="3.20833" height="3.20833" fill="black"/>
<rect x="350.667" y="310.375" width="3.20833" height="3.20833" fill="black"/>
<rect x="353.875" y="310.375" width="3.20833" height="3.20833" fill="black"/>
<rect x="357.084" y="310.375" width="3.20833" height="3.20833" fill="black"/>
<rect x="360.292" y="310.375" width="3.20833" height="3.20833" fill="black"/>
<rect x="363.5" y="310.375" width="3.20833" height="3.20833" fill="black"/>
<rect x="366.709" y="310.375" width="3.20833" height="3.20833" fill="black"/>
<rect x="369.917" y="310.375" width="3.20833" height="3.20833" fill="black"/>
<rect x="373.125" y="310.375" width="3.20833" height="3.20833" fill="black"/>
<rect x="376.334" y="310.375" width="3.20833" height="3.20833" fill="black"/>
<rect x="379.542" y="310.375" width="3.20833" height="3.20833" fill="black"/>
<rect x="382.75" y="310.375" width="3.20833" height="3.20833" fill="black"/>
<rect x="385.959" y="307.167" width="3.20833" height="3.20833" fill="black"/>
<rect x="389.167" y="303.958" width="3.20833" height="3.20833" fill="black"/>
<rect x="392.375" y="300.75" width="3.20833" height="3.20833" fill="black"/>
<rect x="392.375" y="297.542" width="3.20833" height="3.20833" fill="black"/>
<rect x="392.375" y="294.333" width="3.20833" height="3.20833" fill="black"/>
<rect x="392.375" y="291.125" width="3.20833" height="3.20833" fill="black"/>
<rect x="392.375" y="287.917" width="3.20833" height="3.20833" fill="black"/>
<rect x="392.375" y="284.708" width="3.20833" height="3.20833" fill="black"/>
<rect x="392.375" y="281.5" width="3.20833" height="3.20833" fill="black"/>
<rect x="392.375" y="278.292" width="3.20833" height="3.20833" fill="black"/>
<rect x="392.375" y="275.083" width="3.20833" height="3.20833" fill="black"/>
<rect x="392.375" y="271.875" width="3.20833" height="3.20833" fill="black"/>
<rect x="392.375" y="268.667" width="3.20833" height="3.20833" fill="black"/>
<rect x="392.375" y="265.458" width="3.20833" height="3.20833" fill="black"/>
<rect x="392.375" y="262.25" width="3.20833" height="3.20833" fill="black"/>
<rect x="392.375" y="259.042" width="3.20833" height="3.20833" fill="black"/>
<rect x="389.167" y="255.833" width="3.20833" height="3.20833" fill="black"/>
<rect x="385.959" y="252.625" width="3.20833" height="3.20833" fill="black"/>
<rect x="232.042" y="249.417" width="3.20833" height="3.20833" fill="black"/>
<rect x="235.25" y="249.417" width="3.20833" height="3.20833" fill="black"/>
<rect x="238.459" y="249.417" width="3.20833" height="3.20833" fill="black"/>
<rect x="241.667" y="249.417" width="3.20833" height="3.20833" fill="black"/>
<rect x="244.875" y="249.417" width="3.20833" height="3.20833" fill="black"/>
<rect x="248.084" y="249.417" width="3.20833" height="3.20833" fill="black"/>
<rect x="251.292" y="249.417" width="3.20833" height="3.20833" fill="black"/>
<rect x="254.5" y="249.417" width="3.20833" height="3.20833" fill="black"/>
<rect x="257.709" y="249.417" width="3.20833" height="3.20833" fill="black"/>
<rect x="260.917" y="249.417" width="3.20833" height="3.20833" fill="black"/>
<rect x="264.125" y="249.417" width="3.20833" height="3.20833" fill="black"/>
<rect x="267.334" y="249.417" width="3.20833" height="3.20833" fill="black"/>
<rect x="270.542" y="249.417" width="3.20833" height="3.20833" fill="black"/>
<rect x="273.75" y="249.417" width="3.20833" height="3.20833" fill="black"/>
<rect x="228.834" y="252.625" width="3.20833" height="3.20833" fill="black"/>
<rect x="225.625" y="255.833" width="3.20833" height="3.20833" fill="black"/>
<rect x="222.417" y="259.042" width="3.20833" height="3.20833" fill="black"/>
<rect x="222.417" y="262.25" width="3.20833" height="3.20833" fill="black"/>
<rect x="222.417" y="265.458" width="3.20833" height="3.20833" fill="black"/>
<rect x="222.417" y="268.667" width="3.20833" height="3.20833" fill="black"/>
<rect x="222.417" y="271.875" width="3.20833" height="3.20833" fill="black"/>
<rect x="222.417" y="275.083" width="3.20833" height="3.20833" fill="black"/>
<rect x="222.417" y="278.292" width="3.20833" height="3.20833" fill="black"/>
<rect x="222.417" y="281.5" width="3.20833" height="3.20833" fill="black"/>
<rect x="222.417" y="284.708" width="3.20833" height="3.20833" fill="black"/>
<rect x="222.417" y="287.917" width="3.20833" height="3.20833" fill="black"/>
<rect x="222.417" y="291.125" width="3.20833" height="3.20833" fill="black"/>
<rect x="222.417" y="294.333" width="3.20833" height="3.20833" fill="black"/>
<rect x="222.417" y="297.542" width="3.20833" height="3.20833" fill="black"/>
<rect x="222.417" y="300.75" width="3.20833" height="3.20833" fill="black"/>
<rect x="225.625" y="303.958" width="3.20833" height="3.20833" fill="black"/>
<rect x="228.834" y="307.167" width="3.20833" height="3.20833" fill="black"/>
<rect x="232.042" y="310.375" width="3.20833" height="3.20833" fill="black"/>
<rect x="235.25" y="310.375" width="3.20833" height="3.20833" fill="black"/>
<rect x="238.459" y="310.375" width="3.20833" height="3.20833" fill="black"/>
<rect x="241.667" y="310.375" width="3.20833" height="3.20833" fill="black"/>
<rect x="244.875" y="310.375" width="3.20833" height="3.20833" fill="black"/>
<rect x="248.084" y="310.375" width="3.20833" height="3.20833" fill="black"/>
<rect x="251.292" y="310.375" width="3.20833" height="3.20833" fill="black"/>
<rect x="254.5" y="310.375" width="3.20833" height="3.20833" fill="black"/>
<rect x="257.709" y="310.375" width="3.20833" height="3.20833" fill="black"/>
<rect x="260.917" y="310.375" width="3.20833" height="3.20833" fill="black"/>
<rect x="264.125" y="310.375" width="3.20833" height="3.20833" fill="black"/>
<rect x="267.334" y="310.375" width="3.20833" height="3.20833" fill="black"/>
<rect x="270.542" y="310.375" width="3.20833" height="3.20833" fill="black"/>
<rect x="273.75" y="310.375" width="3.20833" height="3.20833" fill="black"/>
<rect x="276.959" y="307.167" width="3.20833" height="3.20833" fill="black"/>
<rect x="280.167" y="303.958" width="3.20833" height="3.20833" fill="black"/>
<rect x="283.375" y="300.75" width="3.20833" height="3.20833" fill="black"/>
<rect x="283.375" y="297.542" width="3.20833" height="3.20833" fill="black"/>
<rect x="283.375" y="294.333" width="3.20833" height="3.20833" fill="black"/>
<rect x="283.375" y="291.125" width="3.20833" height="3.20833" fill="black"/>
<rect x="283.375" y="287.917" width="3.20833" height="3.20833" fill="black"/>
<rect x="283.375" y="284.708" width="3.20833" height="3.20833" fill="black"/>
<rect x="283.375" y="281.5" width="3.20833" height="3.20833" fill="black"/>
<rect x="283.375" y="278.292" width="3.20833" height="3.20833" fill="black"/>
<rect x="283.375" y="275.083" width="3.20833" height="3.20833" fill="black"/>
<rect x="283.375" y="271.875" width="3.20833" height="3.20833" fill="black"/>
<rect x="283.375" y="268.667" width="3.20833" height="3.20833" fill="black"/>
<rect x="283.375" y="265.458" width="3.20833" height="3.20833" fill="black"/>
<rect x="283.375" y="262.25" width="3.20833" height="3.20833" fill="black"/>
<rect x="283.375" y="259.042" width="3.20833" height="3.20833" fill="black"/>
<rect x="280.167" y="255.833" width="3.20833" height="3.20833" fill="black"/>
<rect x="276.959" y="252.625" width="3.20833" height="3.20833" fill="black"/>
</svg>
