<?xml version="1.0" encoding="UTF-8"?>
<svg xmlns="http://www.w3.org/2000/svg" xmlns:xlink="http://www.w3.org/1999/xlink" width="30px" height="31px" viewBox="0 0 30 30" version="1.1">
<g id="surface1">
<path style=" stroke:none;fill-rule:evenodd;fill:rgb(25.882353%,52.156863%,95.686275%);fill-opacity:1;" d="M 29.398438 15.328125 C 29.398438 14.308594 29.304688 13.328125 29.125 12.386719 L 15 12.386719 L 15 17.945312 L 23.070312 17.945312 C 22.722656 19.742188 21.667969 21.265625 20.078125 22.285156 L 20.078125 25.890625 L 24.929688 25.890625 C 27.761719 23.390625 29.398438 19.703125 29.398438 15.328125 Z M 29.398438 15.328125 "/>
<path style=" stroke:none;fill-rule:evenodd;fill:rgb(20.392157%,65.882353%,32.54902%);fill-opacity:1;" d="M 15 29.375 C 19.046875 29.375 22.445312 28.085938 24.925781 25.890625 L 20.078125 22.285156 C 18.734375 23.148438 17.015625 23.65625 15 23.65625 C 11.09375 23.65625 7.789062 21.128906 6.605469 17.730469 L 1.59375 17.730469 L 1.59375 21.457031 C 4.0625 26.152344 9.136719 29.375 15 29.375 Z M 15 29.375 "/>
<path style=" stroke:none;fill-rule:evenodd;fill:rgb(98.431373%,73.72549%,1.960784%);fill-opacity:1;" d="M 6.605469 17.730469 C 6.308594 16.867188 6.136719 15.949219 6.136719 15 C 6.136719 14.050781 6.308594 13.132812 6.605469 12.269531 L 6.605469 8.542969 L 1.59375 8.542969 C 0.578125 10.484375 0 12.679688 0 15 C 0 17.320312 0.578125 19.515625 1.59375 21.457031 Z M 6.605469 17.730469 "/>
<path style=" stroke:none;fill-rule:evenodd;fill:rgb(91.764706%,26.27451%,20.784314%);fill-opacity:1;" d="M 15 6.34375 C 17.203125 6.34375 19.179688 7.070312 20.734375 8.492188 L 25.035156 4.371094 C 22.441406 2.050781 19.042969 0.625 15 0.625 C 9.136719 0.625 4.0625 3.847656 1.59375 8.542969 L 6.605469 12.269531 C 7.789062 8.871094 11.09375 6.34375 15 6.34375 Z M 15 6.34375 "/>
</g>
</svg>
