<svg width="596" height="74" viewBox="0 0 596 74" fill="none" xmlns="http://www.w3.org/2000/svg">
<g filter="url(#filter0_d_462_13667)">
<path d="M4 20C4 8.9543 12.9543 0 24 0H571.612C582.658 0 591.612 8.9543 591.612 20V45.9617C591.612 57.0074 582.658 65.9617 571.612 65.9617H24C12.9543 65.9617 4 57.0074 4 45.9617V20Z" fill="#F5F5AC" fill-opacity="0.5" shape-rendering="crispEdges"/>
<path d="M24 0.5H571.612C582.381 0.5 591.112 9.23045 591.112 20V45.9617C591.112 56.7312 582.381 65.4617 571.612 65.4617H24C13.2305 65.4617 4.5 56.7312 4.5 45.9617V20C4.5 9.23044 13.2304 0.5 24 0.5Z" stroke="black" shape-rendering="crispEdges"/>
</g>
<defs>
<filter id="filter0_d_462_13667" x="0" y="0" width="595.612" height="73.9617" filterUnits="userSpaceOnUse" color-interpolation-filters="sRGB">
<feFlood flood-opacity="0" result="BackgroundImageFix"/>
<feColorMatrix in="SourceAlpha" type="matrix" values="0 0 0 0 0 0 0 0 0 0 0 0 0 0 0 0 0 0 127 0" result="hardAlpha"/>
<feOffset dy="4"/>
<feGaussianBlur stdDeviation="2"/>
<feComposite in2="hardAlpha" operator="out"/>
<feColorMatrix type="matrix" values="0 0 0 0 0 0 0 0 0 0 0 0 0 0 0 0 0 0 0.25 0"/>
<feBlend mode="normal" in2="BackgroundImageFix" result="effect1_dropShadow_462_13667"/>
<feBlend mode="normal" in="SourceGraphic" in2="effect1_dropShadow_462_13667" result="shape"/>
</filter>
</defs>
</svg>
