<svg width="683" height="415" viewBox="0 0 683 415" fill="none" xmlns="http://www.w3.org/2000/svg">
<g filter="url(#filter0_d_772_7677)">
<rect width="597" height="50" transform="translate(0 178)" fill="black"/>
<path d="M8.98633 18.5V9.5H17.9863V0.5H26.9863V9.5V18.5H17.9863V27.5H8.98633V18.5Z" fill="#451B0B"/>
<path d="M8.98633 18.5V27.5H0.000109673V18.5H8.98633Z" fill="#451B0B"/>
<rect x="26.9863" y="0.5" width="548.028" height="9" fill="#451B0B"/>
<path d="M593.014 18.5V9.5H584.014V0.5H575.014V9.5V18.5H584.014V27.5H593.014V18.5Z" fill="#451B0B"/>
<path d="M593.014 18.5V27.5H602V18.5H593.014Z" fill="#451B0B"/>
<rect y="27.5" width="9" height="351" fill="#451B0B"/>
<rect width="598" height="387" transform="translate(9 9.5)" fill="#F0D7BA"/>
<rect x="607" y="27.5" width="9" height="351" fill="#451B0B"/>
<path d="M607 9.5V18.5V27.5H598V18.5H589V9.5H598H607Z" fill="#451B0B"/>
<path d="M9 9.5V18.5V27.5H18V18.5H27V9.5H18H9Z" fill="#451B0B"/>
<path d="M8.98633 387.5V396.5H17.9863V405.5H26.9863V396.5V387.5H17.9863V378.5H8.98633V387.5Z" fill="#451B0B"/>
<path d="M8.98633 387.5V378.5H0.000109673V387.5H8.98633Z" fill="#451B0B"/>
<rect width="566" height="9" transform="matrix(1 0 0 -1 26.9863 405.5)" fill="#451B0B"/>
<path d="M608.995 386.833V396.167H600.99V405.5H592.986V396.167V386.833H600.99V377.5H608.995V386.833Z" fill="#451B0B"/>
<path d="M608.995 386.833V377.5H616.986V386.833H608.995Z" fill="#451B0B"/>
</g>
<defs>
<filter id="filter0_d_772_7677" x="0" y="0.5" width="683" height="414" filterUnits="userSpaceOnUse" color-interpolation-filters="sRGB">
<feFlood flood-opacity="0" result="BackgroundImageFix"/>
<feColorMatrix in="SourceAlpha" type="matrix" values="0 0 0 0 0 0 0 0 0 0 0 0 0 0 0 0 0 0 127 0" result="hardAlpha"/>
<feOffset dx="9" dy="9"/>
<feComposite in2="hardAlpha" operator="out"/>
<feColorMatrix type="matrix" values="0 0 0 0 0.117647 0 0 0 0 0.203922 0 0 0 0 0.270588 0 0 0 1 0"/>
<feBlend mode="normal" in2="BackgroundImageFix" result="effect1_dropShadow_772_7677"/>
<feBlend mode="normal" in="SourceGraphic" in2="effect1_dropShadow_772_7677" result="shape"/>
</filter>
</defs>
</svg>
