<svg width="851" height="596" viewBox="0 0 851 596" fill="none" xmlns="http://www.w3.org/2000/svg">
<rect x="67.542" y="582.455" width="189.112" height="13.5456" fill="#F0D7BA"/>
<rect x="256.652" y="568.908" width="175.604" height="13.5456" fill="#F0D7BA"/>
<rect x="432.255" y="582.455" width="189.112" height="13.5456" fill="#F0D7BA"/>
<rect x="621.365" y="568.908" width="67.5406" height="13.5456" fill="#F0D7BA"/>
<rect x="688.9" y="582.455" width="121.572" height="13.5456" fill="#F0D7BA"/>
<rect width="13.5082" height="325.088" transform="matrix(-1 0 0 1 27.0146 81.2791)" fill="#F0D7BA"/>
<rect x="27.0146" y="406.37" width="13.5082" height="162.544" fill="#F0D7BA"/>
<rect x="810.479" y="487.639" width="13.5081" height="94.8192" fill="#F0D7BA"/>
<rect x="823.987" y="216.734" width="13.5082" height="270.907" fill="#F0D7BA"/>
<rect x="810.479" y="176.099" width="13.5081" height="40.6368" fill="#F0D7BA"/>
<rect x="796.971" y="135.46" width="13.5081" height="40.6368" fill="#F0D7BA"/>
<rect x="810.479" y="121.913" width="27.0162" height="13.5456" fill="#F0D7BA"/>
<rect x="837.493" y="40.6396" width="13.5081" height="81.2736" fill="#F0D7BA"/>
<rect x="823.987" y="27.0981" width="13.5081" height="13.5456" fill="#F0D7BA"/>
<rect x="594.348" y="13.5518" width="229.635" height="13.5455" fill="#F0D7BA"/>
<rect x="499.794" y="27.0981" width="94.5557" height="13.5456" fill="#F0D7BA"/>
<rect x="121.57" y="13.5518" width="378.222" height="13.5453" fill="#F0D7BA"/>
<rect x="81.0449" y="27.0981" width="40.5244" height="13.5456" fill="#F0D7BA"/>
<rect x="67.542" y="40.6396" width="13.5081" height="27.0912" fill="#F0D7BA"/>
<rect x="27.0146" y="67.7334" width="40.5244" height="13.5456" fill="#F0D7BA"/>
<rect x="40.5195" y="568.908" width="27.0162" height="13.5456" fill="#F0D7BA"/>
<rect x="121.57" y="27.0981" width="378.222" height="541.814" fill="#F0D7BA"/>
<rect x="81.0449" y="40.6396" width="40.5247" height="528.268" fill="#F0D7BA"/>
<rect x="40.5195" y="81.2791" width="40.5247" height="325.088" fill="#F0D7BA"/>
<rect x="27.0146" y="81.2791" width="13.5082" height="325.088" fill="#F0D7BA"/>
<rect x="810.479" y="216.734" width="13.5082" height="270.907" fill="#F0D7BA"/>
<rect x="810.479" y="40.6396" width="27.0162" height="81.2736" fill="#F0D7BA"/>
<rect x="40.5195" y="406.37" width="40.5247" height="162.544" fill="#F0D7BA"/>
<rect x="67.542" y="568.908" width="189.112" height="13.5456" fill="#F0D7BA"/>
<rect x="432.255" y="568.908" width="189.112" height="13.5456" fill="#F0D7BA"/>
<rect x="688.9" y="216.734" width="121.573" height="365.724" fill="#F0D7BA"/>
<rect x="499.794" y="40.6396" width="189.114" height="528.268" fill="#F0D7BA"/>
<rect x="594.348" y="27.0981" width="229.635" height="13.5455" fill="#F0D7BA"/>
<rect x="796.971" y="176.099" width="13.5081" height="40.6368" fill="#F0D7BA"/>
<rect x="796.971" y="40.6396" width="13.5081" height="94.8192" fill="#F0D7BA"/>
<rect x="688.9" y="40.6396" width="108.065" height="176.089" fill="#F0D7BA"/>
<rect x="54.0361" y="568.903" width="189.112" height="13.5456" fill="#F0D7BA"/>
<rect x="243.146" y="555.356" width="175.604" height="13.5456" fill="#F0D7BA"/>
<rect x="432.258" y="568.903" width="175.604" height="13.5456" fill="#F0D7BA"/>
<rect x="607.861" y="555.356" width="67.5406" height="13.5456" fill="#F0D7BA"/>
<rect x="688.904" y="568.903" width="108.064" height="13.5456" fill="#F0D7BA"/>
<rect width="13.5082" height="325.088" transform="matrix(-1 0 0 1 13.5078 67.7275)" fill="#F0D7BA"/>
<rect x="13.5078" y="392.818" width="13.5082" height="162.544" fill="#F0D7BA"/>
<rect x="796.969" y="474.087" width="13.5081" height="94.8192" fill="#F0D7BA"/>
<rect x="810.48" y="203.182" width="13.5082" height="270.907" fill="#F0D7BA"/>
<rect x="796.969" y="162.547" width="13.5081" height="40.6368" fill="#F0D7BA"/>
<rect x="783.464" y="121.908" width="13.5081" height="40.6368" fill="#F0D7BA"/>
<rect x="796.969" y="108.362" width="27.0162" height="13.5456" fill="#F0D7BA"/>
<rect x="823.987" y="27.0881" width="13.5081" height="81.2736" fill="#F0D7BA"/>
<rect x="810.48" y="13.5461" width="13.5081" height="13.5456" fill="#F0D7BA"/>
<rect x="580.842" width="229.635" height="13.5455" fill="#F0D7BA"/>
<rect x="486.287" y="13.5461" width="94.5557" height="13.5456" fill="#F0D7BA"/>
<rect x="108.064" width="378.222" height="13.5453" fill="#F0D7BA"/>
<rect x="67.5391" y="13.5461" width="40.5244" height="13.5456" fill="#F0D7BA"/>
<rect x="54.0361" y="27.0884" width="13.5081" height="27.0912" fill="#F0D7BA"/>
<rect x="13.5078" y="54.1812" width="40.5244" height="13.5456" fill="#F0D7BA"/>
<rect x="27.0127" y="555.356" width="27.0162" height="13.5456" fill="#F0D7BA"/>
<rect x="108.064" y="13.5461" width="378.222" height="541.814" fill="#F0D7BA"/>
<rect x="67.5391" y="27.0884" width="40.5247" height="528.268" fill="#F0D7BA"/>
<rect x="27.0127" y="67.7275" width="40.5247" height="325.088" fill="#F0D7BA"/>
<rect x="13.5078" y="67.7275" width="13.5082" height="325.088" fill="#F0D7BA"/>
<rect x="796.969" y="203.182" width="13.5082" height="270.907" fill="#F0D7BA"/>
<rect x="796.969" y="27.0881" width="27.0162" height="81.2736" fill="#F0D7BA"/>
<rect x="27.0127" y="392.818" width="40.5247" height="162.544" fill="#F0D7BA"/>
<rect x="54.0361" y="555.356" width="189.112" height="13.5456" fill="#F0D7BA"/>
<rect x="418.748" y="555.356" width="189.112" height="13.5456" fill="#F0D7BA"/>
<rect x="675.396" y="203.182" width="121.573" height="365.724" fill="#F0D7BA"/>
<rect x="486.287" y="27.0881" width="189.114" height="528.268" fill="#F0D7BA"/>
<rect x="580.842" y="13.5461" width="229.635" height="13.5455" fill="#F0D7BA"/>
<rect x="783.464" y="162.547" width="13.5081" height="40.6368" fill="#F0D7BA"/>
<rect x="783.464" y="27.0881" width="13.5081" height="94.8192" fill="#F0D7BA"/>
<rect x="675.396" y="27.0881" width="108.065" height="176.089" fill="#F0D7BA"/>
<rect x="54.0361" y="54.1812" width="13.5081" height="13.5456" fill="#F0D7BA"/>
<rect x="745.233" y="164.199" width="12.5038" height="238.334" fill="#BAA48B"/>
<rect x="745.233" y="164.199" width="12.5038" height="238.334" fill="#BAA48B"/>
<rect x="95.0508" y="164.199" width="12.5038" height="238.334" fill="#BAA48B"/>
<rect x="107.554" y="128.451" width="12.5038" height="59.5834" transform="rotate(-180 107.554 128.451)" fill="#BAA48B"/>
<rect x="157.568" y="68.8667" width="11.9167" height="50.0151" transform="rotate(90 157.568 68.8667)" fill="#BAA48B"/>
<rect x="107.553" y="92.7024" width="12.5038" height="11.9167" fill="#BAA48B"/>
<rect x="120.061" y="80.7849" width="12.5038" height="11.9167" fill="#BAA48B"/>
<rect x="132.562" y="104.616" width="12.5038" height="11.9167" fill="#BAA48B"/>
<rect width="12.5038" height="59.5834" transform="matrix(-1 0 0 1 107.555 438.277)" fill="#BAA48B"/>
<rect width="11.9167" height="50.0151" transform="matrix(0 -1 -1 0 157.569 497.861)" fill="#BAA48B"/>
<rect width="12.5038" height="11.9167" transform="matrix(1 0 0 -1 107.554 474.031)" fill="#BAA48B"/>
<rect width="12.5038" height="11.9167" transform="matrix(1 0 0 -1 120.062 485.949)" fill="#BAA48B"/>
<rect width="12.5038" height="11.9167" transform="matrix(1 0 0 -1 132.562 462.114)" fill="#BAA48B"/>
<rect x="745.237" y="438.277" width="12.5038" height="59.5834" fill="#BAA48B"/>
<rect x="695.226" y="497.861" width="11.9167" height="50.0151" transform="rotate(-90 695.226 497.861)" fill="#BAA48B"/>
<rect x="745.239" y="474.031" width="12.5038" height="11.9167" transform="rotate(180 745.239 474.031)" fill="#BAA48B"/>
<rect x="732.731" y="485.949" width="12.5038" height="11.9167" transform="rotate(180 732.731 485.949)" fill="#BAA48B"/>
<rect x="720.23" y="462.113" width="12.5038" height="11.9167" transform="rotate(180 720.23 462.113)" fill="#BAA48B"/>
<rect width="12.5038" height="59.5834" transform="matrix(1 0 0 -1 745.237 128.451)" fill="#BAA48B"/>
<rect width="11.9167" height="50.0151" transform="matrix(0 1 1 0 695.226 68.8672)" fill="#BAA48B"/>
<rect width="12.5038" height="11.9167" transform="matrix(-1 0 0 1 745.239 92.7026)" fill="#BAA48B"/>
<rect width="12.5038" height="11.9167" transform="matrix(-1 0 0 1 732.731 80.7849)" fill="#BAA48B"/>
<rect width="12.5038" height="11.9167" transform="matrix(-1 0 0 1 720.23 104.616)" fill="#BAA48B"/>
<rect width="12.5038" height="238.334" transform="matrix(1 0 0 -1 782.747 438.281)" fill="#F0D7BA"/>
<rect x="782.747" y="521.696" width="12.5038" height="83.4168" transform="rotate(180 782.747 521.696)" fill="#F0D7BA"/>
<rect x="770.238" y="533.613" width="100.029" height="11.9167" transform="rotate(180 770.238 533.613)" fill="#F0D7BA"/>
<rect x="670.21" y="521.696" width="75.0218" height="11.9167" transform="rotate(180 670.21 521.696)" fill="#F0D7BA"/>
<rect x="595.193" y="533.613" width="162.548" height="11.9167" transform="rotate(180 595.193 533.613)" fill="#F0D7BA"/>
<rect x="432.648" y="521.696" width="175.052" height="11.9167" transform="rotate(180 432.648 521.696)" fill="#F0D7BA"/>
<rect x="257.599" y="533.613" width="175.052" height="11.9167" transform="rotate(180 257.599 533.613)" fill="#F0D7BA"/>
<rect x="82.5518" y="521.696" width="25.0076" height="11.9167" transform="rotate(180 82.5518 521.696)" fill="#F0D7BA"/>
<rect x="57.5381" y="509.782" width="12.5038" height="143" transform="rotate(180 57.5381 509.782)" fill="#F0D7BA"/>
<rect x="45.0391" y="366.783" width="12.5038" height="286.001" transform="rotate(180 45.0391 366.783)" fill="#F0D7BA"/>
<rect width="12.5038" height="23.8334" transform="matrix(1 0 0 -1 770.238 188.031)" fill="#F0D7BA"/>
<rect width="12.5038" height="35.7501" transform="matrix(1 0 0 -1 757.738 164.199)" fill="#F0D7BA"/>
<rect width="12.5038" height="11.9167" transform="matrix(1 0 0 -1 782.747 128.447)" fill="#F0D7BA"/>
<rect width="12.5038" height="23.8334" transform="matrix(1 0 0 -1 782.747 56.9453)" fill="#F0D7BA"/>
<rect width="12.5038" height="23.8334" transform="matrix(1 0 0 -1 770.238 45.0317)" fill="#F0D7BA"/>
<rect width="12.5038" height="71.5001" transform="matrix(1 0 0 -1 795.248 116.53)" fill="#F0D7BA"/>
<rect x="45.0391" y="68.8669" width="37.5114" height="11.9167" fill="#F0D7BA"/>
<rect x="82.5518" y="45.0317" width="12.5038" height="23.8334" fill="#F0D7BA"/>
<rect x="95.0508" y="33.1138" width="37.5114" height="11.9167" fill="#F0D7BA"/>
<rect x="132.562" y="21.1965" width="350.098" height="11.9167" fill="#F0D7BA"/>
<rect x="482.66" y="33.1138" width="87.5254" height="11.9167" fill="#F0D7BA"/>
<rect x="570.185" y="21.1965" width="200.059" height="11.9167" fill="#F0D7BA"/>
<rect x="770.238" y="342.948" width="12.5038" height="23.8334" fill="#F0D7BA"/>
<rect x="770.238" y="235.697" width="12.5038" height="11.9167" fill="#F0D7BA"/>
<rect x="770.238" y="68.8669" width="25.0076" height="11.9167" fill="#F0D7BA"/>
<rect x="782.747" y="80.7808" width="12.5038" height="11.9167" fill="#F0D7BA"/>
<rect x="607.696" y="33.1138" width="87.5254" height="11.9167" fill="#F0D7BA"/>
<rect x="632.701" y="45.0317" width="25.0076" height="11.9167" fill="#F0D7BA"/>
<rect x="345.12" y="33.1138" width="25.0076" height="11.9167" fill="#F0D7BA"/>
<rect x="357.625" y="45.0317" width="12.5038" height="11.9167" fill="#F0D7BA"/>
<rect x="432.648" y="33.1138" width="37.5114" height="11.9167" fill="#F0D7BA"/>
<rect x="132.562" y="33.1138" width="12.5038" height="11.9167" fill="#F0D7BA"/>
<rect x="132.562" y="45.0317" width="25.0076" height="11.9167" fill="#F0D7BA"/>
<rect x="45.0391" y="80.7808" width="12.5038" height="83.4168" fill="#F0D7BA"/>
<rect x="57.5381" y="80.7808" width="12.5038" height="47.6667" fill="#F0D7BA"/>
<rect x="45.0391" y="259.533" width="12.5038" height="59.5834" fill="#F0D7BA"/>
<rect x="57.5381" y="307.199" width="12.5038" height="35.7501" fill="#F0D7BA"/>
<rect x="45.0391" y="342.948" width="12.5038" height="23.8334" fill="#F0D7BA"/>
<rect x="57.5381" y="378.697" width="12.5038" height="83.4168" fill="#F0D7BA"/>
<rect x="57.5381" y="474.034" width="12.5038" height="11.9167" fill="#F0D7BA"/>
<rect x="132.562" y="509.782" width="37.5114" height="11.9167" fill="#F0D7BA"/>
<rect x="182.578" y="509.782" width="25.0076" height="11.9167" fill="#F0D7BA"/>
<rect x="332.62" y="497.864" width="50.0151" height="11.9167" fill="#F0D7BA"/>
<rect x="507.67" y="509.782" width="12.5038" height="11.9167" fill="#F0D7BA"/>
<rect x="557.68" y="509.782" width="25.0076" height="11.9167" fill="#F0D7BA"/>
<rect x="632.701" y="497.864" width="25.0076" height="11.9167" fill="#F0D7BA"/>
<rect x="720.229" y="509.782" width="12.5038" height="11.9167" fill="#F0D7BA"/>
</svg>
