<svg width="851" height="596" viewBox="0 0 851 596" fill="none" xmlns="http://www.w3.org/2000/svg">
<rect x="67.542" y="582.455" width="189.112" height="13.5456" fill="#F0D7BA"/>
<rect x="256.652" y="568.908" width="175.604" height="13.5456" fill="#F0D7BA"/>
<rect x="432.255" y="582.455" width="189.112" height="13.5456" fill="#F0D7BA"/>
<rect x="621.365" y="568.908" width="67.5406" height="13.5456" fill="#F0D7BA"/>
<rect x="688.9" y="582.455" width="121.572" height="13.5456" fill="#F0D7BA"/>
<rect width="13.5082" height="325.088" transform="matrix(-1 0 0 1 27.0146 81.2791)" fill="#F0D7BA"/>
<rect x="27.0146" y="406.37" width="13.5082" height="162.544" fill="#F0D7BA"/>
<rect x="810.479" y="487.639" width="13.5081" height="94.8192" fill="#F0D7BA"/>
<rect x="823.987" y="216.734" width="13.5082" height="270.907" fill="#F0D7BA"/>
<rect x="810.479" y="176.099" width="13.5081" height="40.6368" fill="#F0D7BA"/>
<rect x="796.971" y="135.46" width="13.5081" height="40.6368" fill="#F0D7BA"/>
<rect x="810.479" y="121.913" width="27.0162" height="13.5456" fill="#F0D7BA"/>
<rect x="837.493" y="40.6396" width="13.5081" height="81.2736" fill="#F0D7BA"/>
<rect x="823.987" y="27.0981" width="13.5081" height="13.5456" fill="#F0D7BA"/>
<rect x="594.348" y="13.5518" width="229.635" height="13.5455" fill="#F0D7BA"/>
<rect x="499.794" y="27.0981" width="94.5557" height="13.5456" fill="#F0D7BA"/>
<rect x="121.57" y="13.5518" width="378.222" height="13.5453" fill="#F0D7BA"/>
<rect x="81.0449" y="27.0981" width="40.5244" height="13.5456" fill="#F0D7BA"/>
<rect x="67.542" y="40.6396" width="13.5081" height="27.0912" fill="#F0D7BA"/>
<rect x="27.0146" y="67.7334" width="40.5244" height="13.5456" fill="#F0D7BA"/>
<rect x="40.5195" y="568.908" width="27.0162" height="13.5456" fill="#F0D7BA"/>
<rect x="121.57" y="27.0981" width="378.222" height="541.814" fill="#F0D7BA"/>
<rect x="81.0449" y="40.6396" width="40.5247" height="528.268" fill="#F0D7BA"/>
<rect x="40.5195" y="81.2791" width="40.5247" height="325.088" fill="#F0D7BA"/>
<rect x="27.0146" y="81.2791" width="13.5082" height="325.088" fill="#F0D7BA"/>
<rect x="810.479" y="216.734" width="13.5082" height="270.907" fill="#F0D7BA"/>
<rect x="810.479" y="40.6396" width="27.0162" height="81.2736" fill="#F0D7BA"/>
<rect x="40.5195" y="406.37" width="40.5247" height="162.544" fill="#F0D7BA"/>
<rect x="67.542" y="568.908" width="189.112" height="13.5456" fill="#F0D7BA"/>
<rect x="432.255" y="568.908" width="189.112" height="13.5456" fill="#F0D7BA"/>
<rect x="688.9" y="216.734" width="121.573" height="365.724" fill="#F0D7BA"/>
<rect x="499.794" y="40.6396" width="189.114" height="528.268" fill="#F0D7BA"/>
<rect x="594.348" y="27.0981" width="229.635" height="13.5455" fill="#F0D7BA"/>
<rect x="796.971" y="176.099" width="13.5081" height="40.6368" fill="#F0D7BA"/>
<rect x="796.971" y="40.6396" width="13.5081" height="94.8192" fill="#F0D7BA"/>
<rect x="688.9" y="40.6396" width="108.065" height="176.089" fill="#F0D7BA"/>
<rect x="54.0361" y="568.903" width="189.112" height="13.5456" fill="#F0D7BA"/>
<rect x="243.146" y="555.356" width="175.604" height="13.5456" fill="#F0D7BA"/>
<rect x="432.258" y="568.903" width="175.604" height="13.5456" fill="#F0D7BA"/>
<rect x="607.861" y="555.356" width="67.5406" height="13.5456" fill="#F0D7BA"/>
<rect x="688.904" y="568.903" width="108.064" height="13.5456" fill="#F0D7BA"/>
<rect width="13.5082" height="325.088" transform="matrix(-1 0 0 1 13.5078 67.7275)" fill="#F0D7BA"/>
<rect x="13.5078" y="392.818" width="13.5082" height="162.544" fill="#F0D7BA"/>
<rect x="796.969" y="474.087" width="13.5081" height="94.8192" fill="#F0D7BA"/>
<rect x="810.48" y="203.182" width="13.5082" height="270.907" fill="#F0D7BA"/>
<rect x="796.969" y="162.547" width="13.5081" height="40.6368" fill="#F0D7BA"/>
<rect x="783.464" y="121.908" width="13.5081" height="40.6368" fill="#F0D7BA"/>
<rect x="796.969" y="108.362" width="27.0162" height="13.5456" fill="#F0D7BA"/>
<rect x="823.987" y="27.0881" width="13.5081" height="81.2736" fill="#F0D7BA"/>
<rect x="810.48" y="13.5461" width="13.5081" height="13.5456" fill="#F0D7BA"/>
<rect x="580.842" width="229.635" height="13.5455" fill="#F0D7BA"/>
<rect x="486.287" y="13.5461" width="94.5557" height="13.5456" fill="#F0D7BA"/>
<rect x="108.064" width="378.222" height="13.5453" fill="#F0D7BA"/>
<rect x="67.5391" y="13.5461" width="40.5244" height="13.5456" fill="#F0D7BA"/>
<rect x="54.0361" y="27.0884" width="13.5081" height="27.0912" fill="#F0D7BA"/>
<rect x="13.5078" y="54.1812" width="40.5244" height="13.5456" fill="#F0D7BA"/>
<rect x="27.0127" y="555.356" width="27.0162" height="13.5456" fill="#F0D7BA"/>
<rect x="108.064" y="13.5461" width="378.222" height="541.814" fill="#F0D7BA"/>
<rect x="67.5391" y="27.0884" width="40.5247" height="528.268" fill="#F0D7BA"/>
<rect x="27.0127" y="67.7275" width="40.5247" height="325.088" fill="#F0D7BA"/>
<rect x="13.5078" y="67.7275" width="13.5082" height="325.088" fill="#F0D7BA"/>
<rect x="796.969" y="203.182" width="13.5082" height="270.907" fill="#F0D7BA"/>
<rect x="796.969" y="27.0881" width="27.0162" height="81.2736" fill="#F0D7BA"/>
<rect x="27.0127" y="392.818" width="40.5247" height="162.544" fill="#F0D7BA"/>
<rect x="54.0361" y="555.356" width="189.112" height="13.5456" fill="#F0D7BA"/>
<rect x="418.748" y="555.356" width="189.112" height="13.5456" fill="#F0D7BA"/>
<rect x="675.396" y="203.182" width="121.573" height="365.724" fill="#F0D7BA"/>
<rect x="486.287" y="27.0881" width="189.114" height="528.268" fill="#F0D7BA"/>
<rect x="580.842" y="13.5461" width="229.635" height="13.5455" fill="#F0D7BA"/>
<rect x="783.464" y="162.547" width="13.5081" height="40.6368" fill="#F0D7BA"/>
<rect x="783.464" y="27.0881" width="13.5081" height="94.8192" fill="#F0D7BA"/>
<rect x="675.396" y="27.0881" width="108.065" height="176.089" fill="#F0D7BA"/>
<rect x="54.0361" y="54.1812" width="13.5081" height="13.5456" fill="#F0D7BA"/>
</svg>
